SplineFontDB: 3.2
FontName: SignPinyin-Regular
FullName: SignPinyin
FamilyName: SignPinyin
Weight: Regular
Copyright: Copyright (c) 2025 by ErSanSan233 (with SHA-256 hash: f3047b1cb1fff295615fae222912d1074bdffc4fd9a47a68f2bc12e602823a07), and Zhang 3-er (with SHA-256 hash: 683934d011609f6a0da62aa096b040865c5c6e8b0a39be0eac9a0edf5167348b). ALL RIGHTS RESERVED.
Version: 0.5.4ffbeta2
ItalicAngle: 0
UnderlinePosition: -117
UnderlineWidth: 35
Ascent: 819
Descent: 205
InvalidEm: 0
sfntRevision: 0x00010000
LayerCount: 2
Layer: 0 1 "Back" 1
Layer: 1 1 "Fore" 0
XUID: [1021 520 2022644484 4199906]
StyleMap: 0x0040
FSType: 0
OS2Version: 2
OS2_WeightWidthSlopeOnly: 0
OS2_UseTypoMetrics: 0
CreationTime: 1654785242
ModificationTime: 1743598661
PfmFamily: 81
TTFWeight: 400
TTFWidth: 5
LineGap: 61
VLineGap: 0
Panose: 0 0 0 0 0 0 0 0 0 0
OS2TypoAscent: 696
OS2TypoAOffset: 0
OS2TypoDescent: -451
OS2TypoDOffset: 0
OS2TypoLinegap: 61
OS2WinAscent: 696
OS2WinAOffset: 0
OS2WinDescent: 451
OS2WinDOffset: 0
HheadAscent: 696
HheadAOffset: 0
HheadDescent: -451
HheadDOffset: 0
OS2SubXSize: 650
OS2SubYSize: 700
OS2SubXOff: 47
OS2SubYOff: 140
OS2SupXSize: 650
OS2SupYSize: 700
OS2SupXOff: -164
OS2SupYOff: 480
OS2StrikeYSize: 49
OS2StrikeYPos: 258
OS2CapHeight: 696
OS2XHeight: 389
OS2Vendor: 'Bird'
OS2CodePages: 202e00fb.cdd50000
OS2UnicodeRanges: 00000001.00000000.00000000.00000000
Lookup: 3 0 0 "'onum' Oldstyle Figures in Latin lookup 0" { "'onum' Oldstyle Figures in Latin lookup 0 subtable"  } ['onum' ('DFLT' <'dflt' > 'latn' <'dflt' > ) ]
Lookup: 4 0 0 "Ligature Substitution lookup 1" { "Ligature Substitution lookup 1 subtable"  } []
Lookup: 4 0 0 "Ligature Substitution lookup 2" { "Ligature Substitution lookup 2 subtable"  } []
Lookup: 4 0 0 "Ligature Substitution lookup 3" { "Ligature Substitution lookup 3 subtable"  } []
Lookup: 4 0 0 "Ligature Substitution lookup 4" { "Ligature Substitution lookup 4 subtable"  } []

StartChar: .notdef
Encoding: 65536 -1 0
Width: 543
GlyphClass: 1
Flags: W
LayerCount: 2
Fore
SplineSet
51 102 m 1,0,1
 51 102 51 102 358 102 c 1,2,3
 358 102 358 102 358 575 c 1,4,5
 358 575 358 575 51 575 c 1,6,7
 51 575 51 575 51 102 c 1,0,1
0 626 m 1,8,9
 0 626 0 626 410 626 c 1,10,11
 410 626 410 626 410 51 c 1,12,13
 410 51 410 51 0 51 c 1,14,15
 0 51 0 51 0 626 c 1,8,9
EndSplineSet
EndChar

StartChar: quotesingle
Encoding: 39 39 4
Width: 123
GlyphClass: 1
Flags: W
LayerCount: 2
Fore
SplineSet
26 655 m 0,0,1
 31 676 31 676 61.5 676 c 128,-1,2
 92 676 92 676 97 656 c 2,3,4
 97 656 97 656 102 635 c 1,5,6
 102 635 102 635 97 614.5 c 128,-1,7
 92 594 92 594 61.5 594 c 128,-1,8
 31 594 31 594 26 614 c 2,9,10
 26 614 26 614 20 635 c 1,11,12
 20 635 20 635 26 655 c 0,0,1
EndSplineSet
EndChar

StartChar: period
Encoding: 46 46 5
Width: 123
GlyphClass: 1
Flags: W
LayerCount: 2
Fore
SplineSet
26 61 m 0,0,1
 31 82 31 82 61.5 82 c 128,-1,2
 92 82 92 82 97 62 c 2,3,4
 97 62 97 62 102 41 c 1,5,6
 102 41 102 41 97 20.5 c 128,-1,7
 92 0 92 0 61.5 0 c 128,-1,8
 31 0 31 0 26 20 c 2,9,10
 26 20 26 20 20 41 c 1,11,12
 20 41 20 41 26 61 c 0,0,1
EndSplineSet
EndChar

StartChar: slash
Encoding: 47 47 6
Width: 574
GlyphClass: 1
Flags: W
LayerCount: 2
Fore
SplineSet
82 0 m 1,0,1
 82 0 82 0 20 0 c 1,2,3
 177 225 177 225 492 676 c 1,4,5
 492 676 492 676 553 676 c 1,6,7
 396 451 396 451 82 0 c 1,0,1
EndSplineSet
EndChar

StartChar: zero
Encoding: 48 48 7
Width: 451
GlyphClass: 1
Flags: W
LayerCount: 2
Fore
SplineSet
348 0 m 1,0,1
 348 0 348 0 348 -61 c 1,2,3
 348 -61 348 -61 61 -61 c 1,4,5
 61 -61 61 -61 61 0 c 0,6,7
 61 1 61 1 56 34 c 2,8,9
 56 34 56 34 46 100 c 128,-1,10
 36 166 36 166 20 266 c 1,11,12
 20 266 20 266 20 451 c 0,13,14
 20 481 20 481 38 506.5 c 128,-1,15
 56 532 56 532 102 532 c 2,16,17
 102 532 102 532 266 532 c 0,18,19
 312 532 312 532 340.5 504 c 128,-1,20
 369 476 369 476 369 430 c 1,21,22
 369 430 369 430 391.5 428 c 128,-1,23
 414 426 414 426 426 405 c 0,24,25
 430 398 430 398 430 398 c 257,26,27
 430 398 430 398 430 288 c 128,-1,28
 430 178 430 178 369 44 c 2,29,30
 369 44 369 44 348 0 c 1,0,1
164 410 m 0,31,32
 164 328 164 328 164 246 c 0,33,34
 164 215 164 215 174 200 c 2,35,36
 174 200 174 200 184 184 c 2,37,38
 184 184 184 184 192 174 c 0,39,40
 216 142 216 142 246 102 c 1,41,42
 261 102 261 102 264 113 c 2,43,44
 264 113 264 113 266 123 c 1,45,46
 266 123 266 123 258 133.5 c 128,-1,47
 250 144 250 144 239 159 c 128,-1,48
 228 174 228 174 225 178 c 128,-1,49
 222 182 222 182 205 205 c 1,50,51
 205 205 205 205 287 205 c 1,52,53
 287 205 287 205 307.5 212.5 c 128,-1,54
 328 220 328 220 328 258 c 2,55,56
 328 258 328 258 328 389 c 1,57,58
 312 389 312 389 300 392 c 0,59,60
 287 394 287 394 287 410 c 0,61,62
 287 440 287 440 266 445 c 2,63,64
 266 445 266 445 246 451 c 1,65,66
 246 451 246 451 205 451 c 1,67,68
 205 451 205 451 184 445 c 0,69,70
 164 440 164 440 164 410 c 0,31,32
EndSplineSet
EndChar

StartChar: one
Encoding: 49 49 8
Width: 451
GlyphClass: 1
Flags: W
LayerCount: 2
Fore
SplineSet
215 323 m 256,0,1
 205 323 205 323 205 310 c 2,2,3
 205 310 205 310 205 287 c 1,4,5
 189 287 189 287 166 271.5 c 128,-1,6
 143 256 143 256 143 225 c 1,7,8
 143 225 143 225 133 228.5 c 128,-1,9
 123 232 123 232 123 254 c 2,10,11
 123 254 123 254 123 300 c 0,12,13
 123 323 123 323 112.5 323 c 128,-1,14
 102 323 102 323 102 307 c 2,15,16
 102 307 102 307 102 266 c 0,17,18
 102 236 102 236 61 236 c 256,19,20
 20 236 20 236 20 266 c 2,21,22
 20 266 20 266 20 369 c 0,23,24
 20 402 20 402 61 402 c 2,25,26
 61 402 61 402 72 402 c 0,27,28
 102 401 102 401 102 389 c 0,29,30
 102 374 102 374 112.5 374 c 128,-1,31
 123 374 123 374 123 389 c 0,32,33
 123 420 123 420 164 420 c 256,34,35
 205 420 205 420 205 389 c 0,36,37
 205 374 205 374 215.5 374 c 128,-1,38
 226 374 226 374 225 389 c 0,39,40
 225 420 225 420 266 420 c 256,41,42
 307 420 307 420 307 389 c 0,43,44
 307 338 307 338 307 287 c 1,45,46
 307 287 307 287 225 287 c 1,47,48
 225 287 225 287 225 305 c 128,-1,49
 225 323 225 323 215 323 c 256,0,1
61 0 m 0,50,51
 61 15 61 15 41 41 c 0,52,53
 20 67 20 67 20 78 c 0,54,55
 20 162 20 162 20 246 c 1,56,57
 20 233 20 233 31 229 c 2,58,59
 31 229 31 229 41 225 c 1,60,61
 41 225 41 225 102 225 c 0,62,63
 121 225 121 225 138 209.5 c 128,-1,64
 155 194 155 194 170 179 c 256,65,66
 185 164 185 164 205 164 c 2,67,68
 205 164 205 164 251 164 c 128,-1,69
 297 164 297 164 302 159 c 256,70,71
 307 154 307 154 307 123 c 0,72,73
 307 108 307 108 317.5 108 c 128,-1,74
 328 108 328 108 328 123 c 0,75,76
 328 169 328 169 312.5 176.5 c 128,-1,77
 297 184 297 184 292 184 c 2,78,79
 292 184 292 184 242.5 184 c 128,-1,80
 193 184 193 184 184 188 c 0,81,82
 159 198 159 198 159 223 c 0,83,84
 159 231 159 231 162 240 c 0,85,86
 171 266 171 266 205 266 c 2,87,88
 205 266 205 266 410 266 c 0,89,90
 425 266 425 266 427.5 253.5 c 128,-1,91
 430 241 430 241 430 236 c 2,92,93
 430 236 430 236 430 102 c 0,94,95
 430 83 430 83 402.5 56.5 c 128,-1,96
 375 30 375 30 361.5 19.5 c 128,-1,97
 348 9 348 9 348 0 c 2,98,99
 348 0 348 0 348 -61 c 1,100,101
 348 -61 348 -61 61 -61 c 1,102,103
 61 -61 61 -61 61 0 c 0,50,51
328 635 m 0,104,105
 328 666 328 666 369 666 c 256,106,107
 410 666 410 666 410 635 c 0,108,109
 410 461 410 461 410 287 c 1,110,111
 410 287 410 287 328 287 c 1,112,113
 328 461 328 461 328 635 c 0,104,105
EndSplineSet
EndChar

StartChar: two
Encoding: 50 50 9
Width: 492
GlyphClass: 1
Flags: W
LayerCount: 2
Fore
SplineSet
205 287 m 1,0,1
 189 287 189 287 166 271.5 c 128,-1,2
 143 256 143 256 143 225 c 1,3,4
 143 225 143 225 133 228.5 c 128,-1,5
 123 232 123 232 123 246 c 2,6,7
 123 246 123 246 123 300 c 0,8,9
 123 323 123 323 112.5 323 c 128,-1,10
 102 323 102 323 102 305 c 2,11,12
 102 305 102 305 102 266 c 0,13,14
 102 236 102 236 61 236 c 256,15,16
 20 236 20 236 20 266 c 2,17,18
 20 266 20 266 20 369 c 0,19,20
 20 402 20 402 61 402 c 2,21,22
 61 402 61 402 72 402 c 0,23,24
 102 401 102 401 102 389 c 0,25,26
 102 374 102 374 112.5 374 c 128,-1,27
 123 374 123 374 123 389 c 0,28,29
 123 420 123 420 164 420 c 256,30,31
 205 420 205 420 205 389 c 0,32,33
 205 338 205 338 205 287 c 1,0,1
410 266 m 0,34,35
 430 266 430 266 430 238 c 2,36,37
 430 238 430 238 430 102 c 0,38,39
 430 75 430 75 366 24 c 0,40,41
 348 9 348 9 348 0 c 2,42,43
 348 0 348 0 348 -61 c 1,44,45
 348 -61 348 -61 61 -61 c 1,46,47
 61 -61 61 -61 61 0 c 0,48,49
 61 15 61 15 41 41 c 0,50,51
 20 67 20 67 20 82 c 2,52,53
 20 82 20 82 20 246 c 1,54,55
 20 230 20 230 31 228 c 0,56,57
 31 225 31 225 102 225 c 0,58,59
 121 225 121 225 138 209.5 c 128,-1,60
 155 194 155 194 170 179 c 256,61,62
 185 164 185 164 205 164 c 2,63,64
 205 164 205 164 251 164 c 128,-1,65
 297 164 297 164 302 159 c 256,66,67
 307 154 307 154 307 123 c 0,68,69
 307 108 307 108 317.5 108 c 128,-1,70
 328 108 328 108 328 123 c 0,71,72
 328 169 328 169 312 176 c 2,73,74
 312 176 312 176 297 184 c 1,75,76
 297 184 297 184 245 184 c 128,-1,77
 193 184 193 184 184 188 c 0,78,79
 159 198 159 198 159 223 c 0,80,81
 159 231 159 231 162 240 c 0,82,83
 171 266 171 266 205 266 c 2,84,85
 205 266 205 266 410 266 c 0,34,35
164 635 m 1,86,87
 164 669 164 669 215 669 c 0,88,89
 246 669 246 669 246 655 c 2,90,91
 246 655 246 655 254 620.5 c 128,-1,92
 262 586 262 586 273 537 c 2,93,94
 273 537 273 537 278.5 512.5 c 128,-1,95
 284 488 284 488 307 389 c 0,96,97
 307 374 307 374 317.5 374 c 128,-1,98
 328 374 328 374 328 389 c 2,99,100
 328 389 328 389 336 420.5 c 128,-1,101
 344 452 344 452 355 498 c 2,102,103
 355 498 355 498 360.5 521 c 128,-1,104
 366 544 366 544 389 635 c 0,105,106
 389 648 389 648 419 648 c 2,107,108
 419 648 419 648 430 648 c 0,109,110
 471 643 471 643 471 614 c 1,111,112
 471 614 471 614 463 572 c 256,113,114
 455 530 455 530 448 491 c 128,-1,115
 441 452 441 452 431.5 402 c 128,-1,116
 422 352 422 352 410 287 c 1,117,118
 410 287 410 287 225 287 c 1,119,120
 225 338 225 338 225 389 c 1,121,122
 225 389 225 389 222.5 409.5 c 128,-1,123
 220 430 220 430 205 430 c 1,124,125
 205 430 205 430 199.5 456.5 c 128,-1,126
 194 483 194 483 186.5 521 c 128,-1,127
 179 559 179 559 175 578 c 128,-1,128
 171 597 171 597 164 635 c 1,86,87
EndSplineSet
EndChar

StartChar: three
Encoding: 51 51 10
Width: 492
GlyphClass: 1
Flags: W
LayerCount: 2
Fore
SplineSet
102 266 m 0,0,1
 102 236 102 236 61 236 c 256,2,3
 20 236 20 236 20 266 c 2,4,5
 20 266 20 266 20 369 c 0,6,7
 20 402 20 402 61 402 c 2,8,9
 61 402 61 402 72 402 c 0,10,11
 102 401 102 401 102 389 c 2,12,13
 102 389 102 389 102 266 c 0,0,1
410 266 m 0,14,15
 430 266 430 266 430 238 c 2,16,17
 430 238 430 238 430 102 c 0,18,19
 430 75 430 75 366 24 c 0,20,21
 348 9 348 9 348 0 c 2,22,23
 348 0 348 0 348 -61 c 1,24,25
 348 -61 348 -61 61 -61 c 1,26,27
 61 -61 61 -61 61 0 c 0,28,29
 61 15 61 15 41 41 c 0,30,31
 20 67 20 67 20 82 c 2,32,33
 20 82 20 82 20 246 c 1,34,35
 20 230 20 230 31 228 c 2,36,37
 31 228 31 228 41 225 c 2,38,39
 41 225 41 225 69 225 c 128,-1,40
 97 225 97 225 110 234.5 c 128,-1,41
 123 244 123 244 123 266 c 1,42,43
 123 266 123 266 164 266 c 1,44,45
 148 266 148 266 142.5 248 c 128,-1,46
 137 230 137 230 143 225 c 1,47,48
 143 210 143 210 162.5 187 c 128,-1,49
 182 164 182 164 204 164 c 2,50,51
 204 164 204 164 250.5 164 c 128,-1,52
 297 164 297 164 302 159 c 256,53,54
 307 154 307 154 307 123 c 0,55,56
 307 108 307 108 317.5 108 c 128,-1,57
 328 108 328 108 328 123 c 0,58,59
 328 169 328 169 312 176 c 2,60,61
 312 176 312 176 297 184 c 1,62,63
 297 184 297 184 245 184 c 128,-1,64
 193 184 193 184 184 188 c 0,65,66
 159 198 159 198 159 223 c 0,67,68
 159 231 159 231 162 240 c 0,69,70
 171 266 171 266 205 266 c 2,71,72
 205 266 205 266 410 266 c 0,14,15
61 635 m 1,73,74
 61 661 61 661 102 668 c 0,75,76
 108 669 108 669 112 669 c 0,77,78
 143 668 143 668 143 655 c 2,79,80
 143 655 143 655 151 620.5 c 128,-1,81
 159 586 159 586 170 537 c 2,82,83
 170 537 170 537 176 512.5 c 128,-1,84
 182 488 182 488 205 389 c 0,85,86
 205 374 205 374 215 374 c 256,87,88
 225 374 225 374 225 389 c 0,89,90
 225 522 225 522 225 655 c 0,91,92
 225 686 225 686 266 686 c 256,93,94
 307 686 307 686 307 655 c 0,95,96
 307 522 307 522 307 389 c 0,97,98
 307 374 307 374 317.5 374 c 128,-1,99
 328 374 328 374 328 389 c 2,100,101
 328 389 328 389 336 423.5 c 128,-1,102
 344 458 344 458 355 508 c 2,103,104
 355 508 355 508 360.5 532.5 c 128,-1,105
 366 557 366 557 389 655 c 0,106,107
 389 669 389 669 420 669 c 0,108,109
 471 669 471 669 471 635 c 1,110,111
 471 635 471 635 463 590 c 256,112,113
 455 545 455 545 448 503.5 c 128,-1,114
 441 462 441 462 436.5 437 c 128,-1,115
 432 412 432 412 426 379 c 2,116,117
 426 379 426 379 423 362.5 c 128,-1,118
 420 346 420 346 410 287 c 1,119,120
 410 287 410 287 123 287 c 1,121,122
 123 338 123 338 123 389 c 1,123,124
 123 389 123 389 115 420.5 c 128,-1,125
 107 452 107 452 85 543.5 c 128,-1,126
 63 635 63 635 61 635 c 1,73,74
EndSplineSet
AlternateSubs2: "'ss03' Style Set 3 in Latin lookup 14 subtable" three_quad
AlternateSubs2: "'onum' Oldstyle Figures in Latin lookup 0 subtable" three_old
EndChar

StartChar: four
Encoding: 52 52 11
Width: 512
GlyphClass: 1
Flags: W
LayerCount: 2
Fore
SplineSet
430 266 m 0,0,1
 451 266 451 266 451 235 c 2,2,3
 451 235 451 235 451 102 c 0,4,5
 451 82 451 82 427.5 60 c 128,-1,6
 404 38 404 38 386.5 23.5 c 128,-1,7
 369 9 369 9 369 -3 c 2,8,9
 369 -3 369 -3 369 -61 c 1,10,11
 369 -61 369 -61 82 -61 c 1,12,13
 82 -61 82 -61 82 0 c 0,14,15
 82 15 82 15 61 51 c 0,16,17
 41 87 41 87 41 102 c 0,18,19
 41 348 41 348 30.5 468.5 c 128,-1,20
 20 589 20 589 20 635 c 0,21,22
 20 666 20 666 61 666 c 256,23,24
 102 666 102 666 102 635 c 2,25,26
 102 635 102 635 105 601 c 256,27,28
 108 567 108 567 111.5 519 c 128,-1,29
 115 471 115 471 119 426 c 2,30,31
 119 426 119 426 123 389 c 0,32,33
 123 374 123 374 133 374 c 256,34,35
 143 374 143 374 143 392 c 2,36,37
 143 392 143 392 143 655 c 0,38,39
 143 686 143 686 184 686 c 256,40,41
 225 686 225 686 225 655 c 2,42,43
 225 655 225 655 225 389 c 0,44,45
 225 374 225 374 236 374 c 0,46,47
 240 374 240 374 244.5 385.5 c 128,-1,48
 249 397 249 397 257.5 507.5 c 128,-1,49
 266 618 266 618 266 655 c 0,50,51
 266 686 266 686 307 686 c 256,52,53
 348 686 348 686 348 655 c 0,54,55
 348 586 348 586 338 492.5 c 128,-1,56
 328 399 328 399 328 386.5 c 128,-1,57
 328 374 328 374 338 374 c 256,58,59
 348 374 348 374 348 385 c 2,60,61
 348 385 348 385 348 414 c 1,62,63
 348 414 348 414 389 635 c 1,64,65
 389 666 389 666 430 666 c 256,66,67
 471 666 471 666 471 635 c 2,68,69
 471 635 471 635 471 626.5 c 128,-1,70
 471 618 471 618 450.5 469.5 c 128,-1,71
 430 321 430 321 430 287 c 1,72,73
 430 287 430 287 123 287 c 0,74,75
 108 287 108 287 108 276.5 c 128,-1,76
 108 266 108 266 123 266 c 2,77,78
 123 266 123 266 184 266 c 1,79,80
 169 266 169 266 166.5 253.5 c 128,-1,81
 164 241 164 241 164 225 c 0,82,83
 164 164 164 164 225 164 c 2,84,85
 225 164 225 164 271 164 c 128,-1,86
 317 164 317 164 322.5 159 c 128,-1,87
 328 154 328 154 328 123 c 0,88,89
 328 108 328 108 338 108 c 256,90,91
 348 108 348 108 348 123 c 0,92,93
 348 170 348 170 333 177 c 2,94,95
 333 177 333 177 317 184 c 1,96,97
 317 184 317 184 265.5 184 c 128,-1,98
 214 184 214 184 206.5 187 c 128,-1,99
 199 190 199 190 189 199 c 128,-1,100
 179 208 179 208 179 220 c 0,101,102
 179 266 179 266 225 266 c 2,103,104
 225 266 225 266 430 266 c 0,0,1
EndSplineSet
EndChar

StartChar: five
Encoding: 53 53 12
Width: 676
GlyphClass: 1
Flags: W
LayerCount: 2
Fore
SplineSet
369 -61 m 1,0,1
 369 -61 369 -61 82 -61 c 1,2,3
 82 -61 82 -61 82 0 c 0,4,5
 82 15 82 15 61 51 c 0,6,7
 41 87 41 87 41 102 c 0,8,9
 41 348 41 348 30.5 468.5 c 128,-1,10
 20 589 20 589 20 635 c 0,11,12
 20 666 20 666 61 666 c 256,13,14
 102 666 102 666 102 635 c 2,15,16
 102 635 102 635 105 601 c 256,17,18
 108 567 108 567 111.5 519 c 128,-1,19
 115 471 115 471 119 426 c 2,20,21
 119 426 119 426 123 389 c 0,22,23
 123 374 123 374 133 374 c 256,24,25
 143 374 143 374 143 389 c 2,26,27
 143 389 143 389 143 655 c 0,28,29
 143 686 143 686 184 686 c 256,30,31
 225 686 225 686 225 655 c 2,32,33
 225 655 225 655 225 389 c 0,34,35
 225 374 225 374 236 374 c 0,36,37
 240 374 240 374 244.5 385.5 c 128,-1,38
 249 397 249 397 257.5 507.5 c 128,-1,39
 266 618 266 618 266 655 c 0,40,41
 266 686 266 686 307 686 c 256,42,43
 348 686 348 686 348 655 c 0,44,45
 348 586 348 586 338 492.5 c 128,-1,46
 328 399 328 399 328 386.5 c 128,-1,47
 328 374 328 374 338 374 c 256,48,49
 348 374 348 374 348 385 c 0,50,51
 348 414 348 414 365 503 c 128,-1,52
 382 592 382 592 389 635 c 1,53,54
 389 666 389 666 430 666 c 256,55,56
 471 666 471 666 471 635 c 0,57,58
 471 616 471 616 450.5 470.5 c 128,-1,59
 430 325 430 325 430 287 c 1,60,61
 430 287 430 287 123 287 c 0,62,63
 108 287 108 287 108 276.5 c 128,-1,64
 108 266 108 266 123 266 c 2,65,66
 123 266 123 266 430 266 c 1,67,68
 430 266 430 266 430 225 c 1,69,70
 435 220 435 220 435 212.5 c 128,-1,71
 435 205 435 205 449 205 c 0,72,73
 477 205 477 205 562 253 c 0,74,75
 585 266 585 266 594 266 c 0,76,77
 640 266 640 266 647.5 244 c 128,-1,78
 655 222 655 222 655 205 c 1,79,80
 655 205 655 205 618 181 c 0,81,82
 522 119 522 119 445.5 63.5 c 128,-1,83
 369 8 369 8 369 0 c 2,84,85
 369 0 369 0 369 -61 c 1,0,1
EndSplineSet
EndChar

StartChar: six
Encoding: 54 54 13
Width: 717
GlyphClass: 1
Flags: W
LayerCount: 2
Fore
SplineSet
123 0 m 0,0,1
 123 13 123 13 102 50 c 2,2,3
 102 50 102 50 82 87 c 1,4,5
 82 87 82 87 82 348 c 0,6,7
 82 398 82 398 34 553 c 1,8,9
 34 553 34 553 20 594 c 1,10,11
 21 624 21 624 62 627 c 2,12,13
 62 627 62 627 74 627 c 0,14,15
 102 627 102 627 102 614 c 2,16,17
 102 614 102 614 110 585 c 256,18,19
 118 556 118 556 130 514 c 2,20,21
 130 514 130 514 135.5 493 c 128,-1,22
 141 472 141 472 164 389 c 1,23,24
 164 389 164 389 164 246 c 1,25,26
 164 246 164 246 169 225.5 c 128,-1,27
 174 205 174 205 205 205 c 2,28,29
 205 205 205 205 492 205 c 0,30,31
 518 205 518 205 587 245 c 1,32,33
 587 245 587 245 608 255.5 c 128,-1,34
 629 266 629 266 635 266 c 0,35,36
 681 266 681 266 688.5 243 c 128,-1,37
 696 220 696 220 696 205 c 1,38,39
 696 205 696 205 659 181 c 0,40,41
 563 119 563 119 486.5 63.5 c 128,-1,42
 410 8 410 8 410 0 c 2,43,44
 410 0 410 0 410 -61 c 1,45,46
 410 -61 410 -61 123 -61 c 1,47,48
 123 -61 123 -61 123 0 c 0,0,1
369 389 m 0,49,50
 369 374 369 374 379 374 c 256,51,52
 389 374 389 374 389 389 c 0,53,54
 389 420 389 420 430 420 c 256,55,56
 471 420 471 420 471 389 c 2,57,58
 471 389 471 389 471 246 c 0,59,60
 471 215 471 215 430 215 c 256,61,62
 389 215 389 215 389 246 c 2,63,64
 389 246 389 246 389 300 c 0,65,66
 389 323 389 323 379 323 c 256,67,68
 369 323 369 323 369 300 c 2,69,70
 369 300 369 300 369 246 c 0,71,72
 369 215 369 215 328 215 c 256,73,74
 287 215 287 215 287 246 c 2,75,76
 287 246 287 246 287 309 c 0,77,78
 286 324 286 324 276 323 c 128,-1,79
 266 322 266 322 266 299 c 2,80,81
 266 299 266 299 266 246 c 0,82,83
 266 215 266 215 225 215 c 256,84,85
 184 215 184 215 184 246 c 2,86,87
 184 246 184 246 184 389 c 0,88,89
 184 420 184 420 225 420 c 256,90,91
 266 420 266 420 266 389 c 0,92,93
 266 374 266 374 276.5 374 c 128,-1,94
 287 374 287 374 287 389 c 0,95,96
 287 420 287 420 328 420 c 256,97,98
 369 420 369 420 369 389 c 0,49,50
EndSplineSet
EndChar

StartChar: seven
Encoding: 55 55 14
Width: 574
GlyphClass: 1
Flags: W
LayerCount: 2
Fore
SplineSet
205 266 m 2,0,1
 205 266 205 266 205 240.5 c 128,-1,2
 205 215 205 215 215 200 c 2,3,4
 215 200 215 200 225 184 c 2,5,6
 225 184 225 184 233 173.5 c 128,-1,7
 241 163 241 163 252 148 c 0,8,9
 266 130 266 130 287 102 c 1,10,11
 302 102 302 102 305 113 c 2,12,13
 305 113 305 113 307 123 c 1,14,15
 307 123 307 123 299 133.5 c 128,-1,16
 291 144 291 144 280 159 c 128,-1,17
 269 174 269 174 266 178 c 128,-1,18
 263 182 263 182 246 205 c 1,19,20
 246 205 246 205 348 205 c 1,21,22
 348 205 348 205 369 210 c 0,23,24
 389 215 389 215 389 241 c 2,25,26
 389 241 389 241 389 287 c 1,27,28
 389 287 389 287 397 300 c 0,29,30
 422 340 422 340 425.5 346.5 c 128,-1,31
 429 353 429 353 451 389 c 1,32,33
 451 389 451 389 438 397 c 0,34,35
 419 408 419 408 348 451 c 1,36,37
 333 451 333 451 310 420 c 2,38,39
 310 420 310 420 287 389 c 1,40,41
 287 389 287 389 82 389 c 1,42,43
 82 389 82 389 115 424 c 0,44,45
 183 497 183 497 252 536 c 0,46,47
 282 553 282 553 307 553 c 0,48,49
 321 553 321 553 394 509 c 0,50,51
 430 489 430 489 461 470 c 2,52,53
 461 470 461 470 492 451 c 1,54,55
 507 451 507 451 507 430.5 c 128,-1,56
 507 410 507 410 492 410 c 1,57,58
 538 410 538 410 545.5 387 c 128,-1,59
 553 364 553 364 553 348 c 1,60,61
 553 348 553 348 540 330 c 0,62,63
 492 261 492 261 492 225 c 0,64,65
 492 190 492 190 408 35 c 2,66,67
 408 35 408 35 389 0 c 1,68,69
 389 0 389 0 389 -61 c 1,70,71
 389 -61 389 -61 102 -61 c 1,72,73
 102 -61 102 -61 102 0 c 0,74,75
 102 2 102 2 92 30 c 0,76,77
 20 230 20 230 20 262 c 0,78,79
 20 312 20 312 30.5 337 c 128,-1,80
 41 362 41 362 51 365 c 2,81,82
 51 365 51 365 61 369 c 1,83,84
 61 369 61 369 328 369 c 1,85,86
 328 369 328 369 348 366 c 256,87,88
 368 363 368 363 369 348 c 2,89,90
 369 348 369 348 369 246 c 0,91,92
 369 230 369 230 358 228 c 0,93,94
 358 225 358 225 246 225 c 0,95,96
 230 225 230 225 230 256 c 256,97,98
 230 287 230 287 246 287 c 2,99,100
 246 287 246 287 287 287 c 0,101,102
 302 287 302 287 302 297 c 256,103,104
 302 307 302 307 286 307 c 1,105,106
 286 308 286 308 272 308 c 2,107,108
 272 308 272 308 254 308 c 128,-1,109
 236 308 236 308 225 307 c 0,110,111
 208 305 208 305 206 286 c 2,112,113
 206 286 206 286 205 266 c 2,0,1
EndSplineSet
AlternateSubs2: "'ss02' Style Set 2 in Latin lookup 13 subtable" seven_ter
AlternateSubs2: "'ss01' Style Set 1 in Latin lookup 12 subtable" seven_bis
EndChar

StartChar: eight
Encoding: 56 56 15
Width: 656
GlyphClass: 1
Flags: W
LayerCount: 2
Fore
SplineSet
410 225 m 0,0,1
 410 205 410 205 429 205 c 0,2,3
 460 205 460 205 554 260 c 0,4,5
 564 266 564 266 573 266 c 0,6,7
 620 266 620 266 627.5 243 c 128,-1,8
 635 220 635 220 635 205 c 1,9,10
 635 205 635 205 598 181 c 0,11,12
 492 112 492 112 420 60 c 128,-1,13
 348 8 348 8 348 0 c 2,14,15
 348 0 348 0 348 -61 c 1,16,17
 348 -61 348 -61 61 -61 c 1,18,19
 61 -61 61 -61 61 0 c 0,20,21
 61 15 61 15 41 51 c 0,22,23
 20 87 20 87 20 102 c 0,24,25
 20 174 20 174 20 246 c 1,26,27
 20 230 20 230 31 228 c 2,28,29
 31 228 31 228 41 225 c 2,30,31
 41 225 41 225 102 225 c 1,32,33
 102 225 102 225 107.5 215 c 128,-1,34
 113 205 113 205 144 205 c 2,35,36
 144 205 144 205 287 205 c 1,37,38
 287 205 287 205 307.5 210 c 128,-1,39
 328 215 328 215 328 246 c 2,40,41
 328 246 328 246 328 635 c 0,42,43
 328 666 328 666 369 666 c 256,44,45
 410 666 410 666 410 635 c 2,46,47
 410 635 410 635 410 225 c 0,0,1
307 389 m 2,48,49
 307 389 307 389 307 246 c 0,50,51
 307 215 307 215 266 215 c 256,52,53
 225 215 225 215 225 246 c 2,54,55
 225 246 225 246 225 309 c 0,56,57
 225 324 225 324 215 323 c 128,-1,58
 205 322 205 322 205 299 c 2,59,60
 205 299 205 299 205 246 c 0,61,62
 205 215 205 215 164 215 c 256,63,64
 123 215 123 215 123 246 c 2,65,66
 123 246 123 246 123 300 c 0,67,68
 123 323 123 323 112.5 323 c 128,-1,69
 102 323 102 323 102 305 c 2,70,71
 102 305 102 305 102 266 c 0,72,73
 102 236 102 236 61 236 c 256,74,75
 20 236 20 236 20 266 c 2,76,77
 20 266 20 266 20 369 c 0,78,79
 20 402 20 402 61 402 c 2,80,81
 61 402 61 402 72 402 c 0,82,83
 102 401 102 401 102 389 c 0,84,85
 102 374 102 374 112.5 374 c 128,-1,86
 123 374 123 374 123 389 c 0,87,88
 123 420 123 420 164 420 c 256,89,90
 205 420 205 420 205 389 c 0,91,92
 205 374 205 374 215 374 c 256,93,94
 225 374 225 374 225 389 c 0,95,96
 225 420 225 420 266 420 c 256,97,98
 307 420 307 420 307 389 c 2,48,49
EndSplineSet
AlternateSubs2: "'ss02' Style Set 2 in Latin lookup 13 subtable" eight_ter
EndChar

StartChar: nine
Encoding: 57 57 16
Width: 512
GlyphClass: 1
Flags: W
LayerCount: 2
Fore
SplineSet
205 266 m 2,0,1
 205 266 205 266 205 240.5 c 128,-1,2
 205 215 205 215 215 200 c 2,3,4
 215 200 215 200 225 184 c 2,5,6
 225 184 225 184 233 173.5 c 128,-1,7
 241 163 241 163 252 148 c 2,8,9
 252 148 252 148 287 102 c 1,10,11
 302 102 302 102 305 113 c 2,12,13
 305 113 305 113 307 123 c 1,14,15
 307 123 307 123 299 133.5 c 128,-1,16
 291 144 291 144 280 159 c 2,17,18
 280 159 280 159 246 205 c 1,19,20
 246 205 246 205 348 205 c 1,21,22
 348 205 348 205 369 210 c 0,23,24
 389 215 389 215 389 246 c 0,25,26
 389 256 389 256 389 266 c 1,27,28
 389 266 389 266 471 266 c 1,29,30
 471 217 471 217 450 152 c 2,31,32
 450 152 450 152 430 88 c 1,33,34
 430 88 430 88 389 0 c 1,35,36
 389 0 389 0 389 -61 c 1,37,38
 389 -61 389 -61 102 -61 c 1,39,40
 102 -61 102 -61 102 0 c 0,41,42
 102 2 102 2 92 30 c 0,43,44
 20 230 20 230 20 262 c 0,45,46
 20 312 20 312 30.5 337 c 128,-1,47
 41 362 41 362 51 365 c 2,48,49
 51 365 51 365 61 369 c 1,50,51
 61 369 61 369 328 369 c 1,52,53
 328 369 328 369 348 366 c 256,54,55
 368 363 368 363 369 348 c 2,56,57
 369 348 369 348 369 246 c 0,58,59
 369 230 369 230 358 228 c 0,60,61
 358 225 358 225 246 225 c 0,62,63
 230 225 230 225 230 256 c 256,64,65
 230 287 230 287 246 287 c 2,66,67
 246 287 246 287 287 287 c 0,68,69
 302 287 302 287 287 297 c 0,70,71
 271 307 271 307 287 307 c 1,72,73
 287 308 287 308 272 308 c 2,74,75
 272 308 272 308 254 308 c 128,-1,76
 236 308 236 308 225 307 c 0,77,78
 208 305 208 305 206 286 c 2,79,80
 206 286 206 286 205 266 c 2,0,1
399 366 m 2,81,82
 399 366 399 366 410 369 c 2,83,84
 410 369 410 369 471 369 c 0,85,86
 486 369 486 369 489 358 c 2,87,88
 489 358 489 358 492 348 c 2,89,90
 492 348 492 348 492 309 c 0,91,92
 492 289 492 289 474.5 282.5 c 128,-1,93
 457 276 457 276 439 276 c 128,-1,94
 421 276 421 276 405 284.5 c 128,-1,95
 389 293 389 293 389 310 c 2,96,97
 389 310 389 310 389 337 c 128,-1,98
 389 364 389 364 399 366 c 2,81,82
102 512 m 0,99,100
 102 543 102 543 120 568.5 c 128,-1,101
 138 594 138 594 184 594 c 2,102,103
 184 594 184 594 307 594 c 0,104,105
 353 594 353 594 381.5 566 c 128,-1,106
 410 538 410 538 410 492 c 2,107,108
 410 492 410 492 410 481.5 c 128,-1,109
 410 471 410 471 411 471 c 1,110,111
 410 440 410 440 369 440 c 256,112,113
 328 440 328 440 328 471 c 128,-1,114
 328 502 328 502 308 507 c 2,115,116
 308 507 308 507 287 512 c 1,117,118
 287 512 287 512 246 512 c 1,119,120
 246 512 246 512 225.5 507 c 128,-1,121
 205 502 205 502 205 466 c 2,122,123
 205 466 205 466 205 389 c 1,124,125
 205 389 205 389 102 389 c 1,126,127
 102 389 102 389 102 512 c 0,99,100
EndSplineSet
EndChar

StartChar: A
Encoding: 65 65 17
Width: 512
GlyphClass: 1
Flags: W
LayerCount: 2
Fore
SplineSet
307 410 m 2,0,1
 307 410 307 410 307 435.5 c 128,-1,2
 307 461 307 461 297 476 c 2,3,4
 297 476 297 476 287 492 c 2,5,6
 287 492 287 492 260 526 c 256,7,8
 233 560 233 560 225 573 c 1,9,10
 210 573 210 573 207 563 c 2,11,12
 207 563 207 563 205 553 c 1,13,14
 205 553 205 553 228 522.5 c 128,-1,15
 251 492 251 492 266 471 c 1,16,17
 266 471 266 471 164 471 c 1,18,19
 164 471 164 471 143.5 466 c 128,-1,20
 123 461 123 461 123 430 c 2,21,22
 123 430 123 430 123 328 c 0,23,24
 123 297 123 297 144 292 c 2,25,26
 144 292 144 292 164 287 c 1,27,28
 164 287 164 287 123 205 c 1,29,30
 92 205 92 205 56 232.5 c 128,-1,31
 20 260 20 260 20 328 c 2,32,33
 20 328 20 328 20 382 c 0,34,35
 20 492 20 492 51 632 c 2,36,37
 51 632 51 632 61 676 c 1,38,39
 61 676 61 676 61 737 c 1,40,41
 61 737 61 737 348 737 c 1,42,43
 348 737 348 737 348 676 c 1,44,45
 350 676 350 676 366 634 c 128,-1,46
 382 592 382 592 406 509 c 128,-1,47
 430 426 430 426 430 393.5 c 128,-1,48
 430 361 430 361 420 337.5 c 128,-1,49
 410 314 410 314 399 311 c 2,50,51
 399 311 399 311 389 307 c 1,52,53
 389 307 389 307 184 307 c 1,54,55
 184 307 184 307 164 310 c 256,56,57
 144 313 144 313 143 328 c 2,58,59
 143 328 143 328 143 430 c 0,60,61
 143 445 143 445 154 448 c 0,62,63
 154 451 154 451 266 451 c 0,64,65
 282 451 282 451 282 420 c 256,66,67
 282 389 282 389 266 389 c 2,68,69
 266 389 266 389 225 389 c 0,70,71
 210 389 210 389 210 379 c 256,72,73
 210 369 210 369 226 369 c 2,74,75
 226 369 226 369 287 369 c 0,76,77
 304 369 304 369 306 390 c 2,78,79
 306 390 306 390 307 410 c 2,0,1
410 287 m 1,80,81
 410 287 410 287 420.5 252.5 c 128,-1,82
 431 218 431 218 438 193 c 2,83,84
 438 193 438 193 449.5 156 c 128,-1,85
 461 119 461 119 492 20 c 1,86,87
 492 -10 492 -10 451 -13 c 2,88,89
 451 -13 451 -13 440 -13 c 0,90,91
 410 -13 410 -13 410 0 c 2,92,93
 410 0 410 0 399 37 c 256,94,95
 388 74 388 74 373 127.5 c 128,-1,96
 358 181 358 181 343 234 c 2,97,98
 343 234 343 234 328 287 c 1,99,100
 328 287 328 287 410 287 c 1,80,81
266 287 m 1,101,102
 248 269 248 269 163 50 c 2,103,104
 163 50 163 50 143 0 c 1,105,106
 143 -13 143 -13 113 -13 c 0,107,108
 61 -13 61 -13 61 20 c 1,109,110
 61 20 61 20 77 54.5 c 128,-1,111
 93 89 93 89 104 114 c 2,112,113
 104 114 104 114 121.5 151 c 128,-1,114
 139 188 139 188 184 287 c 1,115,116
 184 287 184 287 266 287 c 1,101,102
287 287 m 1,117,118
 317 287 317 287 317 246 c 256,119,120
 317 205 317 205 287 205 c 2,121,122
 287 205 287 205 246 205 c 1,123,124
 259 232 259 232 287 287 c 1,117,118
EndSplineSet
EndChar

StartChar: B
Encoding: 66 66 18
Width: 451
GlyphClass: 1
Flags: W
LayerCount: 2
Fore
SplineSet
410 266 m 0,0,1
 430 266 430 266 430 238 c 2,2,3
 430 238 430 238 430 102 c 0,4,5
 430 75 430 75 366 24 c 0,6,7
 348 9 348 9 348 -3 c 2,8,9
 348 -3 348 -3 348 -61 c 1,10,11
 348 -61 348 -61 61 -61 c 1,12,13
 61 -61 61 -61 61 0 c 0,14,15
 61 17 61 17 40 52 c 2,16,17
 40 52 40 52 20 87 c 1,18,19
 20 87 20 87 20 655 c 0,20,21
 20 686 20 686 61 686 c 256,22,23
 102 686 102 686 102 655 c 2,24,25
 102 655 102 655 102 389 c 0,26,27
 102 374 102 374 112.5 374 c 128,-1,28
 123 374 123 374 123 392 c 2,29,30
 123 392 123 392 123 655 c 0,31,32
 123 686 123 686 164 686 c 256,33,34
 205 686 205 686 205 655 c 0,35,36
 205 522 205 522 205 389 c 0,37,38
 205 374 205 374 215 374 c 256,39,40
 225 374 225 374 225 385 c 2,41,42
 225 385 225 385 225 655 c 0,43,44
 225 686 225 686 266 686 c 256,45,46
 307 686 307 686 307 655 c 2,47,48
 307 655 307 655 307 389 c 0,49,50
 307 374 307 374 317.5 374 c 128,-1,51
 328 374 328 374 328 385 c 0,52,53
 328 520 328 520 328 655 c 0,54,55
 328 686 328 686 369 686 c 256,56,57
 410 686 410 686 410 655 c 2,58,59
 410 655 410 655 410 287 c 1,60,61
 410 287 410 287 102 287 c 0,62,63
 87 287 87 287 87 276.5 c 128,-1,64
 87 266 87 266 102 266 c 2,65,66
 102 266 102 266 164 266 c 1,67,68
 148 266 148 266 146 253 c 0,69,70
 143 241 143 241 143 225 c 0,71,72
 143 164 143 164 205 164 c 2,73,74
 205 164 205 164 251 164 c 128,-1,75
 297 164 297 164 302 159 c 256,76,77
 307 154 307 154 307 123 c 0,78,79
 307 108 307 108 317.5 108 c 128,-1,80
 328 108 328 108 328 123 c 0,81,82
 328 169 328 169 312 176 c 2,83,84
 312 176 312 176 297 184 c 1,85,86
 297 184 297 184 245 184 c 128,-1,87
 193 184 193 184 184 188 c 0,88,89
 159 198 159 198 159 223 c 0,90,91
 159 231 159 231 162 240 c 0,92,93
 171 266 171 266 205 266 c 2,94,95
 205 266 205 266 410 266 c 0,0,1
EndSplineSet
EndChar

StartChar: C
Encoding: 67 67 19
Width: 574
GlyphClass: 1
Flags: W
LayerCount: 2
Fore
SplineSet
499 394 m 0,0,1
 553 394 553 394 553 346 c 2,2,3
 553 346 553 346 553 279 c 128,-1,4
 553 212 553 212 518 144.5 c 128,-1,5
 483 77 483 77 476.5 67.5 c 128,-1,6
 470 58 470 58 430 0 c 1,7,8
 430 0 430 0 430 -61 c 1,9,10
 430 -61 430 -61 143 -61 c 1,11,12
 143 -61 143 -61 143 0 c 1,13,14
 143 0 143 0 103.5 56.5 c 128,-1,15
 64 113 64 113 33 199 c 0,16,17
 20 235 20 235 20 242 c 2,18,19
 20 242 20 242 20 594 c 0,20,21
 20 625 20 625 38 650.5 c 128,-1,22
 56 676 56 676 102 676 c 2,23,24
 102 676 102 676 492 676 c 0,25,26
 522 676 522 676 522 635 c 256,27,28
 522 594 522 594 492 594 c 2,29,30
 492 594 492 594 205 594 c 1,31,32
 205 594 205 594 184.5 589 c 128,-1,33
 164 584 164 584 164 553 c 2,34,35
 164 553 164 553 164 246 c 0,36,37
 164 215 164 215 174 200 c 2,38,39
 174 200 174 200 184 184 c 2,40,41
 184 184 184 184 192 173.5 c 128,-1,42
 200 163 200 163 212 148 c 0,43,44
 225 130 225 130 246 102 c 1,45,46
 261 102 261 102 264 113 c 2,47,48
 264 113 264 113 266 123 c 1,49,50
 266 123 266 123 258 133.5 c 128,-1,51
 250 144 250 144 239 159 c 128,-1,52
 228 174 228 174 225 178 c 128,-1,53
 222 182 222 182 205 205 c 1,54,55
 205 205 205 205 410 205 c 1,56,57
 410 205 410 205 430 213.5 c 128,-1,58
 450 222 450 222 451 266 c 2,59,60
 451 266 451 266 451 311.5 c 128,-1,61
 451 357 451 357 453.5 365 c 128,-1,62
 456 373 456 373 461 378 c 0,63,64
 477 394 477 394 499 394 c 0,0,1
EndSplineSet
EndChar

StartChar: D
Encoding: 68 68 20
Width: 512
GlyphClass: 1
Flags: W
LayerCount: 2
Fore
SplineSet
205 471 m 2,0,1
 205 471 205 471 205 445.5 c 128,-1,2
 205 420 205 420 215 404 c 2,3,4
 215 404 215 404 225 389 c 2,5,6
 225 389 225 389 252 355 c 256,7,8
 279 321 279 321 287 307 c 1,9,10
 302 307 302 307 305 317 c 2,11,12
 305 317 305 317 307 328 c 1,13,14
 307 328 307 328 284 358.5 c 128,-1,15
 261 389 261 389 246 410 c 1,16,17
 246 410 246 410 348 410 c 1,18,19
 348 410 348 410 369 415 c 0,20,21
 389 420 389 420 389 451 c 0,22,23
 389 461 389 461 389 471 c 1,24,25
 389 471 389 471 471 471 c 1,26,27
 471 422 471 422 450.5 357.5 c 128,-1,28
 430 293 430 293 425 282 c 128,-1,29
 420 271 420 271 389 205 c 1,30,31
 389 205 389 205 389 -61 c 1,32,33
 389 -61 389 -61 102 -61 c 1,34,35
 102 -61 102 -61 102 205 c 1,36,37
 102 205 102 205 86 256 c 128,-1,38
 70 307 70 307 64 327.5 c 128,-1,39
 58 348 58 348 20 471 c 1,40,41
 20 520 20 520 35.5 548.5 c 128,-1,42
 51 577 51 577 67 585 c 2,43,44
 67 585 67 585 82 594 c 2,45,46
 82 594 82 594 122 611.5 c 128,-1,47
 162 629 162 629 226 652.5 c 128,-1,48
 290 676 290 676 307 676 c 0,49,50
 347 676 347 676 368 650.5 c 128,-1,51
 389 625 389 625 389 594 c 1,52,53
 389 594 389 594 246 594 c 0,54,55
 230 594 230 594 230 583.5 c 128,-1,56
 230 573 230 573 248 573 c 2,57,58
 248 573 248 573 328 573 c 1,59,60
 328 573 328 573 348 570 c 256,61,62
 368 567 368 567 369 553 c 2,63,64
 369 553 369 553 369 451 c 0,65,66
 369 435 369 435 358 433 c 0,67,68
 358 430 358 430 246 430 c 0,69,70
 230 430 230 430 230 461 c 256,71,72
 230 492 230 492 246 492 c 2,73,74
 246 492 246 492 287 492 c 0,75,76
 302 492 302 492 287 502 c 0,77,78
 271 512 271 512 287 512 c 1,79,80
 287 512 287 512 225 512 c 0,81,82
 208 512 208 512 206 492 c 2,83,84
 206 492 206 492 205 471 c 2,0,1
399 571 m 2,85,86
 399 571 399 571 410 573 c 2,87,88
 410 573 410 573 471 573 c 0,89,90
 486 573 486 573 489 563 c 2,91,92
 489 563 489 563 492 553 c 2,93,94
 492 553 492 553 492 514 c 0,95,96
 492 496 492 496 474 488 c 0,97,98
 439 473 439 473 402 490 c 0,99,100
 389 496 389 496 389 515 c 2,101,102
 389 515 389 515 389 541.5 c 128,-1,103
 389 568 389 568 399 571 c 2,85,86
EndSplineSet
EndChar

StartChar: E
Encoding: 69 69 21
Width: 450
GlyphClass: 1
Flags: W
LayerCount: 2
Fore
SplineSet
102 -62 m 1,0,1
 102 -62 102 -62 102 0 c 0,2,3
 102 10 102 10 85 23 c 0,4,5
 20 74 20 74 20 103 c 2,6,7
 20 103 20 103 20 171.5 c 128,-1,8
 20 240 20 240 23 253 c 256,9,10
 26 266 26 266 41 266 c 1,11,12
 41 266 41 266 41 389 c 0,13,14
 41 419 41 419 82 419 c 256,15,16
 123 419 123 419 123 389 c 0,17,18
 123 373 123 373 133 373 c 256,19,20
 143 373 143 373 143 386 c 2,21,22
 143 386 143 386 143 655 c 0,23,24
 143 686 143 686 184 686 c 256,25,26
 225 686 225 686 225 655 c 2,27,28
 225 655 225 655 225 389 c 0,29,30
 225 373 225 373 235.5 373 c 128,-1,31
 246 373 246 373 246 389 c 2,32,33
 246 389 246 389 246 655 c 0,34,35
 246 686 246 686 287 686 c 256,36,37
 328 686 328 686 328 655 c 2,38,39
 328 655 328 655 328 389 c 0,40,41
 328 373 328 373 338 373 c 256,42,43
 348 373 348 373 348 389 c 2,44,45
 348 389 348 389 348 655 c 0,46,47
 348 686 348 686 389 686 c 256,48,49
 430 686 430 686 430 655 c 2,50,51
 430 655 430 655 430 102 c 0,52,53
 430 87 430 87 409.5 51 c 128,-1,54
 389 15 389 15 389 0 c 2,55,56
 389 0 389 0 389 -62 c 1,57,58
 389 -62 389 -62 102 -62 c 1,0,1
EndSplineSet
EndChar

StartChar: F
Encoding: 70 70 22
Width: 451
GlyphClass: 1
Flags: W
LayerCount: 2
Fore
SplineSet
102 -62 m 1,0,1
 102 -62 102 -62 102 0 c 0,2,3
 102 10 102 10 85 23 c 0,4,5
 20 74 20 74 20 103 c 2,6,7
 20 103 20 103 20 171.5 c 128,-1,8
 20 240 20 240 23 253 c 256,9,10
 26 266 26 266 41 266 c 1,11,12
 41 450 41 450 41 634 c 0,13,14
 41 665 41 665 82 665 c 256,15,16
 123 665 123 665 123 634 c 2,17,18
 123 634 123 634 123 389 c 0,19,20
 123 373 123 373 133 373 c 256,21,22
 143 373 143 373 143 386 c 2,23,24
 143 386 143 386 143 655 c 0,25,26
 143 686 143 686 184 686 c 256,27,28
 225 686 225 686 225 655 c 2,29,30
 225 655 225 655 225 389 c 0,31,32
 225 373 225 373 235.5 373 c 128,-1,33
 246 373 246 373 246 389 c 0,34,35
 246 419 246 419 287 419 c 256,36,37
 328 419 328 419 328 389 c 0,38,39
 328 373 328 373 338 373 c 256,40,41
 348 373 348 373 348 387.5 c 128,-1,42
 348 402 348 402 378 402 c 2,43,44
 378 402 378 402 389 402 c 0,45,46
 430 397 430 397 430 368 c 2,47,48
 430 368 430 368 430 102 c 0,49,50
 430 87 430 87 409.5 51 c 128,-1,51
 389 15 389 15 389 0 c 2,52,53
 389 0 389 0 389 -62 c 1,54,55
 389 -62 389 -62 102 -62 c 1,0,1
EndSplineSet
EndChar

StartChar: G
Encoding: 71 71 23
Width: 451
GlyphClass: 1
Flags: W
LayerCount: 2
Fore
SplineSet
102 -61 m 1,0,1
 102 -61 102 -61 102 0 c 0,2,3
 102 9 102 9 72 34 c 128,-1,4
 42 59 42 59 31 74.5 c 128,-1,5
 20 90 20 90 20 112 c 2,6,7
 20 112 20 112 20 176.5 c 128,-1,8
 20 241 20 241 23 253.5 c 128,-1,9
 26 266 26 266 41 266 c 1,10,11
 41 266 41 266 41 655 c 0,12,13
 41 686 41 686 82 686 c 256,14,15
 123 686 123 686 123 655 c 2,16,17
 123 655 123 655 123 389 c 0,18,19
 123 374 123 374 133 374 c 256,20,21
 143 374 143 374 143 389 c 0,22,23
 143 420 143 420 184 420 c 256,24,25
 225 420 225 420 225 389 c 0,26,27
 225 374 225 374 235.5 374 c 128,-1,28
 246 374 246 374 246 389 c 0,29,30
 246 420 246 420 287 420 c 256,31,32
 328 420 328 420 328 389 c 0,33,34
 328 374 328 374 338 374 c 256,35,36
 348 374 348 374 348 388 c 128,-1,37
 348 402 348 402 378 402 c 2,38,39
 378 402 378 402 389 402 c 0,40,41
 430 397 430 397 430 369 c 2,42,43
 430 369 430 369 430 102 c 0,44,45
 430 87 430 87 409.5 51 c 128,-1,46
 389 15 389 15 389 0 c 2,47,48
 389 0 389 0 389 -61 c 1,49,50
 389 -61 389 -61 102 -61 c 1,0,1
EndSplineSet
EndChar

StartChar: H
Encoding: 72 72 24
Width: 451
GlyphClass: 1
Flags: W
LayerCount: 2
Fore
SplineSet
205 287 m 1,0,1
 189 287 189 287 166 271.5 c 128,-1,2
 143 256 143 256 143 225 c 1,3,4
 143 225 143 225 133 228.5 c 128,-1,5
 123 232 123 232 123 254 c 2,6,7
 123 254 123 254 123 300 c 0,8,9
 123 323 123 323 112.5 323 c 128,-1,10
 102 323 102 323 102 305 c 2,11,12
 102 305 102 305 102 266 c 0,13,14
 102 236 102 236 61 236 c 256,15,16
 20 236 20 236 20 266 c 2,17,18
 20 266 20 266 20 369 c 0,19,20
 20 402 20 402 61 402 c 2,21,22
 61 402 61 402 72 402 c 0,23,24
 102 401 102 401 102 389 c 0,25,26
 102 374 102 374 112.5 374 c 128,-1,27
 123 374 123 374 123 389 c 0,28,29
 123 420 123 420 164 420 c 256,30,31
 205 420 205 420 205 389 c 0,32,33
 205 338 205 338 205 287 c 1,0,1
61 0 m 0,34,35
 61 15 61 15 41 41 c 0,36,37
 20 67 20 67 20 82 c 2,38,39
 20 82 20 82 20 246 c 1,40,41
 20 230 20 230 31 228 c 0,42,43
 31 225 31 225 102 225 c 0,44,45
 121 225 121 225 138 209.5 c 128,-1,46
 155 194 155 194 170 179 c 256,47,48
 185 164 185 164 205 164 c 2,49,50
 205 164 205 164 251 164 c 128,-1,51
 297 164 297 164 302 159 c 256,52,53
 307 154 307 154 307 123 c 0,54,55
 307 108 307 108 317.5 108 c 128,-1,56
 328 108 328 108 328 123 c 0,57,58
 328 169 328 169 312.5 176.5 c 128,-1,59
 297 184 297 184 292 184 c 2,60,61
 292 184 292 184 242.5 184 c 128,-1,62
 193 184 193 184 184 188 c 0,63,64
 159 198 159 198 159 223 c 0,65,66
 159 231 159 231 162 240 c 0,67,68
 171 266 171 266 205 266 c 2,69,70
 205 266 205 266 410 266 c 0,71,72
 425 266 425 266 427.5 253.5 c 128,-1,73
 430 241 430 241 430 196 c 2,74,75
 430 196 430 196 430 102 c 0,76,77
 430 75 430 75 366 24 c 0,78,79
 348 9 348 9 348 0 c 2,80,81
 348 0 348 0 348 -61 c 1,82,83
 348 -61 348 -61 61 -61 c 1,84,85
 61 -61 61 -61 61 0 c 0,34,35
225 287 m 1,86,87
 226 287 226 287 226 309 c 128,-1,88
 226 331 226 331 225 655 c 0,89,90
 225 686 225 686 266 686 c 256,91,92
 307 686 307 686 307 655 c 2,93,94
 307 655 307 655 307 389 c 0,95,96
 307 374 307 374 317.5 374 c 128,-1,97
 328 374 328 374 328 389 c 2,98,99
 328 389 328 389 328 655 c 0,100,101
 328 686 328 686 369 686 c 256,102,103
 410 686 410 686 410 655 c 0,104,105
 410 471 410 471 410 287 c 1,106,107
 410 287 410 287 225 287 c 1,86,87
EndSplineSet
EndChar

StartChar: I
Encoding: 73 73 25
Width: 451
GlyphClass: 1
Flags: W
LayerCount: 2
Fore
SplineSet
215 323 m 256,0,1
 205 323 205 323 205 310 c 2,2,3
 205 310 205 310 205 287 c 1,4,5
 189 287 189 287 166 271.5 c 128,-1,6
 143 256 143 256 143 225 c 1,7,8
 143 225 143 225 133 228.5 c 128,-1,9
 123 232 123 232 123 254 c 2,10,11
 123 254 123 254 123 300 c 0,12,13
 123 323 123 323 112.5 323 c 128,-1,14
 102 323 102 323 102 307 c 2,15,16
 102 307 102 307 102 266 c 0,17,18
 102 236 102 236 61 236 c 256,19,20
 20 236 20 236 20 266 c 2,21,22
 20 266 20 266 20 369 c 0,23,24
 20 402 20 402 61 402 c 2,25,26
 61 402 61 402 72 402 c 0,27,28
 102 401 102 401 102 389 c 0,29,30
 102 374 102 374 112.5 374 c 128,-1,31
 123 374 123 374 123 389 c 0,32,33
 123 420 123 420 164 420 c 256,34,35
 205 420 205 420 205 389 c 0,36,37
 205 374 205 374 215.5 374 c 128,-1,38
 226 374 226 374 225 389 c 0,39,40
 225 420 225 420 266 420 c 256,41,42
 307 420 307 420 307 389 c 0,43,44
 307 338 307 338 307 287 c 1,45,46
 307 287 307 287 225 287 c 1,47,48
 225 287 225 287 225 305 c 128,-1,49
 225 323 225 323 215 323 c 256,0,1
61 0 m 0,50,51
 61 15 61 15 41 41 c 0,52,53
 20 67 20 67 20 78 c 0,54,55
 20 162 20 162 20 246 c 1,56,57
 20 233 20 233 31 229 c 2,58,59
 31 229 31 229 41 225 c 1,60,61
 41 225 41 225 102 225 c 0,62,63
 122 225 122 225 137 210 c 0,64,65
 183 164 183 164 202 164 c 2,66,67
 202 164 202 164 249.5 164 c 128,-1,68
 297 164 297 164 302 159 c 256,69,70
 307 154 307 154 307 123 c 0,71,72
 307 108 307 108 317.5 108 c 128,-1,73
 328 108 328 108 328 123 c 0,74,75
 328 169 328 169 312.5 176.5 c 128,-1,76
 297 184 297 184 292 184 c 2,77,78
 292 184 292 184 242.5 184 c 128,-1,79
 193 184 193 184 184 188 c 0,80,81
 159 198 159 198 159 223 c 0,82,83
 159 231 159 231 162 240 c 0,84,85
 171 266 171 266 205 266 c 2,86,87
 205 266 205 266 410 266 c 0,88,89
 425 266 425 266 427.5 253.5 c 128,-1,90
 430 241 430 241 430 196 c 2,91,92
 430 196 430 196 430 102 c 0,93,94
 430 75 430 75 366 24 c 0,95,96
 348 9 348 9 348 0 c 2,97,98
 348 0 348 0 348 -61 c 1,99,100
 348 -61 348 -61 61 -61 c 1,101,102
 61 -61 61 -61 61 0 c 0,50,51
328 655 m 0,103,104
 328 686 328 686 369 686 c 256,105,106
 410 686 410 686 410 655 c 0,107,108
 410 471 410 471 410 287 c 1,109,110
 410 287 410 287 328 287 c 1,111,112
 328 471 328 471 328 655 c 0,103,104
EndSplineSet
EndChar

StartChar: J
Encoding: 74 74 26
Width: 533
GlyphClass: 1
Flags: W
LayerCount: 2
Fore
SplineSet
389 348 m 2,0,1
 389 348 389 348 389 253 c 0,2,3
 389 230 389 230 379 228 c 0,4,5
 379 225 379 225 266 225 c 0,6,7
 251 225 251 225 251 256 c 256,8,9
 251 287 251 287 266 287 c 2,10,11
 266 287 266 287 307 287 c 0,12,13
 323 287 323 287 307 297 c 0,14,15
 292 307 292 307 307 307 c 1,16,17
 307 308 307 308 292 308 c 2,18,19
 292 308 292 308 274.5 308 c 128,-1,20
 257 308 257 308 246 307 c 0,21,22
 228 305 228 305 226 286 c 2,23,24
 226 286 226 286 225 266 c 2,25,26
 225 266 225 266 225 240.5 c 128,-1,27
 225 215 225 215 236 200 c 2,28,29
 236 200 236 200 246 184 c 2,30,31
 246 184 246 184 254 173.5 c 128,-1,32
 262 163 262 163 273 148 c 128,-1,33
 284 133 284 133 287 129 c 128,-1,34
 290 125 290 125 307 102 c 1,35,36
 323 102 323 102 325 113 c 2,37,38
 325 113 325 113 328 123 c 1,39,40
 328 123 328 123 320 133.5 c 128,-1,41
 312 144 312 144 300 159 c 0,42,43
 287 177 287 177 266 205 c 1,44,45
 266 205 266 205 369 205 c 1,46,47
 369 205 369 205 389.5 210 c 128,-1,48
 410 215 410 215 410 246 c 0,49,50
 410 256 410 256 410 266 c 1,51,52
 410 266 410 266 492 266 c 1,53,54
 492 220 492 220 471 154 c 128,-1,55
 450 88 450 88 430 44 c 2,56,57
 430 44 430 44 410 0 c 1,58,59
 410 0 410 0 410 -61 c 1,60,61
 410 -61 410 -61 123 -61 c 1,62,63
 123 -61 123 -61 123 0 c 1,64,65
 123 0 123 0 101 38 c 0,66,67
 57 114 57 114 38.5 175 c 128,-1,68
 20 236 20 236 20 274 c 128,-1,69
 20 312 20 312 30.5 337 c 128,-1,70
 41 362 41 362 51 365 c 2,71,72
 51 365 51 365 61 369 c 1,73,74
 61 369 61 369 348 369 c 1,75,76
 348 369 348 369 368.5 366 c 128,-1,77
 389 363 389 363 389 348 c 2,0,1
492 369 m 0,78,79
 508 369 508 369 512 351 c 1,80,81
 512 351 512 351 512 310 c 0,82,83
 512 290 512 290 494 282 c 0,84,85
 456 267 456 267 423 286 c 0,86,87
 410 294 410 294 410 310 c 2,88,89
 410 310 410 310 410 337 c 128,-1,90
 410 364 410 364 420 366 c 2,91,92
 420 366 420 366 430 369 c 2,93,94
 430 369 430 369 492 369 c 0,78,79
102 389 m 1,95,96
 102 389 102 389 102 596 c 0,97,98
 103 626 103 626 121 651 c 256,99,100
 139 676 139 676 184 676 c 2,101,102
 184 676 184 676 389 676 c 0,103,104
 435 676 435 676 463.5 648 c 128,-1,105
 492 620 492 620 492 573 c 2,106,107
 492 573 492 573 492 563 c 256,108,109
 492 553 492 553 493 553 c 1,110,111
 492 522 492 522 451 522 c 256,112,113
 410 522 410 522 410 553 c 128,-1,114
 410 584 410 584 390 589 c 2,115,116
 390 589 390 589 369 594 c 1,117,118
 369 594 369 594 246 594 c 1,119,120
 246 594 246 594 225.5 589 c 128,-1,121
 205 584 205 584 205 553 c 0,122,123
 205 471 205 471 205 389 c 1,124,125
 205 389 205 389 102 389 c 1,95,96
EndSplineSet
EndChar

StartChar: K
Encoding: 75 75 27
Width: 676
GlyphClass: 1
Flags: W
LayerCount: 2
Fore
SplineSet
205 266 m 2,0,1
 205 266 205 266 205 240.5 c 128,-1,2
 205 215 205 215 215 200 c 2,3,4
 215 200 215 200 225 184 c 2,5,6
 225 184 225 184 252 150 c 256,7,8
 279 116 279 116 287 102 c 1,9,10
 302 102 302 102 305 113 c 2,11,12
 305 113 305 113 307 123 c 1,13,14
 307 123 307 123 284 153.5 c 128,-1,15
 261 184 261 184 246 205 c 1,16,17
 246 205 246 205 348 205 c 1,18,19
 348 205 348 205 369 210 c 0,20,21
 389 215 389 215 389 246 c 0,22,23
 389 256 389 256 389 266 c 1,24,25
 389 266 389 266 410 266 c 1,26,27
 410 185 410 185 394 44 c 2,28,29
 394 44 394 44 391.5 22 c 128,-1,30
 389 0 389 0 389 -61 c 1,31,32
 389 -61 389 -61 102 -61 c 1,33,34
 102 -61 102 -61 102 0 c 1,35,36
 100 0 100 0 75 69 c 128,-1,37
 50 138 50 138 35 195 c 128,-1,38
 20 252 20 252 20 282 c 128,-1,39
 20 312 20 312 30.5 337 c 128,-1,40
 41 362 41 362 51 365 c 2,41,42
 51 365 51 365 61 369 c 1,43,44
 61 369 61 369 328 369 c 1,45,46
 328 369 328 369 348 366 c 256,47,48
 368 363 368 363 369 348 c 2,49,50
 369 348 369 348 369 246 c 0,51,52
 369 230 369 230 358 228 c 0,53,54
 358 225 358 225 246 225 c 0,55,56
 230 225 230 225 230 256 c 256,57,58
 230 287 230 287 246 287 c 2,59,60
 246 287 246 287 287 287 c 0,61,62
 302 287 302 287 302 297 c 256,63,64
 302 307 302 307 286 307 c 2,65,66
 286 307 286 307 225 307 c 0,67,68
 208 307 208 307 206 286 c 2,69,70
 206 286 206 286 205 266 c 2,0,1
353 464 m 0,71,72
 410 464 410 464 410 430 c 2,73,74
 410 430 410 430 410 389 c 1,75,76
 410 389 410 389 307 389 c 1,77,78
 307 389 307 389 307 416.5 c 128,-1,79
 307 444 307 444 319 454 c 128,-1,80
 331 464 331 464 353 464 c 0,71,72
123 389 m 1,81,82
 123 522 123 522 123 655 c 0,83,84
 123 686 123 686 164 686 c 256,85,86
 205 686 205 686 205 655 c 0,87,88
 205 522 205 522 205 389 c 1,89,90
 205 389 205 389 123 389 c 1,81,82
389 287 m 1,91,92
 389 328 389 328 389 369 c 1,93,94
 389 369 389 369 614 369 c 0,95,96
 645 369 645 369 645 328 c 256,97,98
 645 287 645 287 614 287 c 2,99,100
 614 287 614 287 389 287 c 1,91,92
EndSplineSet
EndChar

StartChar: L
Encoding: 76 76 28
Width: 656
GlyphClass: 1
Flags: W
LayerCount: 2
Fore
SplineSet
410 225 m 0,0,1
 410 205 410 205 429 205 c 0,2,3
 460 205 460 205 554 260 c 0,4,5
 564 266 564 266 573 266 c 0,6,7
 620 266 620 266 627.5 243 c 128,-1,8
 635 220 635 220 635 205 c 1,9,10
 635 205 635 205 598 181 c 0,11,12
 492 112 492 112 420 60 c 128,-1,13
 348 8 348 8 348 0 c 2,14,15
 348 0 348 0 348 -61 c 1,16,17
 348 -61 348 -61 61 -61 c 1,18,19
 61 -61 61 -61 61 0 c 0,20,21
 61 15 61 15 41 51 c 0,22,23
 20 87 20 87 20 102 c 0,24,25
 20 174 20 174 20 246 c 1,26,27
 20 230 20 230 31 228 c 2,28,29
 31 228 31 228 41 225 c 2,30,31
 41 225 41 225 102 225 c 1,32,33
 102 225 102 225 107.5 215 c 128,-1,34
 113 205 113 205 144 205 c 2,35,36
 144 205 144 205 287 205 c 1,37,38
 287 205 287 205 307.5 210 c 128,-1,39
 328 215 328 215 328 246 c 2,40,41
 328 246 328 246 328 655 c 0,42,43
 328 686 328 686 369 686 c 256,44,45
 410 686 410 686 410 655 c 2,46,47
 410 655 410 655 410 225 c 0,0,1
307 389 m 2,48,49
 307 389 307 389 307 246 c 0,50,51
 307 215 307 215 266 215 c 256,52,53
 225 215 225 215 225 246 c 2,54,55
 225 246 225 246 225 309 c 0,56,57
 225 324 225 324 215 323 c 128,-1,58
 205 322 205 322 205 299 c 2,59,60
 205 299 205 299 205 246 c 0,61,62
 205 215 205 215 164 215 c 256,63,64
 123 215 123 215 123 246 c 2,65,66
 123 246 123 246 123 300 c 0,67,68
 123 323 123 323 112.5 323 c 128,-1,69
 102 323 102 323 102 305 c 2,70,71
 102 305 102 305 102 266 c 0,72,73
 102 236 102 236 61 236 c 256,74,75
 20 236 20 236 20 266 c 2,76,77
 20 266 20 266 20 369 c 0,78,79
 20 402 20 402 61 402 c 2,80,81
 61 402 61 402 72 402 c 0,82,83
 102 401 102 401 102 389 c 0,84,85
 102 374 102 374 112.5 374 c 128,-1,86
 123 374 123 374 123 389 c 0,87,88
 123 420 123 420 164 420 c 256,89,90
 205 420 205 420 205 389 c 0,91,92
 205 374 205 374 215 374 c 256,93,94
 225 374 225 374 225 389 c 0,95,96
 225 420 225 420 266 420 c 256,97,98
 307 420 307 420 307 389 c 2,48,49
EndSplineSet
EndChar

StartChar: M
Encoding: 77 77 29
Width: 451
GlyphClass: 1
Flags: W
LayerCount: 2
Fore
SplineSet
205 553 m 0,0,1
 205 502 205 502 205 451 c 0,2,3
 205 420 205 420 164 420 c 256,4,5
 123 420 123 420 123 451 c 2,6,7
 123 451 123 451 123 655 c 0,8,9
 123 686 123 686 164 686 c 256,10,11
 205 686 205 686 205 655 c 0,12,13
 205 640 205 640 215 640 c 256,14,15
 225 640 225 640 225 655 c 0,16,17
 225 686 225 686 266 686 c 256,18,19
 307 686 307 686 307 655 c 0,20,21
 307 640 307 640 317.5 640 c 128,-1,22
 328 640 328 640 328 655 c 0,23,24
 328 686 328 686 369 686 c 256,25,26
 410 686 410 686 410 655 c 2,27,28
 410 655 410 655 410 451 c 0,29,30
 410 420 410 420 369 420 c 256,31,32
 328 420 328 420 328 451 c 0,33,34
 328 502 328 502 328 553 c 0,35,36
 328 568 328 568 317.5 568 c 128,-1,37
 307 568 307 568 307 553 c 0,38,39
 307 502 307 502 307 451 c 0,40,41
 307 420 307 420 266 420 c 256,42,43
 225 420 225 420 225 451 c 0,44,45
 225 502 225 502 225 553 c 0,46,47
 225 568 225 568 215 568 c 256,48,49
 205 568 205 568 205 553 c 0,0,1
41 410 m 1,50,51
 41 410 41 410 61 410 c 128,-1,52
 81 410 81 410 97.5 394 c 128,-1,53
 114 378 114 378 129 363 c 256,54,55
 144 348 144 348 171 348 c 2,56,57
 171 348 171 348 234 348 c 128,-1,58
 297 348 297 348 302 343 c 256,59,60
 307 338 307 338 307 307 c 0,61,62
 307 292 307 292 317.5 292 c 128,-1,63
 328 292 328 292 328 307 c 0,64,65
 328 353 328 353 312.5 361 c 128,-1,66
 297 369 297 369 292 369 c 2,67,68
 292 369 292 369 164 369 c 0,69,70
 133 369 133 369 128 390 c 2,71,72
 128 390 128 390 123 410 c 1,73,74
 123 410 123 410 410 410 c 1,75,76
 410 410 410 410 420 412 c 0,77,78
 430 415 430 415 430 430 c 1,79,80
 430 430 430 430 430 287 c 0,81,82
 430 258 430 258 366 208 c 0,83,84
 348 194 348 194 348 184 c 2,85,86
 348 184 348 184 348 -61 c 1,87,88
 348 -61 348 -61 61 -61 c 1,89,90
 61 -61 61 -61 61 184 c 0,91,92
 61 200 61 200 40.5 225.5 c 128,-1,93
 20 251 20 251 20 262 c 0,94,95
 20 346 20 346 20 430 c 1,96,97
 20 418 20 418 31 414 c 2,98,99
 31 414 31 414 41 410 c 1,50,51
20 553 m 0,100,101
 20 588 20 588 71 587 c 0,102,103
 102 586 102 586 102 573 c 0,104,105
 102 512 102 512 102 451 c 0,106,107
 102 420 102 420 61 420 c 256,108,109
 20 420 20 420 20 451 c 2,110,111
 20 451 20 451 20 553 c 0,100,101
EndSplineSet
EndChar

StartChar: N
Encoding: 78 78 30
Width: 451
GlyphClass: 1
Flags: W
LayerCount: 2
Fore
SplineSet
225 655 m 0,0,1
 225 686 225 686 266 686 c 256,2,3
 307 686 307 686 307 655 c 0,4,5
 307 640 307 640 317.5 640 c 128,-1,6
 328 640 328 640 328 655 c 0,7,8
 328 686 328 686 369 686 c 256,9,10
 410 686 410 686 410 655 c 2,11,12
 410 655 410 655 410 451 c 0,13,14
 410 420 410 420 369 420 c 256,15,16
 328 420 328 420 328 451 c 0,17,18
 328 502 328 502 328 553 c 0,19,20
 328 568 328 568 317.5 568 c 128,-1,21
 307 568 307 568 307 553 c 0,22,23
 307 502 307 502 307 451 c 0,24,25
 307 420 307 420 266 420 c 256,26,27
 225 420 225 420 225 451 c 0,28,29
 225 553 225 553 225 655 c 0,0,1
61 -61 m 1,30,31
 61 -61 61 -61 61 189 c 0,32,33
 61 200 61 200 40.5 225.5 c 128,-1,34
 20 251 20 251 20 262 c 0,35,36
 20 346 20 346 20 430 c 1,37,38
 20 418 20 418 31 414 c 2,39,40
 31 414 31 414 41 410 c 1,41,42
 41 410 41 410 102 410 c 0,43,44
 122 410 122 410 138.5 394 c 128,-1,45
 155 378 155 378 170 363 c 256,46,47
 185 348 185 348 205 348 c 2,48,49
 205 348 205 348 251 348 c 128,-1,50
 297 348 297 348 302 343 c 256,51,52
 307 338 307 338 307 307 c 0,53,54
 307 292 307 292 317.5 292 c 128,-1,55
 328 292 328 292 328 307 c 0,56,57
 328 353 328 353 312.5 361 c 128,-1,58
 297 369 297 369 292 369 c 2,59,60
 292 369 292 369 242.5 369 c 128,-1,61
 193 369 193 369 184 372 c 0,62,63
 158 383 158 383 158 406 c 0,64,65
 158 415 158 415 162 425 c 0,66,67
 171 451 171 451 205 451 c 1,68,69
 205 435 205 435 217.5 422.5 c 128,-1,70
 230 410 230 410 246 410 c 2,71,72
 246 410 246 410 410 410 c 1,73,74
 410 430 410 430 430 430 c 1,75,76
 430 430 430 430 430 287 c 0,77,78
 430 258 430 258 366 208 c 0,79,80
 348 194 348 194 348 184 c 2,81,82
 348 184 348 184 348 -61 c 1,83,84
 348 -61 348 -61 61 -61 c 1,30,31
20 553 m 0,85,86
 20 587 20 587 72 587 c 0,87,88
 102 587 102 587 102 574 c 0,89,90
 102 558 102 558 112.5 558 c 128,-1,91
 123 558 123 558 123 573 c 0,92,93
 123 604 123 604 164 604 c 256,94,95
 205 604 205 604 205 573 c 0,96,97
 205 522 205 522 205 471 c 1,98,99
 189 471 189 471 166 455.5 c 128,-1,100
 143 440 143 440 143 410 c 1,101,102
 143 410 143 410 133 413.5 c 128,-1,103
 123 417 123 417 123 439 c 2,104,105
 123 439 123 439 123 492 c 0,106,107
 123 507 123 507 112.5 507 c 128,-1,108
 102 507 102 507 102 489 c 2,109,110
 102 489 102 489 102 451 c 0,111,112
 102 420 102 420 61 420 c 256,113,114
 20 420 20 420 20 451 c 2,115,116
 20 451 20 451 20 553 c 0,85,86
EndSplineSet
EndChar

StartChar: O
Encoding: 79 79 31
Width: 553
GlyphClass: 1
Flags: W
LayerCount: 2
Fore
SplineSet
410 0 m 1,0,1
 410 0 410 0 410 -61 c 1,2,3
 410 -61 410 -61 123 -61 c 1,4,5
 123 -61 123 -61 123 0 c 1,6,7
 123 0 123 0 101 38 c 0,8,9
 57 114 57 114 38.5 175 c 128,-1,10
 20 236 20 236 20 266 c 2,11,12
 20 266 20 266 20 594 c 0,13,14
 20 625 20 625 38 650.5 c 128,-1,15
 56 676 56 676 102 676 c 2,16,17
 102 676 102 676 369 676 c 0,18,19
 398 676 398 676 434.5 655.5 c 128,-1,20
 471 635 471 635 471 573 c 2,21,22
 471 573 471 573 471 492 c 1,23,24
 471 492 471 492 488 490 c 0,25,26
 517 487 517 487 529 467 c 0,27,28
 532 462 532 462 532 456 c 0,29,30
 532 361 532 361 532 266 c 0,31,32
 532 212 532 212 497.5 144.5 c 128,-1,33
 463 77 463 77 456.5 67.5 c 128,-1,34
 450 58 450 58 410 0 c 1,0,1
164 553 m 2,35,36
 164 553 164 553 164 246 c 0,37,38
 164 215 164 215 174 200 c 2,39,40
 174 200 174 200 184 184 c 2,41,42
 184 184 184 184 192 173.5 c 128,-1,43
 200 163 200 163 212 148 c 0,44,45
 225 130 225 130 246 102 c 1,46,47
 261 102 261 102 264 113 c 2,48,49
 264 113 264 113 266 123 c 1,50,51
 266 123 266 123 258 133.5 c 128,-1,52
 250 144 250 144 239 159 c 128,-1,53
 228 174 228 174 225 178 c 128,-1,54
 222 182 222 182 205 205 c 1,55,56
 205 205 205 205 389 205 c 1,57,58
 389 205 389 205 410 212 c 0,59,60
 430 220 430 220 430 266 c 2,61,62
 430 266 430 266 430 451 c 1,63,64
 411 451 411 451 400 453.5 c 128,-1,65
 389 456 389 456 389 470 c 2,66,67
 389 470 389 470 389 553 c 0,68,69
 389 584 389 584 369 589 c 2,70,71
 369 589 369 589 348 594 c 1,72,73
 348 594 348 594 205 594 c 1,74,75
 205 594 205 594 184.5 589 c 128,-1,76
 164 584 164 584 164 553 c 2,35,36
EndSplineSet
EndChar

StartChar: P
Encoding: 80 80 32
Width: 492
GlyphClass: 1
Flags: W
LayerCount: 2
Fore
SplineSet
410 662 m 0,0,1
 445 637 445 637 464 580 c 0,2,3
 471 559 471 559 471 538 c 2,4,5
 471 538 471 538 471 410 c 0,6,7
 471 393 471 393 457.5 382.5 c 128,-1,8
 444 372 444 372 440 371.5 c 128,-1,9
 436 371 436 371 410 369 c 1,10,11
 410 323 410 323 381.5 294.5 c 128,-1,12
 353 266 353 266 307 266 c 1,13,14
 307 266 307 266 307 20 c 0,15,16
 307 -10 307 -10 266 -10 c 256,17,18
 225 -10 225 -10 225 20 c 2,19,20
 225 20 225 20 225 266 c 0,21,22
 225 282 225 282 215 282 c 256,23,24
 205 282 205 282 205 270 c 2,25,26
 205 270 205 270 205 20 c 0,27,28
 205 -10 205 -10 164 -10 c 256,29,30
 123 -10 123 -10 123 20 c 2,31,32
 123 20 123 20 123 348 c 0,33,34
 123 364 123 364 112.5 364 c 128,-1,35
 102 364 102 364 102 352 c 0,36,37
 102 186 102 186 102 20 c 0,38,39
 102 -10 102 -10 61 -10 c 256,40,41
 20 -10 20 -10 20 20 c 2,42,43
 20 20 20 20 20 532 c 0,44,45
 20 571 20 571 41 605.5 c 128,-1,46
 62 640 62 640 82 658 c 2,47,48
 82 658 82 658 102 676 c 1,49,50
 102 676 102 676 102 737 c 1,51,52
 102 737 102 737 389 737 c 1,53,54
 389 737 389 737 389 676 c 1,55,56
 389 676 389 676 410 662 c 0,0,1
246 348 m 1,57,58
 246 348 246 348 287 348 c 1,59,60
 287 348 287 348 307.5 353 c 128,-1,61
 328 358 328 358 328 389 c 0,62,63
 328 404 328 404 340 407 c 0,64,65
 353 410 353 410 369 410 c 1,66,67
 369 410 369 410 369 532 c 0,68,69
 369 579 369 579 348 586 c 2,70,71
 348 586 348 586 328 594 c 1,72,73
 328 594 328 594 246 594 c 1,74,75
 246 594 246 594 225.5 589 c 128,-1,76
 205 584 205 584 205 553 c 2,77,78
 205 553 205 553 205 389 c 0,79,80
 205 358 205 358 226 353 c 2,81,82
 226 353 226 353 246 348 c 1,57,58
EndSplineSet
EndChar

StartChar: Q
Encoding: 81 81 33
Width: 901
GlyphClass: 1
Flags: W
LayerCount: 2
Fore
SplineSet
614 41 m 1,0,1
 614 82 614 82 614 123 c 1,2,3
 614 123 614 123 640 123 c 128,-1,4
 666 123 666 123 671 144 c 2,5,6
 671 144 671 144 676 164 c 1,7,8
 676 164 676 164 676 266 c 1,9,10
 676 266 676 266 686.5 258 c 128,-1,11
 697 250 697 250 712 239 c 128,-1,12
 727 228 727 228 731 225 c 128,-1,13
 735 222 735 222 758 205 c 1,14,15
 758 205 758 205 768 207 c 0,16,17
 778 210 778 210 778 225 c 1,18,19
 778 225 778 225 767.5 233 c 128,-1,20
 757 241 757 241 742 252 c 0,21,22
 724 266 724 266 696 287 c 2,23,24
 696 287 696 287 680.5 297 c 128,-1,25
 665 307 665 307 660 307 c 2,26,27
 660 307 660 307 614 307 c 2,28,29
 614 307 614 307 594 305.5 c 128,-1,30
 574 304 574 304 573 287 c 2,31,32
 573 287 573 287 573 225 c 0,33,34
 574 210 574 210 584 210 c 256,35,36
 594 210 594 210 594 222 c 2,37,38
 594 222 594 222 594 266 c 0,39,40
 594 282 594 282 624.5 282 c 128,-1,41
 655 282 655 282 655 266 c 2,42,43
 655 266 655 266 655 211.5 c 128,-1,44
 655 157 655 157 652.5 150 c 128,-1,45
 650 143 650 143 644 143 c 2,46,47
 644 143 644 143 532 143 c 0,48,49
 518 144 518 144 515 164 c 2,50,51
 515 164 515 164 513.5 174 c 128,-1,52
 512 184 512 184 512 269 c 2,53,54
 512 269 512 269 512 361 c 0,55,56
 514 383 514 383 544 399 c 0,57,58
 565 410 565 410 596 410 c 2,59,60
 596 410 596 410 881 410 c 1,61,62
 881 410 881 410 881 123 c 1,63,64
 881 123 881 123 819 123 c 1,65,66
 819 123 819 123 776.5 93 c 128,-1,67
 734 63 734 63 667 48 c 0,68,69
 636 41 636 41 614 41 c 1,0,1
573 41 m 2,70,71
 573 41 573 41 532 41 c 1,72,73
 532 42 532 42 522 44 c 128,-1,74
 512 46 512 46 512 64 c 2,75,76
 512 64 512 64 512 102 c 1,77,78
 512 102 512 102 515 113 c 0,79,80
 517 123 517 123 532 123 c 2,81,82
 532 123 532 123 573 123 c 0,83,84
 604 123 604 123 604 82 c 256,85,86
 604 41 604 41 573 41 c 2,70,71
348 0 m 1,87,88
 348 0 348 0 348 -61 c 1,89,90
 348 -61 348 -61 61 -61 c 1,91,92
 61 -61 61 -61 61 0 c 0,93,94
 61 1 61 1 56 34 c 2,95,96
 56 34 56 34 46 100 c 128,-1,97
 36 166 36 166 20 266 c 1,98,99
 20 266 20 266 20 594 c 0,100,101
 20 625 20 625 38 650.5 c 128,-1,102
 56 676 56 676 102 676 c 2,103,104
 102 676 102 676 266 676 c 0,105,106
 295 676 295 676 332 655.5 c 128,-1,107
 369 635 369 635 369 573 c 2,108,109
 369 573 369 573 369 492 c 1,110,111
 369 492 369 492 386 490 c 0,112,113
 413 487 413 487 426 467 c 0,114,115
 430 461 430 461 430 458 c 2,116,117
 430 458 430 458 430 346.5 c 128,-1,118
 430 235 430 235 424 208 c 0,119,120
 406 125 406 125 377 63 c 2,121,122
 377 63 377 63 348 0 c 1,87,88
164 553 m 2,123,124
 164 553 164 553 164 246 c 0,125,126
 164 215 164 215 174 200 c 2,127,128
 174 200 174 200 184 184 c 2,129,130
 184 184 184 184 192 173.5 c 128,-1,131
 200 163 200 163 212 148 c 0,132,133
 225 130 225 130 246 102 c 1,134,135
 261 102 261 102 264 113 c 2,136,137
 264 113 264 113 266 123 c 1,138,139
 266 123 266 123 258 133.5 c 128,-1,140
 250 144 250 144 239 159 c 128,-1,141
 228 174 228 174 225 178 c 128,-1,142
 222 182 222 182 205 205 c 1,143,144
 205 205 205 205 287 205 c 1,145,146
 287 205 287 205 307.5 212.5 c 128,-1,147
 328 220 328 220 328 266 c 2,148,149
 328 266 328 266 328 451 c 1,150,151
 312 451 312 451 299.5 453.5 c 128,-1,152
 287 456 287 456 287 470 c 2,153,154
 287 470 287 470 287 553 c 0,155,156
 287 584 287 584 266 589 c 2,157,158
 266 589 266 589 246 594 c 1,159,160
 246 594 246 594 205 594 c 1,161,162
 205 594 205 594 184.5 589 c 128,-1,163
 164 584 164 584 164 553 c 2,123,124
451 348 m 1,164,165
 451 348 451 348 492 348 c 1,166,167
 492 307 492 307 492 266 c 1,168,169
 492 266 492 266 451 266 c 1,170,171
 451 266 451 266 451 348 c 1,164,165
307 266 m 1,172,173
 307 266 307 266 266 266 c 0,174,175
 236 266 236 266 236 307 c 256,176,177
 236 348 236 348 266 348 c 2,178,179
 266 348 266 348 307 348 c 1,180,181
 307 348 307 348 307 266 c 1,172,173
EndSplineSet
EndChar

StartChar: R
Encoding: 82 82 34
Width: 656
GlyphClass: 1
Flags: W
LayerCount: 2
Fore
SplineSet
583 402 m 0,0,1
 635 402 635 402 635 369 c 2,2,3
 635 369 635 369 635 102 c 0,4,5
 635 87 635 87 614.5 51 c 128,-1,6
 594 15 594 15 594 0 c 2,7,8
 594 0 594 0 594 -61 c 1,9,10
 594 -61 594 -61 307 -61 c 1,11,12
 307 -61 307 -61 307 0 c 0,13,14
 307 17 307 17 74 171 c 1,15,16
 74 171 74 171 20 205 c 1,17,18
 20 220 20 220 26 243 c 256,19,20
 32 266 32 266 82 266 c 0,21,22
 97 266 97 266 131 249 c 0,23,24
 155 235 155 235 180 220 c 256,25,26
 205 205 205 205 223 205 c 128,-1,27
 241 205 241 205 244 215 c 2,28,29
 244 215 244 215 245 220 c 128,-1,30
 246 225 246 225 246 655 c 0,31,32
 246 686 246 686 287 686 c 256,33,34
 328 686 328 686 328 655 c 0,35,36
 328 522 328 522 328 389 c 0,37,38
 328 374 328 374 338 376 c 0,39,40
 348 379 348 379 348 389 c 0,41,42
 348 420 348 420 389 420 c 256,43,44
 430 420 430 420 430 389 c 0,45,46
 430 374 430 374 440.5 374 c 128,-1,47
 451 374 451 374 451 389 c 0,48,49
 451 420 451 420 491.5 420 c 128,-1,50
 532 420 532 420 532 389 c 0,51,52
 532 374 532 374 542.5 374 c 128,-1,53
 553 374 553 374 553 389 c 0,54,55
 553 402 553 402 583 402 c 0,0,1
EndSplineSet
EndChar

StartChar: S
Encoding: 83 83 35
Width: 574
GlyphClass: 1
Flags: W
LayerCount: 2
Fore
SplineSet
190 481 m 0,0,1
 205 504 205 504 205 471 c 0,2,3
 205 456 205 456 236 454 c 2,4,5
 236 454 236 454 266 451 c 1,6,7
 266 451 266 451 266 492 c 1,8,9
 266 492 266 492 369 492 c 1,10,11
 369 413 369 413 366.5 389.5 c 128,-1,12
 364 366 364 366 348 225 c 1,13,14
 348 225 348 225 348 -61 c 1,15,16
 348 -61 348 -61 61 -61 c 1,17,18
 61 -61 61 -61 61 225 c 1,19,20
 61 225 61 225 40.5 341 c 128,-1,21
 20 457 20 457 20 492 c 0,22,23
 20 568 20 568 56 591 c 256,24,25
 92 614 92 614 123 614 c 2,26,27
 123 614 123 614 532 614 c 0,28,29
 563 614 563 614 563 573 c 256,30,31
 563 532 563 532 532 532 c 2,32,33
 532 532 532 532 492 532 c 1,34,35
 492 548 492 548 480.5 571 c 128,-1,36
 469 594 469 594 430 594 c 2,37,38
 430 594 430 594 184 594 c 0,39,40
 169 594 169 594 169 583.5 c 128,-1,41
 169 573 169 573 184 573 c 2,42,43
 184 573 184 573 430 573 c 0,44,45
 445 573 445 573 458 560.5 c 128,-1,46
 471 548 471 548 471 532 c 1,47,48
 471 532 471 532 468 522 c 0,49,50
 466 512 466 512 451 512 c 2,51,52
 451 512 451 512 205 512 c 1,53,54
 205 512 205 512 184.5 507 c 128,-1,55
 164 502 164 502 164 471 c 256,56,57
 164 440 164 440 174 425 c 2,58,59
 174 425 174 425 184 410 c 2,60,61
 184 410 184 410 192 399 c 0,62,63
 203 384 203 384 246 328 c 1,64,65
 261 328 261 328 264 338 c 2,66,67
 264 338 264 338 266 348 c 1,68,69
 266 348 266 348 258 358.5 c 128,-1,70
 250 369 250 369 239 384.5 c 128,-1,71
 228 400 228 400 222 407.5 c 128,-1,72
 216 415 216 415 200 435.5 c 128,-1,73
 184 456 184 456 184 471 c 1,74,75
 184 471 184 471 190 481 c 0,0,1
266 635 m 1,76,77
 266 635 266 635 266 669 c 0,78,79
 266 710 266 710 312 710 c 0,80,81
 321 710 321 710 332 708 c 0,82,83
 369 701 369 701 369 676 c 2,84,85
 369 676 369 676 369 635 c 1,86,87
 369 635 369 635 266 635 c 1,76,77
EndSplineSet
EndChar

StartChar: T
Encoding: 84 84 36
Width: 758
GlyphClass: 1
Flags: W
LayerCount: 2
Fore
SplineSet
386 421 m 256,0,1
 383 410 383 410 366 409.5 c 128,-1,2
 349 409 349 409 343.5 409 c 128,-1,3
 338 409 338 409 274 410 c 0,4,5
 251 410 251 410 248 420 c 2,6,7
 248 420 248 420 247 425 c 128,-1,8
 246 430 246 430 246 532 c 0,9,10
 246 548 246 548 276.5 548 c 128,-1,11
 307 548 307 548 307 532 c 2,12,13
 307 532 307 532 307 471 c 0,14,15
 307 456 307 456 317.5 456 c 128,-1,16
 328 456 328 456 328 474 c 2,17,18
 328 474 328 474 328 553 c 0,19,20
 327 570 327 570 307 572 c 2,21,22
 307 572 307 572 287 573 c 2,23,24
 287 573 287 573 261.5 573 c 128,-1,25
 236 573 236 573 220 563 c 2,26,27
 220 563 220 563 205 553 c 2,28,29
 205 553 205 553 190 541.5 c 128,-1,30
 175 530 175 530 138 503 c 2,31,32
 138 503 138 503 123 492 c 1,33,34
 123 476 123 476 133 474 c 2,35,36
 133 474 133 474 143 471 c 1,37,38
 143 471 143 471 154 479 c 256,39,40
 165 487 165 487 180 498.5 c 128,-1,41
 195 510 195 510 210 521 c 2,42,43
 210 521 210 521 225 532 c 1,44,45
 224 514 224 514 224 503 c 128,-1,46
 224 492 224 492 224 489 c 128,-1,47
 224 486 224 486 225 430 c 1,48,49
 225 430 225 430 230.5 409.5 c 128,-1,50
 236 389 236 389 266 389 c 2,51,52
 266 389 266 389 287 389 c 1,53,54
 287 348 287 348 287 307 c 1,55,56
 237 307 237 307 188.5 327.5 c 128,-1,57
 140 348 140 348 111 369 c 2,58,59
 111 369 111 369 82 389 c 1,60,61
 82 389 82 389 20 389 c 1,62,63
 20 389 20 389 20 676 c 1,64,65
 20 676 20 676 389 676 c 1,66,67
 389 676 389 676 389 451 c 0,68,69
 389 432 389 432 386 421 c 256,0,1
328 389 m 2,70,71
 328 389 328 389 369 389 c 0,72,73
 384 389 384 389 387 379 c 2,74,75
 387 379 387 379 389 369 c 2,76,77
 389 369 389 369 389 340.5 c 128,-1,78
 389 312 389 312 379 310 c 2,79,80
 379 310 379 310 369 307 c 2,81,82
 369 307 369 307 328 307 c 0,83,84
 297 307 297 307 297 348 c 256,85,86
 297 389 297 389 328 389 c 2,70,71
410 676 m 1,87,88
 410 676 410 676 696 676 c 0,89,90
 714 676 714 676 722.5 664.5 c 128,-1,91
 731 653 731 653 731 641.5 c 128,-1,92
 731 630 731 630 728 620 c 0,93,94
 719 594 719 594 696 594 c 2,95,96
 696 594 696 594 410 594 c 1,97,98
 410 635 410 635 410 676 c 1,87,88
410 172 m 2,99,100
 410 172 410 172 410 266 c 0,101,102
 410 281 410 281 430 284 c 2,103,104
 430 284 430 284 440.5 285.5 c 128,-1,105
 451 287 451 287 535.5 287 c 128,-1,106
 620 287 620 287 627 286 c 0,107,108
 649 285 649 285 665 255 c 0,109,110
 676 234 676 234 676 203 c 2,111,112
 676 203 676 203 676 -61 c 1,113,114
 676 -61 676 -61 389 -61 c 1,115,116
 389 -61 389 -61 389 0 c 1,117,118
 389 0 389 0 369 24 c 0,119,120
 332 68 332 68 314 133 c 0,121,122
 307 158 307 158 307 184 c 1,123,124
 307 184 307 184 389 184 c 1,125,126
 389 184 389 184 389 158.5 c 128,-1,127
 389 133 389 133 410 128 c 2,128,129
 410 128 410 128 430 123 c 0,130,131
 445 122 445 122 457.5 122 c 128,-1,132
 470 122 470 122 488.5 122.5 c 128,-1,133
 507 123 507 123 532 123 c 1,134,135
 532 123 532 123 521 108 c 0,136,137
 490 66 490 66 487.5 63 c 128,-1,138
 485 60 485 60 471 41 c 1,139,140
 471 41 471 41 474 31 c 0,141,142
 476 20 476 20 492 20 c 1,143,144
 492 20 492 20 499.5 31 c 128,-1,145
 507 42 507 42 518 55 c 0,146,147
 532 75 532 75 553 102 c 1,148,149
 553 102 553 102 562 118 c 0,150,151
 573 136 573 136 573 173 c 2,152,153
 573 173 573 173 573 184 c 2,154,155
 573 184 573 184 571.5 204 c 128,-1,156
 570 224 570 224 553 225 c 128,-1,157
 536 226 536 226 525 226 c 128,-1,158
 514 226 514 226 495 225.5 c 128,-1,159
 476 225 476 225 476 215 c 256,160,161
 476 205 476 205 488 205 c 2,162,163
 488 205 488 205 532 205 c 0,164,165
 548 205 548 205 548 174 c 256,166,167
 548 143 548 143 532 143 c 2,168,169
 532 143 532 143 430 143 c 1,170,171
 430 143 430 143 420 145.5 c 128,-1,172
 410 148 410 148 410 172 c 2,99,100
307 225 m 2,173,174
 307 225 307 225 307 266 c 1,175,176
 307 266 307 266 310 276 c 0,177,178
 312 287 312 287 328 287 c 2,179,180
 328 287 328 287 369 287 c 1,181,182
 369 287 369 287 379 284.5 c 128,-1,183
 389 282 389 282 389 264 c 2,184,185
 389 264 389 264 389 225 c 0,186,187
 389 195 389 195 348 195 c 256,188,189
 307 195 307 195 307 225 c 2,173,174
532 307 m 1,190,191
 532 430 532 430 532 553 c 0,192,193
 532 584 532 584 573 584 c 256,194,195
 614 584 614 584 614 553 c 0,196,197
 614 430 614 430 614 307 c 1,198,199
 614 307 614 307 532 307 c 1,190,191
EndSplineSet
EndChar

StartChar: U
Encoding: 85 85 37
Width: 656
GlyphClass: 1
Flags: W
LayerCount: 2
Fore
SplineSet
225 389 m 0,0,1
 228 394 228 394 228 426.5 c 128,-1,2
 228 459 228 459 225 655 c 0,3,4
 225 686 225 686 266 686 c 256,5,6
 307 686 307 686 307 655 c 2,7,8
 307 655 307 655 307 389 c 0,9,10
 307 374 307 374 317.5 374 c 128,-1,11
 328 374 328 374 328 385 c 0,12,13
 328 520 328 520 328 655 c 0,14,15
 328 686 328 686 369 686 c 256,16,17
 410 686 410 686 410 655 c 2,18,19
 410 655 410 655 410 287 c 1,20,21
 410 287 410 287 102 287 c 0,22,23
 87 287 87 287 87 276.5 c 128,-1,24
 87 266 87 266 102 266 c 2,25,26
 102 266 102 266 410 266 c 1,27,28
 410 266 410 266 410 225 c 1,29,30
 415 220 415 220 415 212.5 c 128,-1,31
 415 205 415 205 428 205 c 0,32,33
 456 205 456 205 541 253 c 0,34,35
 564 266 564 266 573 266 c 0,36,37
 620 266 620 266 627.5 244 c 128,-1,38
 635 222 635 222 635 205 c 1,39,40
 635 205 635 205 598 181 c 0,41,42
 492 112 492 112 420 60 c 128,-1,43
 348 8 348 8 348 0 c 2,44,45
 348 0 348 0 348 -61 c 1,46,47
 348 -61 348 -61 61 -61 c 1,48,49
 61 -61 61 -61 61 0 c 0,50,51
 61 17 61 17 40.5 52 c 128,-1,52
 20 87 20 87 20 90 c 2,53,54
 20 90 20 90 20 655 c 0,55,56
 20 686 20 686 61 686 c 256,57,58
 102 686 102 686 102 655 c 2,59,60
 102 655 102 655 102 389 c 0,61,62
 102 374 102 374 112.5 374 c 128,-1,63
 123 374 123 374 123 392 c 2,64,65
 123 392 123 392 123 655 c 0,66,67
 123 686 123 686 164 686 c 256,68,69
 205 686 205 686 205 655 c 0,70,71
 205 522 205 522 205 389 c 0,72,73
 205 374 205 374 215 374 c 256,74,75
 225 374 225 374 225 389 c 0,0,1
EndSplineSet
EndChar

StartChar: V
Encoding: 86 86 38
Width: 574
GlyphClass: 1
Flags: W
LayerCount: 2
Fore
SplineSet
20 369 m 0,0,1
 20 402 20 402 72 402 c 0,2,3
 102 402 102 402 102 389 c 0,4,5
 102 374 102 374 112.5 374 c 128,-1,6
 123 374 123 374 123 389 c 0,7,8
 123 420 123 420 164 420 c 256,9,10
 205 420 205 420 205 389 c 0,11,12
 205 338 205 338 205 287 c 1,13,14
 189 287 189 287 166 271.5 c 128,-1,15
 143 256 143 256 143 225 c 1,16,17
 143 225 143 225 133 228.5 c 128,-1,18
 123 232 123 232 123 254 c 2,19,20
 123 254 123 254 123 300 c 0,21,22
 123 323 123 323 112.5 323 c 128,-1,23
 102 323 102 323 102 305 c 2,24,25
 102 305 102 305 102 266 c 0,26,27
 102 236 102 236 61 236 c 256,28,29
 20 236 20 236 20 266 c 2,30,31
 20 266 20 266 20 369 c 0,0,1
61 0 m 0,32,33
 61 15 61 15 41 41 c 0,34,35
 20 67 20 67 20 82 c 2,36,37
 20 82 20 82 20 246 c 1,38,39
 20 230 20 230 31 228 c 0,40,41
 31 225 31 225 102 225 c 0,42,43
 121 225 121 225 138 209.5 c 128,-1,44
 155 194 155 194 170 179 c 256,45,46
 185 164 185 164 205 164 c 2,47,48
 205 164 205 164 251 164 c 128,-1,49
 297 164 297 164 302 159 c 256,50,51
 307 154 307 154 307 123 c 0,52,53
 307 108 307 108 317.5 108 c 128,-1,54
 328 108 328 108 328 123 c 0,55,56
 328 169 328 169 312.5 176.5 c 128,-1,57
 297 184 297 184 292 184 c 2,58,59
 292 184 292 184 242.5 184 c 128,-1,60
 193 184 193 184 184 188 c 0,61,62
 159 198 159 198 159 223 c 0,63,64
 159 231 159 231 162 240 c 0,65,66
 170 266 170 266 205 266 c 2,67,68
 205 266 205 266 410 266 c 0,69,70
 425 266 425 266 427.5 253.5 c 128,-1,71
 430 241 430 241 430 196 c 2,72,73
 430 196 430 196 430 102 c 0,74,75
 430 75 430 75 366 24 c 0,76,77
 348 9 348 9 348 0 c 2,78,79
 348 0 348 0 348 -61 c 1,80,81
 348 -61 348 -61 61 -61 c 1,82,83
 61 -61 61 -61 61 0 c 0,32,33
143 635 m 1,84,85
 143 669 143 669 195 669 c 0,86,87
 225 669 225 669 225 655 c 1,88,89
 225 655 225 655 235.5 621 c 128,-1,90
 246 587 246 587 265 526 c 128,-1,91
 284 465 284 465 307 389 c 1,92,93
 307 374 307 374 317.5 374 c 128,-1,94
 328 374 328 374 328 389 c 1,95,96
 328 389 328 389 338.5 423.5 c 128,-1,97
 349 458 349 458 364 507 c 128,-1,98
 379 556 379 556 383 568.5 c 128,-1,99
 387 581 387 581 410 655 c 1,100,101
 410 669 410 669 441 669 c 0,102,103
 492 669 492 669 492 635 c 1,104,105
 492 635 492 635 481 590 c 256,106,107
 470 545 470 545 460.5 503.5 c 128,-1,108
 451 462 451 462 445 437 c 256,109,110
 439 412 439 412 431.5 379 c 128,-1,111
 424 346 424 346 422 338.5 c 128,-1,112
 420 331 420 331 410 287 c 1,113,114
 410 287 410 287 225 287 c 1,115,116
 225 338 225 338 225 389 c 1,117,118
 225 389 225 389 222.5 409.5 c 128,-1,119
 220 430 220 430 205 430 c 1,120,121
 205 430 205 430 197 456.5 c 128,-1,122
 189 483 189 483 186 492.5 c 128,-1,123
 183 502 183 502 143 635 c 1,84,85
EndSplineSet
EndChar

StartChar: W
Encoding: 87 87 39
Width: 492
GlyphClass: 1
Flags: W
LayerCount: 2
Fore
SplineSet
20 369 m 0,0,1
 20 402 20 402 72 402 c 0,2,3
 102 402 102 402 102 389 c 2,4,5
 102 389 102 389 102 266 c 0,6,7
 102 236 102 236 61 236 c 256,8,9
 20 236 20 236 20 266 c 2,10,11
 20 266 20 266 20 369 c 0,0,1
61 0 m 0,12,13
 61 15 61 15 41 41 c 0,14,15
 20 67 20 67 20 82 c 2,16,17
 20 82 20 82 20 246 c 1,18,19
 20 230 20 230 31 228 c 2,20,21
 31 228 31 228 41 225 c 2,22,23
 41 225 41 225 69 225 c 128,-1,24
 97 225 97 225 110 234.5 c 128,-1,25
 123 244 123 244 123 266 c 1,26,27
 123 266 123 266 164 266 c 1,28,29
 148 266 148 266 142.5 248 c 128,-1,30
 137 230 137 230 143 225 c 1,31,32
 143 210 143 210 162.5 187 c 128,-1,33
 182 164 182 164 204 164 c 2,34,35
 204 164 204 164 250.5 164 c 128,-1,36
 297 164 297 164 302 159 c 256,37,38
 307 154 307 154 307 123 c 0,39,40
 307 108 307 108 317.5 108 c 128,-1,41
 328 108 328 108 328 123 c 0,42,43
 328 169 328 169 312.5 176.5 c 128,-1,44
 297 184 297 184 292 184 c 2,45,46
 292 184 292 184 242.5 184 c 128,-1,47
 193 184 193 184 184 188 c 0,48,49
 159 198 159 198 159 223 c 0,50,51
 159 231 159 231 162 240 c 0,52,53
 170 266 170 266 205 266 c 2,54,55
 205 266 205 266 410 266 c 0,56,57
 425 266 425 266 427.5 253.5 c 128,-1,58
 430 241 430 241 430 196 c 2,59,60
 430 196 430 196 430 102 c 0,61,62
 430 75 430 75 366 24 c 0,63,64
 348 9 348 9 348 0 c 2,65,66
 348 0 348 0 348 -61 c 1,67,68
 348 -61 348 -61 61 -61 c 1,69,70
 61 -61 61 -61 61 0 c 0,12,13
61 635 m 1,71,72
 61 669 61 669 112 669 c 0,73,74
 143 669 143 669 143 655 c 2,75,76
 143 655 143 655 151 620.5 c 128,-1,77
 159 586 159 586 170.5 537 c 128,-1,78
 182 488 182 488 185 475.5 c 128,-1,79
 188 463 188 463 205 389 c 0,80,81
 205 374 205 374 215 374 c 256,82,83
 225 374 225 374 225 389 c 0,84,85
 225 522 225 522 225 655 c 0,86,87
 225 686 225 686 266 686 c 256,88,89
 307 686 307 686 307 655 c 0,90,91
 307 522 307 522 307 389 c 0,92,93
 307 374 307 374 317.5 374 c 128,-1,94
 328 374 328 374 328 389 c 2,95,96
 328 389 328 389 336 423.5 c 128,-1,97
 344 458 344 458 355 507.5 c 128,-1,98
 366 557 366 557 369 569.5 c 128,-1,99
 372 582 372 582 389 655 c 0,100,101
 389 669 389 669 420 669 c 0,102,103
 471 669 471 669 471 635 c 1,104,105
 471 635 471 635 463 590 c 256,106,107
 455 545 455 545 448 503.5 c 128,-1,108
 441 462 441 462 436.5 437 c 128,-1,109
 432 412 432 412 426 379 c 128,-1,110
 420 346 420 346 419 338.5 c 128,-1,111
 418 331 418 331 410 287 c 1,112,113
 410 287 410 287 123 287 c 1,114,115
 123 338 123 338 123 389 c 1,116,117
 123 389 123 389 115 420.5 c 128,-1,118
 107 452 107 452 85 543.5 c 128,-1,119
 63 635 63 635 61 635 c 1,71,72
EndSplineSet
EndChar

StartChar: X
Encoding: 88 88 40
Width: 1065
GlyphClass: 1
Flags: W
LayerCount: 2
Fore
SplineSet
208 -28 m 1,0,1
 190 -11 190 -11 5 174 c 1,2,3
 5 174 5 174 146 315 c 0,4,5
 180 349 180 349 202 372 c 0,6,7
 234 404 234 404 277 404 c 0,8,9
 289 404 289 404 292.5 402 c 128,-1,10
 296 400 296 400 309 391 c 0,11,12
 334 367 334 367 365 336 c 2,13,14
 365 336 365 336 425 276 c 0,15,16
 434 266 434 266 442 254.5 c 128,-1,17
 450 243 450 243 440 232 c 0,18,19
 415 206 415 206 367 160 c 0,20,21
 356 149 356 149 347 154 c 1,22,23
 347 151 347 151 266 232 c 0,24,25
 262 236 262 236 262 243 c 128,-1,26
 262 250 262 250 276.5 264.5 c 128,-1,27
 291 279 291 279 298.5 279 c 128,-1,28
 306 279 306 279 307.5 277.5 c 128,-1,29
 309 276 309 276 338 247 c 0,30,31
 349 236 349 236 357 242 c 256,32,33
 365 248 365 248 353.5 260 c 128,-1,34
 342 272 342 272 332 283 c 0,35,36
 321 293 321 293 309 305 c 256,37,38
 297 317 297 317 282 304 c 2,39,40
 282 304 282 304 266 290 c 2,41,42
 266 290 266 290 248 272 c 128,-1,43
 230 254 230 254 226 236 c 2,44,45
 226 236 226 236 222 218 c 2,46,47
 222 218 222 218 219.5 199.5 c 128,-1,48
 217 181 217 181 214 162 c 0,49,50
 212 140 212 140 208 116 c 1,51,52
 219 105 219 105 228 110 c 2,53,54
 228 110 228 110 237 116 c 1,55,56
 237 116 237 116 239 129.5 c 128,-1,57
 241 143 241 143 243.5 162 c 128,-1,58
 246 181 246 181 247.5 190 c 128,-1,59
 249 199 249 199 251 218 c 1,60,61
 251 218 251 218 324 145 c 0,62,63
 341 128 341 128 352.5 128 c 128,-1,64
 364 128 364 128 380 143.5 c 128,-1,65
 396 159 396 159 396 160 c 1,66,67
 396 160 396 160 454 102 c 1,68,69
 420 68 420 68 370.5 47.5 c 128,-1,70
 321 27 321 27 286 21 c 2,71,72
 286 21 286 21 251 15 c 1,73,74
 237 0 237 0 208 -28 c 1,0,1
432 138 m 256,75,76
 416 154 416 154 416 167 c 128,-1,77
 416 180 416 180 420 184 c 2,78,79
 420 184 420 184 454 218 c 0,80,81
 465 229 465 229 474 224 c 2,82,83
 474 224 474 224 483 218 c 2,84,85
 483 218 483 218 512 189 c 0,86,87
 523 178 523 178 518 169 c 2,88,89
 518 169 518 169 512 160 c 2,90,91
 512 160 512 160 483 131 c 0,92,93
 474 122 474 122 461 122 c 128,-1,94
 448 122 448 122 432 138 c 256,75,76
324 406 m 1,95,96
 324 406 324 406 413.5 495.5 c 128,-1,97
 503 585 503 585 584 667 c 0,98,99
 594 676 594 676 606.5 676 c 128,-1,100
 619 676 619 676 635 659.5 c 128,-1,101
 651 643 651 643 651 630.5 c 128,-1,102
 651 618 651 618 645 611.5 c 128,-1,103
 639 605 639 605 604 570 c 2,104,105
 604 570 604 570 553.5 520 c 128,-1,106
 503 470 503 470 480.5 447 c 128,-1,107
 458 424 458 424 456 422 c 2,108,109
 456 422 456 422 382 348 c 1,110,111
 382 348 382 348 324 406 c 1,95,96
1048 174 m 1,112,113
 863 -11 863 -11 845 -28 c 1,114,115
 845 -28 845 -28 802 15 c 1,116,117
 802 15 802 15 767 21 c 0,118,119
 701 32 701 32 641 69 c 0,120,121
 618 83 618 83 599 102 c 1,122,123
 599 102 599 102 657 160 c 1,124,125
 657 159 657 159 671.5 144.5 c 128,-1,126
 686 130 686 130 698 130 c 2,127,128
 698 130 698 130 704.5 132 c 128,-1,129
 711 134 711 134 729 145 c 1,130,131
 729 145 729 145 802 218 c 1,132,133
 802 218 802 218 804.5 199.5 c 128,-1,134
 807 181 807 181 810 162 c 0,135,136
 812 140 812 140 816 116 c 1,137,138
 816 116 816 116 825 110.5 c 128,-1,139
 834 105 834 105 845 116 c 1,140,141
 845 116 845 116 842.5 135 c 128,-1,142
 840 154 840 154 837 172 c 0,143,144
 833 196 833 196 831 218 c 2,145,146
 831 218 831 218 827 236 c 256,147,148
 823 254 823 254 810 266 c 2,149,150
 810 266 810 266 787 290 c 2,151,152
 787 290 787 290 771.5 303.5 c 128,-1,153
 756 317 756 317 744 305 c 2,154,155
 744 305 744 305 700 261 c 0,156,157
 689 250 689 250 698.5 244.5 c 128,-1,158
 708 239 708 239 715 246.5 c 128,-1,159
 722 254 722 254 733 265 c 2,160,161
 733 265 733 265 740.5 272 c 128,-1,162
 748 279 748 279 755 279 c 128,-1,163
 762 279 762 279 776.5 264.5 c 128,-1,164
 791 250 791 250 791 243 c 128,-1,165
 791 236 791 236 789 234 c 128,-1,166
 787 232 787 232 757.5 203 c 128,-1,167
 728 174 728 174 719 164.5 c 128,-1,168
 710 155 710 155 703.5 152 c 128,-1,169
 697 149 697 149 680.5 165 c 128,-1,170
 664 181 664 181 660 184 c 2,171,172
 660 184 660 184 613 232 c 0,173,174
 603 242 603 242 616 260 c 0,175,176
 616 264 616 264 667.5 315.5 c 128,-1,177
 719 367 719 367 732 379 c 0,178,179
 759 406 759 406 778 406 c 0,180,181
 816 406 816 406 858 366 c 0,182,183
 890 332 890 332 921 301 c 2,184,185
 921 301 921 301 1048 174 c 1,112,113
621 138 m 256,186,187
 605 122 605 122 592 122 c 128,-1,188
 579 122 579 122 575 126 c 2,189,190
 575 126 575 126 541 160 c 1,191,192
 541 160 541 160 535.5 169 c 128,-1,193
 530 178 530 178 541 189 c 2,194,195
 541 189 541 189 570 218 c 1,196,197
 570 218 570 218 579 223.5 c 128,-1,198
 588 229 588 229 599 218 c 2,199,200
 599 218 599 218 628 189 c 0,201,202
 637 180 637 180 637 167 c 128,-1,203
 637 154 637 154 621 138 c 256,186,187
512 623 m 1,204,205
 512 623 512 623 454 565 c 1,206,207
 440 580 440 580 411 609 c 0,208,209
 402 618 402 618 402 630.5 c 128,-1,210
 402 643 402 643 418 659 c 0,211,212
 435 676 435 676 447.5 676 c 128,-1,213
 460 676 460 676 471.5 664 c 128,-1,214
 483 652 483 652 512 623 c 1,204,205
671 348 m 1,215,216
 606 413 606 413 541 478 c 1,217,218
 560 498 560 498 599 536 c 1,219,220
 599 536 599 536 729 406 c 1,221,222
 729 406 729 406 671 348 c 1,215,216
EndSplineSet
EndChar

StartChar: Y
Encoding: 89 89 41
Width: 717
GlyphClass: 1
Flags: W
LayerCount: 2
Fore
SplineSet
20 655 m 1,0,1
 21 689 21 689 74 689 c 0,2,3
 102 689 102 689 102 676 c 2,4,5
 102 676 102 676 116.5 622 c 128,-1,6
 131 568 131 568 135.5 553.5 c 128,-1,7
 140 539 140 539 164 451 c 1,8,9
 164 451 164 451 164 307 c 1,10,11
 164 307 164 307 169 286.5 c 128,-1,12
 174 266 174 266 205 266 c 2,13,14
 205 266 205 266 492 266 c 0,15,16
 510 266 510 266 536.5 279.5 c 128,-1,17
 563 293 563 293 595 310.5 c 128,-1,18
 627 328 627 328 635 328 c 0,19,20
 681 328 681 328 688.5 305 c 128,-1,21
 696 282 696 282 696 266 c 1,22,23
 696 266 696 266 659 242 c 0,24,25
 410 80 410 80 410 61 c 2,26,27
 410 61 410 61 410 -61 c 1,28,29
 410 -61 410 -61 123 -61 c 1,30,31
 123 -61 123 -61 123 61 c 0,32,33
 123 77 123 77 102.5 112.5 c 128,-1,34
 82 148 82 148 82 164 c 2,35,36
 82 164 82 164 82 410 c 0,37,38
 82 463 82 463 34 614 c 2,39,40
 34 614 34 614 20 655 c 1,0,1
369 451 m 0,41,42
 369 435 369 435 379 435 c 256,43,44
 389 435 389 435 389 451 c 0,45,46
 389 481 389 481 430 481 c 256,47,48
 471 481 471 481 471 451 c 0,49,50
 471 379 471 379 471 307 c 0,51,52
 471 276 471 276 430 276 c 256,53,54
 389 276 389 276 389 307 c 128,-1,55
 389 338 389 338 389 369 c 0,56,57
 389 384 389 384 379 384 c 256,58,59
 369 384 369 384 369 369 c 0,60,61
 369 338 369 338 369 307 c 128,-1,62
 369 276 369 276 328 276 c 256,63,64
 287 276 287 276 287 307 c 2,65,66
 287 307 287 307 287 370 c 0,67,68
 286 384 286 384 276 384 c 256,69,70
 266 384 266 384 266 369 c 0,71,72
 266 338 266 338 266 307 c 128,-1,73
 266 276 266 276 225 276 c 256,74,75
 184 276 184 276 184 307 c 0,76,77
 184 379 184 379 184 451 c 0,78,79
 184 481 184 481 225 481 c 256,80,81
 266 481 266 481 266 451 c 0,82,83
 266 435 266 435 276.5 435 c 128,-1,84
 287 435 287 435 287 451 c 0,85,86
 287 481 287 481 328 481 c 256,87,88
 369 481 369 481 369 451 c 0,41,42
EndSplineSet
EndChar

StartChar: Z
Encoding: 90 90 42
Width: 451
GlyphClass: 1
Flags: W
LayerCount: 2
Fore
SplineSet
381 683 m 0,0,1
 430 683 430 683 430 655 c 2,2,3
 430 655 430 655 430 102 c 0,4,5
 430 87 430 87 409.5 51 c 128,-1,6
 389 15 389 15 389 0 c 2,7,8
 389 0 389 0 389 -61 c 1,9,10
 389 -61 389 -61 102 -61 c 1,11,12
 102 -61 102 -61 102 0 c 0,13,14
 102 9 102 9 72 34 c 128,-1,15
 42 59 42 59 31 74.5 c 128,-1,16
 20 90 20 90 20 112 c 2,17,18
 20 112 20 112 20 176.5 c 128,-1,19
 20 241 20 241 23 253.5 c 128,-1,20
 26 266 26 266 41 266 c 1,21,22
 41 266 41 266 41 655 c 0,23,24
 41 686 41 686 82 686 c 256,25,26
 123 686 123 686 123 655 c 2,27,28
 123 655 123 655 123 389 c 0,29,30
 123 374 123 374 133 374 c 256,31,32
 143 374 143 374 143 389 c 0,33,34
 143 420 143 420 184 420 c 256,35,36
 225 420 225 420 225 389 c 0,37,38
 225 374 225 374 235.5 374 c 128,-1,39
 246 374 246 374 246 389 c 0,40,41
 246 420 246 420 287 420 c 256,42,43
 328 420 328 420 328 389 c 0,44,45
 328 374 328 374 338 374 c 256,46,47
 348 374 348 374 348 389 c 0,48,49
 348 522 348 522 348 655 c 0,50,51
 348 683 348 683 381 683 c 0,0,1
EndSplineSet
EndChar

StartChar: backslash
Encoding: 92 92 43
Width: 574
GlyphClass: 1
Flags: W
LayerCount: 2
Fore
SplineSet
20 676 m 1,0,1
 20 676 20 676 82 676 c 1,2,3
 239 451 239 451 553 0 c 1,4,5
 553 0 553 0 492 0 c 1,6,7
 335 225 335 225 20 676 c 1,0,1
EndSplineSet
EndChar

StartChar: a
Encoding: 97 97 44
Width: 532
GlyphClass: 1
Flags: W
LayerCount: 2
Fore
SplineSet
484 52 m 0,0,1
 484 0 484 0 451 0 c 2,2,3
 451 0 451 0 184 0 c 0,4,5
 169 0 169 0 133 20.5 c 128,-1,6
 97 41 97 41 82 41 c 2,7,8
 82 41 82 41 20 41 c 1,9,10
 20 41 20 41 20 328 c 1,11,12
 20 328 20 328 82 328 c 0,13,14
 94 328 94 328 156 418 c 128,-1,15
 218 508 218 508 235 534.5 c 128,-1,16
 252 561 252 561 287 614 c 1,17,18
 306 614 306 614 327 608.5 c 128,-1,19
 348 603 348 603 348 553 c 0,20,21
 348 536 348 536 332.5 508 c 128,-1,22
 317 480 317 480 302 455 c 256,23,24
 287 430 287 430 287 412 c 128,-1,25
 287 394 287 394 297 392 c 0,26,27
 297 389 297 389 471 389 c 0,28,29
 502 389 502 389 502 348 c 256,30,31
 502 307 502 307 471 307 c 0,32,33
 456 307 456 307 456 297 c 256,34,35
 456 287 456 287 471 287 c 0,36,37
 502 287 502 287 502 246 c 256,38,39
 502 205 502 205 471 205 c 0,40,41
 456 205 456 205 456 194.5 c 128,-1,42
 456 184 456 184 471 184 c 0,43,44
 502 184 502 184 502 143 c 256,45,46
 502 102 502 102 471 102 c 0,47,48
 456 102 456 102 456 92 c 256,49,50
 456 82 456 82 471 82 c 0,51,52
 484 82 484 82 484 52 c 0,0,1
EndSplineSet
EndChar

StartChar: b
Encoding: 98 98 45
Width: 450
GlyphClass: 1
Flags: W
LayerCount: 2
Fore
SplineSet
225 389 m 0,0,1
 228 394 228 394 228 409 c 128,-1,2
 228 424 228 424 225 655 c 0,3,4
 225 686 225 686 266 686 c 256,5,6
 307 686 307 686 307 655 c 2,7,8
 307 655 307 655 307 389 c 0,9,10
 307 374 307 374 317.5 374 c 128,-1,11
 328 374 328 374 328 385 c 0,12,13
 328 510 328 510 328 635 c 0,14,15
 328 666 328 666 369 666 c 256,16,17
 410 666 410 666 410 635 c 2,18,19
 410 635 410 635 410 287 c 1,20,21
 410 287 410 287 102 287 c 0,22,23
 87 287 87 287 87 276.5 c 128,-1,24
 87 266 87 266 102 266 c 2,25,26
 102 266 102 266 164 266 c 1,27,28
 149 266 149 266 146 253.5 c 128,-1,29
 143 241 143 241 143 225 c 0,30,31
 143 164 143 164 205 164 c 2,32,33
 205 164 205 164 251 164 c 128,-1,34
 297 164 297 164 302 159 c 256,35,36
 307 154 307 154 307 123 c 0,37,38
 307 108 307 108 317.5 108 c 128,-1,39
 328 108 328 108 328 123 c 0,40,41
 328 169 328 169 312.5 176.5 c 128,-1,42
 297 184 297 184 293 184 c 2,43,44
 293 184 293 184 243 184 c 128,-1,45
 193 184 193 184 184 188 c 0,46,47
 159 198 159 198 159 223 c 0,48,49
 159 231 159 231 162 240 c 0,50,51
 170 266 170 266 205 266 c 2,52,53
 205 266 205 266 410 266 c 0,54,55
 425 266 425 266 427.5 253.5 c 128,-1,56
 430 241 430 241 430 196 c 2,57,58
 430 196 430 196 430 102 c 0,59,60
 430 75 430 75 366 24 c 0,61,62
 348 9 348 9 348 -3 c 2,63,64
 348 -3 348 -3 348 -61 c 1,65,66
 348 -61 348 -61 61 -61 c 1,67,68
 61 -61 61 -61 61 0 c 0,69,70
 61 17 61 17 40.5 52 c 128,-1,71
 20 87 20 87 20 90 c 2,72,73
 20 90 20 90 20 635 c 0,74,75
 20 666 20 666 61 666 c 256,76,77
 102 666 102 666 102 635 c 2,78,79
 102 635 102 635 102 389 c 0,80,81
 102 374 102 374 112.5 374 c 128,-1,82
 123 374 123 374 123 392 c 2,83,84
 123 392 123 392 123 655 c 0,85,86
 123 686 123 686 164 686 c 256,87,88
 205 686 205 686 205 655 c 0,89,90
 205 522 205 522 205 389 c 0,91,92
 205 374 205 374 215 374 c 256,93,94
 225 374 225 374 225 389 c 0,0,1
EndSplineSet
EndChar

StartChar: c
Encoding: 99 99 46
Width: 450
GlyphClass: 1
Flags: W
LayerCount: 2
Fore
SplineSet
376 394 m 0,0,1
 430 394 430 394 430 346 c 2,2,3
 430 346 430 346 430 282 c 0,4,5
 430 176 430 176 368 44 c 2,6,7
 368 44 368 44 348 0 c 1,8,9
 348 0 348 0 348 -61 c 1,10,11
 348 -61 348 -61 61 -61 c 1,12,13
 61 -61 61 -61 61 0 c 0,14,15
 61 1 61 1 56 34 c 2,16,17
 56 34 56 34 46 100 c 128,-1,18
 36 166 36 166 20 266 c 1,19,20
 20 266 20 266 20 451 c 0,21,22
 20 481 20 481 38 506.5 c 128,-1,23
 56 532 56 532 102 532 c 2,24,25
 102 532 102 532 369 532 c 0,26,27
 399 532 399 532 399 491.5 c 128,-1,28
 399 451 399 451 369 451 c 2,29,30
 369 451 369 451 205 451 c 1,31,32
 205 451 205 451 184 445 c 0,33,34
 164 440 164 440 164 410 c 0,35,36
 164 328 164 328 164 246 c 0,37,38
 164 215 164 215 174 200 c 2,39,40
 174 200 174 200 184 184 c 2,41,42
 184 184 184 184 192 173.5 c 128,-1,43
 200 163 200 163 212 148 c 0,44,45
 225 130 225 130 246 102 c 1,46,47
 261 102 261 102 264 113 c 2,48,49
 264 113 264 113 266 123 c 1,50,51
 266 123 266 123 258 133.5 c 128,-1,52
 250 144 250 144 239 159 c 128,-1,53
 228 174 228 174 225 178 c 128,-1,54
 222 182 222 182 205 205 c 1,55,56
 205 205 205 205 287 205 c 1,57,58
 287 205 287 205 307 213.5 c 128,-1,59
 327 222 327 222 328 266 c 2,60,61
 328 266 328 266 328 311.5 c 128,-1,62
 328 357 328 357 330.5 364.5 c 128,-1,63
 333 372 333 372 338 378 c 0,64,65
 353 394 353 394 376 394 c 0,0,1
EndSplineSet
EndChar

StartChar: d
Encoding: 100 100 47
Width: 512
GlyphClass: 1
Flags: W
LayerCount: 2
Fore
SplineSet
205 266 m 2,0,1
 205 266 205 266 205 240.5 c 128,-1,2
 205 215 205 215 215 200 c 2,3,4
 215 200 215 200 225 184 c 2,5,6
 225 184 225 184 252 150 c 256,7,8
 279 116 279 116 287 102 c 1,9,10
 302 102 302 102 305 113 c 2,11,12
 305 113 305 113 307 123 c 1,13,14
 307 123 307 123 284 153.5 c 128,-1,15
 261 184 261 184 246 205 c 1,16,17
 246 205 246 205 348 205 c 1,18,19
 348 205 348 205 369 210 c 0,20,21
 389 215 389 215 389 246 c 0,22,23
 389 256 389 256 389 266 c 1,24,25
 389 266 389 266 471 266 c 1,26,27
 471 217 471 217 450.5 152.5 c 128,-1,28
 430 88 430 88 425 77 c 128,-1,29
 420 66 420 66 389 0 c 1,30,31
 389 0 389 0 389 -61 c 1,32,33
 389 -61 389 -61 102 -61 c 1,34,35
 102 -61 102 -61 102 0 c 1,36,37
 102 0 102 0 86 51 c 128,-1,38
 70 102 70 102 64 122.5 c 128,-1,39
 58 143 58 143 20 266 c 1,40,41
 20 317 20 317 38 346 c 128,-1,42
 56 375 56 375 66 380 c 2,43,44
 66 380 66 380 82 389 c 2,45,46
 82 389 82 389 106 400 c 0,47,48
 269 471 269 471 308 471 c 128,-1,49
 347 471 347 471 368 445.5 c 128,-1,50
 389 420 389 420 389 389 c 1,51,52
 389 389 389 389 246 389 c 0,53,54
 230 389 230 389 230 379 c 256,55,56
 230 369 230 369 248 369 c 2,57,58
 248 369 248 369 328 369 c 1,59,60
 328 369 328 369 348 366 c 256,61,62
 368 363 368 363 369 348 c 2,63,64
 369 348 369 348 369 246 c 0,65,66
 369 230 369 230 358 228 c 0,67,68
 358 225 358 225 246 225 c 0,69,70
 230 225 230 225 230 256 c 256,71,72
 230 287 230 287 246 287 c 2,73,74
 246 287 246 287 287 287 c 0,75,76
 302 287 302 287 287 297 c 0,77,78
 271 307 271 307 287 307 c 1,79,80
 287 307 287 307 272 307.5 c 128,-1,81
 257 308 257 308 246.5 308 c 128,-1,82
 236 308 236 308 225 307 c 0,83,84
 208 307 208 307 206 286 c 2,85,86
 206 286 206 286 205 266 c 2,0,1
492 310 m 0,87,88
 492 277 492 277 440.5 277 c 128,-1,89
 389 277 389 277 389 309 c 2,90,91
 389 309 389 309 389 336.5 c 128,-1,92
 389 364 389 364 399 366 c 2,93,94
 399 366 399 366 410 369 c 2,95,96
 410 369 410 369 471 369 c 0,97,98
 486 369 486 369 489 358 c 2,99,100
 489 358 489 358 492 348 c 2,101,102
 492 348 492 348 492 310 c 0,87,88
EndSplineSet
EndChar

StartChar: e
Encoding: 101 101 48
Width: 778
GlyphClass: 1
Flags: W
LayerCount: 2
Fore
SplineSet
20 328 m 1,0,1
 20 328 20 328 82 328 c 0,2,3
 91 328 91 328 105.5 345.5 c 128,-1,4
 120 363 120 363 136 381 c 0,5,6
 165 410 165 410 184 410 c 2,7,8
 184 410 184 410 253.5 410 c 128,-1,9
 323 410 323 410 335.5 407 c 128,-1,10
 348 404 348 404 348 389 c 1,11,12
 348 389 348 389 471 389 c 0,13,14
 502 389 502 389 502 348 c 256,15,16
 502 307 502 307 471 307 c 0,17,18
 456 307 456 307 456 297 c 256,19,20
 456 287 456 287 468 287 c 2,21,22
 468 287 468 287 737 287 c 0,23,24
 768 287 768 287 768 246 c 256,25,26
 768 205 768 205 737 205 c 2,27,28
 737 205 737 205 471 205 c 0,29,30
 456 205 456 205 456 194.5 c 128,-1,31
 456 184 456 184 471 184 c 2,32,33
 471 184 471 184 737 184 c 0,34,35
 768 184 768 184 768 143 c 256,36,37
 768 102 768 102 737 102 c 2,38,39
 737 102 737 102 471 102 c 0,40,41
 456 102 456 102 456 92 c 256,42,43
 456 82 456 82 471 82 c 2,44,45
 471 82 471 82 717 82 c 0,46,47
 748 82 748 82 748 41 c 256,48,49
 748 0 748 0 717 0 c 2,50,51
 717 0 717 0 184 0 c 0,52,53
 169 0 169 0 133 20.5 c 128,-1,54
 97 41 97 41 82 41 c 2,55,56
 82 41 82 41 20 41 c 1,57,58
 20 41 20 41 20 328 c 1,0,1
EndSplineSet
EndChar

StartChar: f
Encoding: 102 102 49
Width: 799
GlyphClass: 1
Flags: W
LayerCount: 2
Fore
SplineSet
484 52 m 0,0,1
 484 0 484 0 451 0 c 2,2,3
 451 0 451 0 184 0 c 0,4,5
 169 0 169 0 133 20.5 c 128,-1,6
 97 41 97 41 82 41 c 2,7,8
 82 41 82 41 20 41 c 1,9,10
 20 41 20 41 20 328 c 1,11,12
 20 328 20 328 82 328 c 0,13,14
 91 328 91 328 105.5 345.5 c 128,-1,15
 120 363 120 363 136 381 c 0,16,17
 165 410 165 410 184 410 c 2,18,19
 184 410 184 410 253.5 410 c 128,-1,20
 323 410 323 410 335.5 407 c 128,-1,21
 348 404 348 404 348 389 c 1,22,23
 348 389 348 389 717 389 c 0,24,25
 748 389 748 389 748 348 c 256,26,27
 748 307 748 307 717 307 c 2,28,29
 717 307 717 307 471 307 c 0,30,31
 456 307 456 307 456 297 c 256,32,33
 456 287 456 287 468 287 c 2,34,35
 468 287 468 287 737 287 c 0,36,37
 768 287 768 287 768 246 c 256,38,39
 768 205 768 205 737 205 c 2,40,41
 737 205 737 205 471 205 c 0,42,43
 456 205 456 205 456 194.5 c 128,-1,44
 456 184 456 184 471 184 c 0,45,46
 502 184 502 184 502 143 c 256,47,48
 502 102 502 102 471 102 c 0,49,50
 456 102 456 102 456 92 c 256,51,52
 456 82 456 82 471 82 c 0,53,54
 484 82 484 82 484 52 c 0,0,1
EndSplineSet
EndChar

StartChar: g
Encoding: 103 103 50
Width: 798
GlyphClass: 1
Flags: W
LayerCount: 2
Fore
SplineSet
20 328 m 1,0,1
 20 328 20 328 82 328 c 0,2,3
 91 328 91 328 105.5 345.5 c 128,-1,4
 120 363 120 363 136 381 c 0,5,6
 165 410 165 410 184 410 c 2,7,8
 184 410 184 410 253.5 410 c 128,-1,9
 323 410 323 410 335.5 407 c 128,-1,10
 348 404 348 404 348 389 c 1,11,12
 348 389 348 389 737 389 c 0,13,14
 768 389 768 389 768 348 c 256,15,16
 768 307 768 307 737 307 c 2,17,18
 737 307 737 307 471 307 c 0,19,20
 456 307 456 307 456 297 c 256,21,22
 456 287 456 287 471 287 c 0,23,24
 502 287 502 287 502 246 c 256,25,26
 502 205 502 205 471 205 c 0,27,28
 456 205 456 205 456 194.5 c 128,-1,29
 456 184 456 184 471 184 c 0,30,31
 502 184 502 184 502 143 c 256,32,33
 502 102 502 102 471 102 c 0,34,35
 456 102 456 102 456 92 c 256,36,37
 456 82 456 82 471 82 c 128,-1,38
 486 82 486 82 483.5 41 c 128,-1,39
 481 0 481 0 451 0 c 2,40,41
 451 0 451 0 184 0 c 0,42,43
 169 0 169 0 133 20.5 c 128,-1,44
 97 41 97 41 82 41 c 2,45,46
 82 41 82 41 20 41 c 1,47,48
 20 41 20 41 20 328 c 1,0,1
EndSplineSet
EndChar

StartChar: h
Encoding: 104 104 51
Width: 451
GlyphClass: 1
Flags: W
LayerCount: 2
Fore
SplineSet
20 369 m 0,0,1
 20 402 20 402 72 402 c 0,2,3
 102 402 102 402 102 389 c 0,4,5
 102 374 102 374 112.5 374 c 128,-1,6
 123 374 123 374 123 389 c 0,7,8
 123 420 123 420 164 420 c 256,9,10
 205 420 205 420 205 389 c 0,11,12
 205 338 205 338 205 287 c 1,13,14
 189 287 189 287 166 271.5 c 128,-1,15
 143 256 143 256 143 225 c 1,16,17
 143 225 143 225 133 228.5 c 128,-1,18
 123 232 123 232 123 254 c 2,19,20
 123 254 123 254 123 300 c 0,21,22
 123 323 123 323 112.5 323 c 128,-1,23
 102 323 102 323 102 305 c 2,24,25
 102 305 102 305 102 266 c 0,26,27
 102 236 102 236 61 236 c 256,28,29
 20 236 20 236 20 266 c 2,30,31
 20 266 20 266 20 369 c 0,0,1
61 0 m 0,32,33
 61 15 61 15 41 41 c 0,34,35
 20 67 20 67 20 82 c 2,36,37
 20 82 20 82 20 246 c 1,38,39
 20 230 20 230 31 228 c 0,40,41
 31 225 31 225 102 225 c 0,42,43
 121 225 121 225 138 209.5 c 128,-1,44
 155 194 155 194 170 179 c 256,45,46
 185 164 185 164 205 164 c 2,47,48
 205 164 205 164 251 164 c 128,-1,49
 297 164 297 164 302 159 c 256,50,51
 307 154 307 154 307 123 c 0,52,53
 307 108 307 108 317.5 108 c 128,-1,54
 328 108 328 108 328 123 c 0,55,56
 328 169 328 169 312.5 176.5 c 128,-1,57
 297 184 297 184 292 184 c 2,58,59
 292 184 292 184 242.5 184 c 128,-1,60
 193 184 193 184 184 188 c 0,61,62
 159 198 159 198 159 223 c 0,63,64
 159 231 159 231 162 240 c 0,65,66
 170 266 170 266 205 266 c 2,67,68
 205 266 205 266 410 266 c 0,69,70
 425 266 425 266 427.5 253.5 c 128,-1,71
 430 241 430 241 430 196 c 2,72,73
 430 196 430 196 430 102 c 0,74,75
 430 75 430 75 366 24 c 0,76,77
 348 9 348 9 348 0 c 2,78,79
 348 0 348 0 348 -61 c 1,80,81
 348 -61 348 -61 61 -61 c 1,82,83
 61 -61 61 -61 61 0 c 0,32,33
225 287 m 1,84,85
 226 287 226 287 226 309 c 128,-1,86
 226 331 226 331 225 655 c 0,87,88
 225 686 225 686 266 686 c 256,89,90
 307 686 307 686 307 655 c 2,91,92
 307 655 307 655 307 389 c 0,93,94
 307 374 307 374 317.5 374 c 128,-1,95
 328 374 328 374 328 389 c 2,96,97
 328 389 328 389 328 635 c 0,98,99
 328 666 328 666 369 666 c 256,100,101
 410 666 410 666 410 635 c 0,102,103
 410 461 410 461 410 287 c 1,104,105
 410 287 410 287 225 287 c 1,84,85
EndSplineSet
EndChar

StartChar: i
Encoding: 105 105 52
Width: 451
GlyphClass: 1
Flags: W
LayerCount: 2
Fore
SplineSet
20 369 m 0,0,1
 20 402 20 402 72 402 c 0,2,3
 102 402 102 402 102 389 c 0,4,5
 102 374 102 374 112.5 374 c 128,-1,6
 123 374 123 374 123 389 c 0,7,8
 123 420 123 420 164 420 c 256,9,10
 205 420 205 420 205 389 c 0,11,12
 205 374 205 374 215.5 374 c 128,-1,13
 226 374 226 374 225 389 c 0,14,15
 225 420 225 420 266 420 c 256,16,17
 307 420 307 420 307 389 c 0,18,19
 307 338 307 338 307 287 c 1,20,21
 307 287 307 287 225 287 c 1,22,23
 225 287 225 287 225 305 c 128,-1,24
 225 323 225 323 215 323 c 256,25,26
 205 323 205 323 205 310 c 2,27,28
 205 310 205 310 205 287 c 1,29,30
 189 287 189 287 166 271.5 c 128,-1,31
 143 256 143 256 143 225 c 1,32,33
 143 225 143 225 133 228.5 c 128,-1,34
 123 232 123 232 123 254 c 2,35,36
 123 254 123 254 123 300 c 0,37,38
 123 323 123 323 112.5 323 c 128,-1,39
 102 323 102 323 102 307 c 2,40,41
 102 307 102 307 102 266 c 0,42,43
 102 236 102 236 61 236 c 256,44,45
 20 236 20 236 20 266 c 2,46,47
 20 266 20 266 20 369 c 0,0,1
61 0 m 0,48,49
 61 15 61 15 41 41 c 0,50,51
 20 67 20 67 20 78 c 0,52,53
 20 162 20 162 20 246 c 1,54,55
 20 233 20 233 31 229 c 2,56,57
 31 229 31 229 41 225 c 1,58,59
 41 225 41 225 102 225 c 0,60,61
 121 225 121 225 138 209.5 c 128,-1,62
 155 194 155 194 170 179 c 256,63,64
 185 164 185 164 205 164 c 2,65,66
 205 164 205 164 251 164 c 128,-1,67
 297 164 297 164 302 159 c 256,68,69
 307 154 307 154 307 123 c 0,70,71
 307 108 307 108 317.5 108 c 128,-1,72
 328 108 328 108 328 123 c 0,73,74
 328 169 328 169 312.5 176.5 c 128,-1,75
 297 184 297 184 292 184 c 2,76,77
 292 184 292 184 242.5 184 c 128,-1,78
 193 184 193 184 184 188 c 0,79,80
 159 198 159 198 159 223 c 0,81,82
 159 231 159 231 162 240 c 0,83,84
 170 266 170 266 205 266 c 2,85,86
 205 266 205 266 410 266 c 0,87,88
 425 266 425 266 427.5 253.5 c 128,-1,89
 430 241 430 241 430 196 c 2,90,91
 430 196 430 196 430 102 c 0,92,93
 430 75 430 75 366 24 c 0,94,95
 348 9 348 9 348 0 c 2,96,97
 348 0 348 0 348 -61 c 1,98,99
 348 -61 348 -61 61 -61 c 1,100,101
 61 -61 61 -61 61 0 c 0,48,49
328 635 m 0,102,103
 328 666 328 666 369 666 c 256,104,105
 410 666 410 666 410 635 c 0,106,107
 410 461 410 461 410 287 c 1,108,109
 410 287 410 287 328 287 c 1,110,111
 328 461 328 461 328 635 c 0,102,103
EndSplineSet
EndChar

StartChar: j
Encoding: 106 106 53
Width: 512
GlyphClass: 1
Flags: W
LayerCount: 2
Fore
SplineSet
205 266 m 2,0,1
 205 266 205 266 205 240.5 c 128,-1,2
 205 215 205 215 215 200 c 2,3,4
 215 200 215 200 225 184 c 2,5,6
 225 184 225 184 233 173.5 c 128,-1,7
 241 163 241 163 252 148 c 0,8,9
 266 130 266 130 287 102 c 1,10,11
 302 102 302 102 305 113 c 2,12,13
 305 113 305 113 307 123 c 1,14,15
 307 123 307 123 299 133.5 c 128,-1,16
 291 144 291 144 280 159 c 128,-1,17
 269 174 269 174 266 178 c 128,-1,18
 263 182 263 182 246 205 c 1,19,20
 246 205 246 205 348 205 c 1,21,22
 348 205 348 205 369 210 c 0,23,24
 389 215 389 215 389 246 c 0,25,26
 389 256 389 256 389 266 c 1,27,28
 389 266 389 266 471 266 c 1,29,30
 471 217 471 217 450.5 152.5 c 128,-1,31
 430 88 430 88 425 77 c 128,-1,32
 420 66 420 66 389 0 c 1,33,34
 389 0 389 0 389 -61 c 1,35,36
 389 -61 389 -61 102 -61 c 1,37,38
 102 -61 102 -61 102 0 c 0,39,40
 102 2 102 2 92 30 c 0,41,42
 20 230 20 230 20 262 c 0,43,44
 20 312 20 312 30.5 337 c 128,-1,45
 41 362 41 362 51 365 c 2,46,47
 51 365 51 365 61 369 c 1,48,49
 61 369 61 369 328 369 c 1,50,51
 328 369 328 369 348 366 c 256,52,53
 368 363 368 363 369 348 c 2,54,55
 369 348 369 348 369 246 c 0,56,57
 369 230 369 230 358 228 c 0,58,59
 358 225 358 225 246 225 c 0,60,61
 230 225 230 225 230 256 c 256,62,63
 230 287 230 287 246 287 c 2,64,65
 246 287 246 287 287 287 c 0,66,67
 302 287 302 287 287 297 c 0,68,69
 271 307 271 307 287 307 c 1,70,71
 287 307 287 307 272 307.5 c 128,-1,72
 257 308 257 308 246.5 308 c 128,-1,73
 236 308 236 308 225 307 c 0,74,75
 208 307 208 307 206 286 c 2,76,77
 206 286 206 286 205 266 c 2,0,1
492 310 m 0,78,79
 492 277 492 277 440.5 277 c 128,-1,80
 389 277 389 277 389 309 c 2,81,82
 389 309 389 309 389 336.5 c 128,-1,83
 389 364 389 364 399 366 c 2,84,85
 399 366 399 366 410 369 c 2,86,87
 410 369 410 369 471 369 c 0,88,89
 486 369 486 369 489 358 c 2,90,91
 489 358 489 358 492 348 c 2,92,93
 492 348 492 348 492 310 c 0,78,79
102 512 m 0,94,95
 102 543 102 543 120 568.5 c 128,-1,96
 138 594 138 594 184 594 c 2,97,98
 184 594 184 594 307 594 c 0,99,100
 353 594 353 594 381.5 566 c 128,-1,101
 410 538 410 538 410 492 c 2,102,103
 410 492 410 492 410 481.5 c 128,-1,104
 410 471 410 471 411 471 c 1,105,106
 410 440 410 440 369 440 c 256,107,108
 328 440 328 440 328 471 c 128,-1,109
 328 502 328 502 308 507 c 2,110,111
 308 507 308 507 287 512 c 1,112,113
 287 512 287 512 246 512 c 1,114,115
 246 512 246 512 225.5 507 c 128,-1,116
 205 502 205 502 205 466 c 2,117,118
 205 466 205 466 205 389 c 1,119,120
 205 389 205 389 102 389 c 1,121,122
 102 389 102 389 102 512 c 0,94,95
EndSplineSet
EndChar

StartChar: k
Encoding: 107 107 54
Width: 676
GlyphClass: 1
Flags: W
LayerCount: 2
Fore
SplineSet
205 266 m 2,0,1
 205 266 205 266 205 240.5 c 128,-1,2
 205 215 205 215 215 200 c 2,3,4
 215 200 215 200 225 184 c 2,5,6
 225 184 225 184 252 150 c 256,7,8
 279 116 279 116 287 102 c 1,9,10
 302 102 302 102 305 113 c 2,11,12
 305 113 305 113 307 123 c 1,13,14
 307 123 307 123 284 153.5 c 128,-1,15
 261 184 261 184 246 205 c 1,16,17
 246 205 246 205 348 205 c 1,18,19
 348 205 348 205 369 210 c 0,20,21
 389 215 389 215 389 246 c 0,22,23
 389 256 389 256 389 266 c 1,24,25
 389 266 389 266 410 266 c 1,26,27
 410 185 410 185 394 44 c 2,28,29
 394 44 394 44 391.5 22 c 128,-1,30
 389 0 389 0 389 -61 c 1,31,32
 389 -61 389 -61 102 -61 c 1,33,34
 102 -61 102 -61 102 0 c 1,35,36
 100 0 100 0 76 66 c 128,-1,37
 52 132 52 132 36 192 c 128,-1,38
 20 252 20 252 20 282 c 128,-1,39
 20 312 20 312 30.5 337 c 128,-1,40
 41 362 41 362 51 365 c 2,41,42
 51 365 51 365 61 369 c 1,43,44
 61 369 61 369 328 369 c 1,45,46
 328 369 328 369 348 366 c 256,47,48
 368 363 368 363 369 348 c 2,49,50
 369 348 369 348 369 246 c 0,51,52
 369 230 369 230 358 228 c 0,53,54
 358 225 358 225 246 225 c 0,55,56
 230 225 230 225 230 256 c 256,57,58
 230 287 230 287 246 287 c 2,59,60
 246 287 246 287 287 287 c 0,61,62
 302 287 302 287 302 297 c 256,63,64
 302 307 302 307 286 307 c 2,65,66
 286 307 286 307 225 307 c 0,67,68
 208 307 208 307 206 286 c 2,69,70
 206 286 206 286 205 266 c 2,0,1
307 389 m 1,71,72
 307 389 307 389 307 415.5 c 128,-1,73
 307 442 307 442 318 453 c 0,74,75
 331 464 331 464 347 464 c 0,76,77
 410 464 410 464 410 430 c 2,78,79
 410 430 410 430 410 389 c 1,80,81
 410 389 410 389 307 389 c 1,71,72
123 389 m 1,82,83
 123 522 123 522 123 655 c 0,84,85
 123 686 123 686 164 686 c 256,86,87
 205 686 205 686 205 655 c 0,88,89
 205 522 205 522 205 389 c 1,90,91
 205 389 205 389 123 389 c 1,82,83
389 287 m 1,92,93
 389 328 389 328 389 369 c 1,94,95
 389 369 389 369 614 369 c 0,96,97
 645 369 645 369 645 328 c 256,98,99
 645 287 645 287 614 287 c 2,100,101
 614 287 614 287 389 287 c 1,92,93
EndSplineSet
EndChar

StartChar: l
Encoding: 108 108 55
Width: 656
GlyphClass: 1
Flags: W
LayerCount: 2
Fore
SplineSet
410 225 m 0,0,1
 410 205 410 205 429 205 c 0,2,3
 460 205 460 205 554 260 c 0,4,5
 564 266 564 266 573 266 c 0,6,7
 620 266 620 266 627.5 243 c 128,-1,8
 635 220 635 220 635 205 c 1,9,10
 635 205 635 205 598 181 c 0,11,12
 492 112 492 112 420 60 c 128,-1,13
 348 8 348 8 348 0 c 2,14,15
 348 0 348 0 348 -61 c 1,16,17
 348 -61 348 -61 61 -61 c 1,18,19
 61 -61 61 -61 61 0 c 0,20,21
 61 15 61 15 41 51 c 0,22,23
 20 87 20 87 20 102 c 0,24,25
 20 174 20 174 20 246 c 1,26,27
 20 230 20 230 31 228 c 2,28,29
 31 228 31 228 41 225 c 2,30,31
 41 225 41 225 102 225 c 1,32,33
 102 225 102 225 107.5 215 c 128,-1,34
 113 205 113 205 144 205 c 2,35,36
 144 205 144 205 287 205 c 1,37,38
 287 205 287 205 307.5 210 c 128,-1,39
 328 215 328 215 328 246 c 2,40,41
 328 246 328 246 328 635 c 0,42,43
 328 666 328 666 369 666 c 256,44,45
 410 666 410 666 410 635 c 2,46,47
 410 635 410 635 410 225 c 0,0,1
20 369 m 0,48,49
 20 402 20 402 72 402 c 0,50,51
 102 402 102 402 102 389 c 0,52,53
 102 374 102 374 112.5 374 c 128,-1,54
 123 374 123 374 123 389 c 0,55,56
 123 420 123 420 164 420 c 256,57,58
 205 420 205 420 205 389 c 0,59,60
 205 374 205 374 215 374 c 256,61,62
 225 374 225 374 225 389 c 0,63,64
 225 420 225 420 266 420 c 256,65,66
 307 420 307 420 307 389 c 2,67,68
 307 389 307 389 307 246 c 0,69,70
 307 215 307 215 266 215 c 256,71,72
 225 215 225 215 225 246 c 2,73,74
 225 246 225 246 225 309 c 0,75,76
 225 324 225 324 215 323 c 128,-1,77
 205 322 205 322 205 299 c 2,78,79
 205 299 205 299 205 246 c 0,80,81
 205 215 205 215 164 215 c 256,82,83
 123 215 123 215 123 246 c 2,84,85
 123 246 123 246 123 300 c 0,86,87
 123 323 123 323 112.5 323 c 128,-1,88
 102 323 102 323 102 305 c 2,89,90
 102 305 102 305 102 266 c 0,91,92
 102 236 102 236 61 236 c 256,93,94
 20 236 20 236 20 266 c 2,95,96
 20 266 20 266 20 369 c 0,48,49
EndSplineSet
EndChar

StartChar: m
Encoding: 109 109 56
Width: 450
GlyphClass: 1
Flags: W
LayerCount: 2
Fore
SplineSet
205 369 m 2,0,1
 205 369 205 369 205 266 c 0,2,3
 205 236 205 236 164 236 c 256,4,5
 123 236 123 236 123 266 c 2,6,7
 123 266 123 266 123 471 c 0,8,9
 123 502 123 502 164 502 c 256,10,11
 205 502 205 502 205 471 c 0,12,13
 205 456 205 456 215 456 c 256,14,15
 225 456 225 456 225 471 c 0,16,17
 225 502 225 502 266 502 c 256,18,19
 307 502 307 502 307 471 c 0,20,21
 307 456 307 456 317.5 456 c 128,-1,22
 328 456 328 456 328 471 c 0,23,24
 328 502 328 502 369 502 c 256,25,26
 410 502 410 502 410 471 c 2,27,28
 410 471 410 471 410 266 c 0,29,30
 410 236 410 236 369 236 c 256,31,32
 328 236 328 236 328 266 c 2,33,34
 328 266 328 266 328 369 c 0,35,36
 328 384 328 384 317.5 384 c 128,-1,37
 307 384 307 384 307 369 c 2,38,39
 307 369 307 369 307 266 c 0,40,41
 307 236 307 236 266 236 c 256,42,43
 225 236 225 236 225 266 c 2,44,45
 225 266 225 266 225 369 c 0,46,47
 225 384 225 384 215 384 c 256,48,49
 205 384 205 384 205 369 c 2,0,1
41 225 m 1,50,51
 41 225 41 225 60.5 225 c 128,-1,52
 80 225 80 225 97 209.5 c 128,-1,53
 114 194 114 194 129 179 c 256,54,55
 144 164 144 164 171 164 c 2,56,57
 171 164 171 164 234 164 c 128,-1,58
 297 164 297 164 302 159 c 256,59,60
 307 154 307 154 307 123 c 0,61,62
 307 108 307 108 317.5 108 c 128,-1,63
 328 108 328 108 328 123 c 0,64,65
 328 169 328 169 312.5 176.5 c 128,-1,66
 297 184 297 184 292 184 c 2,67,68
 292 184 292 184 164 184 c 0,69,70
 133 184 133 184 128 204 c 2,71,72
 128 204 128 204 123 225 c 1,73,74
 123 225 123 225 410 225 c 1,75,76
 410 225 410 225 420 227.5 c 128,-1,77
 430 230 430 230 430 246 c 1,78,79
 430 246 430 246 430 102 c 0,80,81
 430 75 430 75 366 24 c 0,82,83
 348 9 348 9 348 0 c 2,84,85
 348 0 348 0 348 -61 c 1,86,87
 348 -61 348 -61 61 -61 c 1,88,89
 61 -61 61 -61 61 0 c 0,90,91
 61 15 61 15 41 41 c 0,92,93
 20 67 20 67 20 78 c 0,94,95
 20 162 20 162 20 246 c 1,96,97
 20 233 20 233 31 229 c 2,98,99
 31 229 31 229 41 225 c 1,50,51
20 369 m 0,100,101
 20 402 20 402 72 402 c 0,102,103
 102 402 102 402 102 389 c 2,104,105
 102 389 102 389 102 266 c 0,106,107
 102 236 102 236 61 236 c 256,108,109
 20 236 20 236 20 266 c 2,110,111
 20 266 20 266 20 369 c 0,100,101
EndSplineSet
EndChar

StartChar: n
Encoding: 110 110 57
Width: 450
GlyphClass: 1
Flags: W
LayerCount: 2
Fore
SplineSet
225 471 m 0,0,1
 225 502 225 502 266 502 c 256,2,3
 307 502 307 502 307 471 c 0,4,5
 307 456 307 456 317.5 456 c 128,-1,6
 328 456 328 456 328 471 c 0,7,8
 328 502 328 502 369 502 c 256,9,10
 410 502 410 502 410 471 c 2,11,12
 410 471 410 471 410 266 c 0,13,14
 410 236 410 236 369 236 c 256,15,16
 328 236 328 236 328 266 c 2,17,18
 328 266 328 266 328 369 c 0,19,20
 328 384 328 384 317.5 384 c 128,-1,21
 307 384 307 384 307 369 c 2,22,23
 307 369 307 369 307 266 c 0,24,25
 307 236 307 236 266 236 c 256,26,27
 225 236 225 236 225 266 c 2,28,29
 225 266 225 266 225 471 c 0,0,1
61 0 m 0,30,31
 61 15 61 15 41 41 c 0,32,33
 20 67 20 67 20 78 c 0,34,35
 20 162 20 162 20 246 c 1,36,37
 20 233 20 233 31 229 c 2,38,39
 31 229 31 229 41 225 c 1,40,41
 41 225 41 225 102 225 c 0,42,43
 122 225 122 225 137 210 c 0,44,45
 183 164 183 164 202 164 c 2,46,47
 202 164 202 164 249.5 164 c 128,-1,48
 297 164 297 164 302 159 c 256,49,50
 307 154 307 154 307 123 c 0,51,52
 307 108 307 108 317.5 108 c 128,-1,53
 328 108 328 108 328 123 c 0,54,55
 328 169 328 169 312.5 176.5 c 128,-1,56
 297 184 297 184 292 184 c 2,57,58
 292 184 292 184 242.5 184 c 128,-1,59
 193 184 193 184 184 188 c 0,60,61
 159 198 159 198 159 223 c 0,62,63
 159 231 159 231 162 240 c 0,64,65
 170 266 170 266 205 266 c 1,66,67
 205 251 205 251 217.5 238 c 128,-1,68
 230 225 230 225 246 225 c 2,69,70
 246 225 246 225 410 225 c 1,71,72
 410 225 410 225 412 236 c 0,73,74
 415 246 415 246 430 246 c 1,75,76
 430 246 430 246 430 102 c 0,77,78
 430 75 430 75 366 24 c 0,79,80
 348 9 348 9 348 0 c 2,81,82
 348 0 348 0 348 -61 c 1,83,84
 348 -61 348 -61 61 -61 c 1,85,86
 61 -61 61 -61 61 0 c 0,30,31
20 369 m 0,87,88
 20 402 20 402 72 402 c 0,89,90
 102 402 102 402 102 389 c 0,91,92
 102 374 102 374 112.5 374 c 128,-1,93
 123 374 123 374 123 389 c 0,94,95
 123 420 123 420 164 420 c 256,96,97
 205 420 205 420 205 389 c 0,98,99
 205 338 205 338 205 287 c 1,100,101
 189 287 189 287 166 271.5 c 128,-1,102
 143 256 143 256 143 225 c 1,103,104
 143 225 143 225 133 228.5 c 128,-1,105
 123 232 123 232 123 254 c 2,106,107
 123 254 123 254 123 300 c 0,108,109
 123 323 123 323 112.5 323 c 128,-1,110
 102 323 102 323 102 305 c 2,111,112
 102 305 102 305 102 266 c 0,113,114
 102 236 102 236 61 236 c 256,115,116
 20 236 20 236 20 266 c 2,117,118
 20 266 20 266 20 369 c 0,87,88
EndSplineSet
EndChar

StartChar: o
Encoding: 111 111 58
Width: 451
GlyphClass: 1
Flags: W
LayerCount: 2
Fore
SplineSet
348 0 m 1,0,1
 348 0 348 0 348 -61 c 1,2,3
 348 -61 348 -61 61 -61 c 1,4,5
 61 -61 61 -61 61 0 c 0,6,7
 61 1 61 1 56 34 c 2,8,9
 56 34 56 34 46 100 c 128,-1,10
 36 166 36 166 20 266 c 1,11,12
 20 266 20 266 20 451 c 0,13,14
 20 481 20 481 38 506.5 c 128,-1,15
 56 532 56 532 102 532 c 2,16,17
 102 532 102 532 266 532 c 0,18,19
 312 532 312 532 340.5 504 c 128,-1,20
 369 476 369 476 369 430 c 1,21,22
 369 430 369 430 391.5 428 c 128,-1,23
 414 426 414 426 426 405 c 0,24,25
 430 398 430 398 430 396 c 2,26,27
 430 396 430 396 430 287 c 128,-1,28
 430 178 430 178 369 44 c 2,29,30
 369 44 369 44 348 0 c 1,0,1
164 410 m 0,31,32
 164 328 164 328 164 246 c 0,33,34
 164 215 164 215 174 200 c 2,35,36
 174 200 174 200 184 184 c 2,37,38
 184 184 184 184 192 173.5 c 128,-1,39
 200 163 200 163 212 148 c 0,40,41
 225 130 225 130 246 102 c 1,42,43
 261 102 261 102 264 113 c 2,44,45
 264 113 264 113 266 123 c 1,46,47
 266 123 266 123 258 133.5 c 128,-1,48
 250 144 250 144 239 159 c 128,-1,49
 228 174 228 174 225 178 c 128,-1,50
 222 182 222 182 205 205 c 1,51,52
 205 205 205 205 287 205 c 1,53,54
 287 205 287 205 307.5 212.5 c 128,-1,55
 328 220 328 220 328 258 c 2,56,57
 328 258 328 258 328 389 c 1,58,59
 312 389 312 389 300 392 c 0,60,61
 287 394 287 394 287 410 c 0,62,63
 287 440 287 440 266 445 c 2,64,65
 266 445 266 445 246 451 c 1,66,67
 246 451 246 451 205 451 c 1,68,69
 205 450 205 450 184.5 445 c 128,-1,70
 164 440 164 440 164 410 c 0,31,32
EndSplineSet
EndChar

StartChar: p
Encoding: 112 112 59
Width: 492
GlyphClass: 1
Flags: W
LayerCount: 2
Fore
SplineSet
389 389 m 1,0,1
 389 389 389 389 407.5 350 c 128,-1,2
 426 311 426 311 448.5 240.5 c 128,-1,3
 471 170 471 170 471 147 c 2,4,5
 471 147 471 147 471 69 c 128,-1,6
 471 -9 471 -9 467 -16 c 0,7,8
 456 -36 456 -36 427 -39 c 2,9,10
 427 -39 427 -39 410 -41 c 1,11,12
 410 -87 410 -87 381.5 -115 c 128,-1,13
 353 -143 353 -143 307 -143 c 1,14,15
 307 -143 307 -143 307 -410 c 0,16,17
 307 -440 307 -440 266 -440 c 256,18,19
 225 -440 225 -440 225 -410 c 2,20,21
 225 -410 225 -410 225 -143 c 0,22,23
 225 -128 225 -128 215 -128 c 256,24,25
 205 -128 205 -128 205 -139 c 2,26,27
 205 -139 205 -139 205 -410 c 0,28,29
 205 -440 205 -440 164 -440 c 256,30,31
 123 -440 123 -440 123 -410 c 2,32,33
 123 -410 123 -410 123 -61 c 0,34,35
 123 -46 123 -46 112.5 -46 c 128,-1,36
 102 -46 102 -46 102 -57 c 0,37,38
 102 -223 102 -223 102 -389 c 0,39,40
 102 -420 102 -420 61 -420 c 256,41,42
 20 -420 20 -420 20 -389 c 2,43,44
 20 -389 20 -389 20 123 c 0,45,46
 20 195 20 195 85 347 c 2,47,48
 85 347 85 347 102 389 c 1,49,50
 102 389 102 389 102 451 c 1,51,52
 102 451 102 451 389 451 c 1,53,54
 389 451 389 451 389 389 c 1,0,1
246 -61 m 1,55,56
 246 -61 246 -61 287 -61 c 1,57,58
 287 -61 287 -61 307.5 -56 c 128,-1,59
 328 -51 328 -51 328 -20 c 0,60,61
 328 -5 328 -5 340 -3 c 0,62,63
 353 0 353 0 369 0 c 1,64,65
 369 0 369 0 369 123 c 0,66,67
 369 169 369 169 348 176 c 2,68,69
 348 176 348 176 328 184 c 1,70,71
 328 184 328 184 246 184 c 1,72,73
 246 184 246 184 225.5 179 c 128,-1,74
 205 174 205 174 205 143 c 2,75,76
 205 143 205 143 205 -20 c 0,77,78
 205 -51 205 -51 226 -56 c 2,79,80
 226 -56 226 -56 246 -61 c 1,55,56
EndSplineSet
EndChar

StartChar: q
Encoding: 113 113 60
Width: 573
GlyphClass: 1
Flags: W
LayerCount: 2
Fore
SplineSet
205 266 m 2,0,1
 205 266 205 266 205 240.5 c 128,-1,2
 205 215 205 215 215 200 c 2,3,4
 215 200 215 200 225 184 c 2,5,6
 225 184 225 184 233 173.5 c 128,-1,7
 241 163 241 163 252 148 c 0,8,9
 266 130 266 130 287 102 c 1,10,11
 302 102 302 102 305 113 c 2,12,13
 305 113 305 113 307 123 c 1,14,15
 307 123 307 123 299 133.5 c 128,-1,16
 291 144 291 144 280 159 c 128,-1,17
 269 174 269 174 266 178 c 128,-1,18
 263 182 263 182 246 205 c 1,19,20
 246 205 246 205 348 205 c 1,21,22
 348 205 348 205 369 210 c 0,23,24
 389 215 389 215 389 241 c 2,25,26
 389 241 389 241 389 287 c 1,27,28
 389 287 389 287 397 300 c 0,29,30
 422 340 422 340 425.5 346.5 c 128,-1,31
 429 353 429 353 451 389 c 1,32,33
 451 389 451 389 438 397 c 0,34,35
 419 408 419 408 348 451 c 1,36,37
 333 451 333 451 310 420 c 2,38,39
 310 420 310 420 287 389 c 1,40,41
 287 389 287 389 82 389 c 1,42,43
 82 389 82 389 115 424 c 0,44,45
 183 497 183 497 252 536 c 0,46,47
 282 553 282 553 307 553 c 0,48,49
 321 553 321 553 394 509 c 0,50,51
 430 489 430 489 461 470 c 2,52,53
 461 470 461 470 492 451 c 1,54,55
 507 451 507 451 507 430.5 c 128,-1,56
 507 410 507 410 492 410 c 1,57,58
 538 410 538 410 545.5 387 c 128,-1,59
 553 364 553 364 553 348 c 1,60,61
 553 348 553 348 540 330 c 0,62,63
 492 261 492 261 492 225 c 0,64,65
 492 190 492 190 408 35 c 2,66,67
 408 35 408 35 389 0 c 1,68,69
 389 0 389 0 389 -61 c 1,70,71
 389 -61 389 -61 102 -61 c 1,72,73
 102 -61 102 -61 102 0 c 0,74,75
 102 2 102 2 92 30 c 0,76,77
 20 230 20 230 20 262 c 0,78,79
 20 312 20 312 30.5 337 c 128,-1,80
 41 362 41 362 51 365 c 2,81,82
 51 365 51 365 61 369 c 1,83,84
 61 369 61 369 328 369 c 1,85,86
 328 369 328 369 348 366 c 256,87,88
 368 363 368 363 369 348 c 2,89,90
 369 348 369 348 369 246 c 0,91,92
 369 230 369 230 358 228 c 0,93,94
 358 225 358 225 246 225 c 0,95,96
 230 225 230 225 230 256 c 256,97,98
 230 287 230 287 246 287 c 2,99,100
 246 287 246 287 287 287 c 0,101,102
 302 287 302 287 302 297 c 256,103,104
 302 307 302 307 286 307 c 2,105,106
 286 307 286 307 271.5 307.5 c 128,-1,107
 257 308 257 308 246.5 308 c 128,-1,108
 236 308 236 308 225 307 c 0,109,110
 208 307 208 307 206 286 c 2,111,112
 206 286 206 286 205 266 c 2,0,1
EndSplineSet
EndChar

StartChar: r
Encoding: 114 114 61
Width: 779
GlyphClass: 1
Flags: W
LayerCount: 2
Fore
SplineSet
484 52 m 0,0,1
 484 0 484 0 451 0 c 2,2,3
 451 0 451 0 184 0 c 0,4,5
 169 0 169 0 133 20.5 c 128,-1,6
 97 41 97 41 82 41 c 2,7,8
 82 41 82 41 20 41 c 1,9,10
 20 41 20 41 20 328 c 1,11,12
 20 328 20 328 82 328 c 0,13,14
 94 328 94 328 156 418 c 128,-1,15
 218 508 218 508 235 534.5 c 128,-1,16
 252 561 252 561 287 614 c 1,17,18
 306 614 306 614 327 608.5 c 128,-1,19
 348 603 348 603 348 553 c 0,20,21
 348 533 348 533 333 508 c 0,22,23
 287 431 287 431 287 412.5 c 128,-1,24
 287 394 287 394 297 392 c 0,25,26
 297 389 297 389 322 389 c 2,27,28
 322 389 322 389 717 389 c 0,29,30
 748 389 748 389 748 348 c 256,31,32
 748 307 748 307 717 307 c 2,33,34
 717 307 717 307 471 307 c 0,35,36
 456 307 456 307 458 297 c 0,37,38
 461 287 461 287 471 287 c 0,39,40
 502 287 502 287 502 246 c 256,41,42
 502 205 502 205 471 205 c 0,43,44
 456 205 456 205 456 194.5 c 128,-1,45
 456 184 456 184 471 184 c 0,46,47
 502 184 502 184 502 143 c 256,48,49
 502 102 502 102 471 102 c 0,50,51
 456 102 456 102 456 92 c 256,52,53
 456 82 456 82 471 82 c 0,54,55
 484 82 484 82 484 52 c 0,0,1
EndSplineSet
EndChar

StartChar: s
Encoding: 115 115 62
Width: 574
GlyphClass: 1
Flags: W
LayerCount: 2
Fore
SplineSet
205 287 m 1,0,1
 205 287 205 287 184 282 c 0,2,3
 164 276 164 276 164 245.5 c 128,-1,4
 164 215 164 215 174 200 c 2,5,6
 174 200 174 200 184 184 c 2,7,8
 184 184 184 184 192 173.5 c 128,-1,9
 200 163 200 163 212 148 c 0,10,11
 225 130 225 130 246 102 c 1,12,13
 261 102 261 102 264 113 c 2,14,15
 264 113 264 113 266 123 c 1,16,17
 266 123 266 123 258 133.5 c 128,-1,18
 250 144 250 144 239 159 c 128,-1,19
 228 174 228 174 222 182 c 128,-1,20
 216 190 216 190 200 210 c 128,-1,21
 184 230 184 230 184 246 c 1,22,23
 184 246 184 246 191 258 c 0,24,25
 199 269 199 269 204 259 c 0,26,27
 205 257 205 257 205 246 c 0,28,29
 205 230 205 230 236 228 c 2,30,31
 236 228 236 228 266 225 c 1,32,33
 266 225 266 225 266 266 c 1,34,35
 266 266 266 266 369 266 c 1,36,37
 369 176 369 176 354 44 c 0,38,39
 349 0 349 0 348.5 0 c 128,-1,40
 348 0 348 0 348 -61 c 1,41,42
 348 -61 348 -61 61 -61 c 1,43,44
 61 -61 61 -61 61 0 c 1,45,46
 61 0 61 0 40.5 121 c 128,-1,47
 20 242 20 242 20 266 c 0,48,49
 20 343 20 343 56 366 c 256,50,51
 92 389 92 389 123 389 c 2,52,53
 123 389 123 389 532 389 c 0,54,55
 563 389 563 389 563 348 c 256,56,57
 563 307 563 307 532 307 c 2,58,59
 532 307 532 307 492 307 c 1,60,61
 492 323 492 323 480.5 346 c 128,-1,62
 469 369 469 369 430 369 c 2,63,64
 430 369 430 369 184 369 c 0,65,66
 169 369 169 369 169 358.5 c 128,-1,67
 169 348 169 348 184 348 c 2,68,69
 184 348 184 348 430 348 c 0,70,71
 445 348 445 348 458 335.5 c 128,-1,72
 471 323 471 323 471 307 c 1,73,74
 471 307 471 307 468 297 c 0,75,76
 466 287 466 287 451 287 c 2,77,78
 451 287 451 287 205 287 c 1,0,1
266 410 m 1,79,80
 266 410 266 410 266 444 c 0,81,82
 266 483 266 483 312 485 c 0,83,84
 316 485 316 485 332 482 c 0,85,86
 369 475 369 475 369 451 c 2,87,88
 369 451 369 451 369 410 c 1,89,90
 369 410 369 410 266 410 c 1,79,80
EndSplineSet
EndChar

StartChar: t
Encoding: 116 116 63
Width: 492
GlyphClass: 1
Flags: W
LayerCount: 2
Fore
SplineSet
470 624 m 0,0,1
 463 546 463 546 451 389 c 1,2,3
 451 389 451 389 427.5 409.5 c 128,-1,4
 404 430 404 430 393 430 c 2,5,6
 393 430 393 430 369 430 c 1,7,8
 375 498 375 498 382 567 c 128,-1,9
 389 636 389 636 389 636 c 2,10,11
 389 656 389 656 424 656 c 2,12,13
 424 656 424 656 429 656 c 0,14,15
 470 655 470 655 470 624 c 0,0,1
389 410 m 0,16,17
 413 410 413 410 471 348 c 1,18,19
 471 338 471 338 458 322.5 c 128,-1,20
 445 307 445 307 430 307 c 2,21,22
 430 307 430 307 399 307 c 1,23,24
 399 307 399 307 404.5 320 c 128,-1,25
 410 333 410 333 410 348.5 c 128,-1,26
 410 364 410 364 366 387 c 2,27,28
 366 387 366 387 321 410 c 1,29,30
 321 410 321 410 389 410 c 0,16,17
389 184 m 1,31,32
 368 206 368 206 368 225.5 c 128,-1,33
 368 245 368 245 389 287 c 1,34,35
 389 287 389 287 430 287 c 1,36,37
 430 256 430 256 450.5 217.5 c 128,-1,38
 471 179 471 179 471 161 c 128,-1,39
 471 143 471 143 422 27 c 2,40,41
 422 27 422 27 410 0 c 1,42,43
 410 0 410 0 410 -61 c 1,44,45
 410 -61 410 -61 123 -61 c 1,46,47
 123 -61 123 -61 123 0 c 0,48,49
 123 13 123 13 92 123.5 c 128,-1,50
 61 234 61 234 61 262 c 0,51,52
 61 333 61 333 40.5 448.5 c 128,-1,53
 20 564 20 564 20 573 c 0,54,55
 20 607 20 607 72 607 c 0,56,57
 102 607 102 607 102 594 c 2,58,59
 102 594 102 594 107.5 565 c 128,-1,60
 113 536 113 536 120.5 494 c 128,-1,61
 128 452 128 452 130 441.5 c 128,-1,62
 132 431 132 431 143 369 c 0,63,64
 143 368 143 368 156 375 c 0,65,66
 224 410 224 410 264 410 c 128,-1,67
 304 410 304 410 370 362 c 2,68,69
 370 362 370 362 389 348 c 1,70,71
 389 317 389 317 376.5 312 c 128,-1,72
 364 307 364 307 340.5 307 c 128,-1,73
 317 307 317 307 292 317.5 c 128,-1,74
 267 328 267 328 266 328 c 1,75,76
 266 328 266 328 266 307 c 1,77,78
 308 287 308 287 348 287 c 1,79,80
 348 287 348 287 316 282.5 c 128,-1,81
 284 278 284 278 268 276 c 128,-1,82
 252 274 252 274 214 270 c 128,-1,83
 176 266 176 266 162 266 c 128,-1,84
 148 266 148 266 148 256 c 256,85,86
 148 246 148 246 166 246 c 0,87,88
 242 246 242 246 335 277 c 2,89,90
 335 277 335 277 369 287 c 1,91,92
 369 287 369 287 358.5 269 c 128,-1,93
 348 251 348 251 348 223 c 2,94,95
 348 223 348 223 348 184 c 1,96,97
 348 184 348 184 389 184 c 1,31,32
EndSplineSet
EndChar

StartChar: u
Encoding: 117 117 64
Width: 656
GlyphClass: 1
Flags: W
LayerCount: 2
Fore
SplineSet
225 369 m 0,0,1
 228 374 228 374 228 406 c 128,-1,2
 228 438 228 438 225 655 c 0,3,4
 225 686 225 686 266 686 c 256,5,6
 307 686 307 686 307 655 c 2,7,8
 307 655 307 655 307 369 c 0,9,10
 307 353 307 353 317.5 353 c 128,-1,11
 328 353 328 353 328 364 c 2,12,13
 328 364 328 364 328 635 c 0,14,15
 328 666 328 666 369 666 c 256,16,17
 410 666 410 666 410 635 c 2,18,19
 410 635 410 635 410 266 c 1,20,21
 410 266 410 266 102 266 c 0,22,23
 87 266 87 266 87 256 c 256,24,25
 87 246 87 246 102 246 c 2,26,27
 102 246 102 246 410 246 c 1,28,29
 410 246 410 246 410 205 c 1,30,31
 415 200 415 200 415 192 c 256,32,33
 415 184 415 184 428 184 c 0,34,35
 460 184 460 184 541 233 c 0,36,37
 562 246 562 246 573 246 c 0,38,39
 620 246 620 246 627.5 223.5 c 128,-1,40
 635 201 635 201 635 184 c 1,41,42
 635 184 635 184 598 163 c 0,43,44
 503 109 503 109 425.5 58.5 c 128,-1,45
 348 8 348 8 348 0 c 2,46,47
 348 0 348 0 348 -61 c 1,48,49
 348 -61 348 -61 61 -61 c 1,50,51
 61 -61 61 -61 61 0 c 0,52,53
 61 15 61 15 41 41 c 0,54,55
 20 67 20 67 20 82 c 2,56,57
 20 82 20 82 20 635 c 0,58,59
 20 666 20 666 61 666 c 256,60,61
 102 666 102 666 102 635 c 2,62,63
 102 635 102 635 102 369 c 0,64,65
 102 353 102 353 112.5 353 c 128,-1,66
 123 353 123 353 123 372 c 2,67,68
 123 372 123 372 123 655 c 0,69,70
 123 686 123 686 164 686 c 256,71,72
 205 686 205 686 205 655 c 0,73,74
 205 512 205 512 205 369 c 0,75,76
 205 353 205 353 215 353 c 256,77,78
 225 353 225 353 225 369 c 0,0,1
EndSplineSet
EndChar

StartChar: v
Encoding: 118 118 65
Width: 492
GlyphClass: 1
Flags: W
LayerCount: 2
Fore
SplineSet
20 369 m 0,0,1
 20 402 20 402 72 402 c 0,2,3
 102 402 102 402 102 389 c 0,4,5
 102 374 102 374 112.5 374 c 128,-1,6
 123 374 123 374 123 389 c 0,7,8
 123 420 123 420 164 420 c 256,9,10
 205 420 205 420 205 389 c 0,11,12
 205 338 205 338 205 287 c 1,13,14
 189 287 189 287 166 271.5 c 128,-1,15
 143 256 143 256 143 225 c 1,16,17
 143 225 143 225 133 228.5 c 128,-1,18
 123 232 123 232 123 254 c 2,19,20
 123 254 123 254 123 300 c 0,21,22
 123 323 123 323 112.5 323 c 128,-1,23
 102 323 102 323 102 305 c 2,24,25
 102 305 102 305 102 266 c 0,26,27
 102 236 102 236 61 236 c 256,28,29
 20 236 20 236 20 266 c 2,30,31
 20 266 20 266 20 369 c 0,0,1
61 0 m 0,32,33
 61 15 61 15 41 41 c 0,34,35
 20 67 20 67 20 82 c 2,36,37
 20 82 20 82 20 246 c 1,38,39
 20 230 20 230 31 228 c 0,40,41
 31 225 31 225 102 225 c 0,42,43
 121 225 121 225 138 209.5 c 128,-1,44
 155 194 155 194 170 179 c 256,45,46
 185 164 185 164 205 164 c 2,47,48
 205 164 205 164 251 164 c 128,-1,49
 297 164 297 164 302 159 c 256,50,51
 307 154 307 154 307 123 c 0,52,53
 307 108 307 108 317.5 108 c 128,-1,54
 328 108 328 108 328 123 c 0,55,56
 328 169 328 169 312.5 176.5 c 128,-1,57
 297 184 297 184 292 184 c 2,58,59
 292 184 292 184 242.5 184 c 128,-1,60
 193 184 193 184 184 188 c 0,61,62
 159 198 159 198 159 223 c 0,63,64
 159 231 159 231 162 240 c 0,65,66
 170 266 170 266 205 266 c 2,67,68
 205 266 205 266 410 266 c 0,69,70
 425 266 425 266 427.5 253.5 c 128,-1,71
 430 241 430 241 430 196 c 2,72,73
 430 196 430 196 430 102 c 0,74,75
 430 75 430 75 366 24 c 0,76,77
 348 9 348 9 348 0 c 2,78,79
 348 0 348 0 348 -61 c 1,80,81
 348 -61 348 -61 61 -61 c 1,82,83
 61 -61 61 -61 61 0 c 0,32,33
164 635 m 1,84,85
 164 669 164 669 215 669 c 0,86,87
 246 669 246 669 246 655 c 2,88,89
 246 655 246 655 254 620.5 c 128,-1,90
 262 586 262 586 273 537 c 128,-1,91
 284 488 284 488 287 475.5 c 128,-1,92
 290 463 290 463 307 389 c 0,93,94
 307 374 307 374 317.5 374 c 128,-1,95
 328 374 328 374 328 389 c 2,96,97
 328 389 328 389 336 420.5 c 128,-1,98
 344 452 344 452 355 498 c 128,-1,99
 366 544 366 544 369 555.5 c 128,-1,100
 372 567 372 567 389 635 c 0,101,102
 389 648 389 648 419 648 c 0,103,104
 471 648 471 648 471 614 c 1,105,106
 471 614 471 614 463 572 c 256,107,108
 455 530 455 530 448 491 c 128,-1,109
 441 452 441 452 431.5 402 c 128,-1,110
 422 352 422 352 410 287 c 1,111,112
 410 287 410 287 225 287 c 1,113,114
 225 338 225 338 225 389 c 1,115,116
 225 389 225 389 222.5 409.5 c 128,-1,117
 220 430 220 430 205 430 c 1,118,119
 205 430 205 430 199.5 456.5 c 128,-1,120
 194 483 194 483 186.5 521 c 128,-1,121
 179 559 179 559 175 578 c 128,-1,122
 171 597 171 597 164 635 c 1,84,85
EndSplineSet
EndChar

StartChar: w
Encoding: 119 119 66
Width: 492
GlyphClass: 1
Flags: W
LayerCount: 2
Fore
SplineSet
20 369 m 0,0,1
 20 402 20 402 72 402 c 0,2,3
 102 402 102 402 102 389 c 2,4,5
 102 389 102 389 102 266 c 0,6,7
 102 236 102 236 61 236 c 256,8,9
 20 236 20 236 20 266 c 2,10,11
 20 266 20 266 20 369 c 0,0,1
61 0 m 0,12,13
 61 15 61 15 41 41 c 0,14,15
 20 67 20 67 20 82 c 2,16,17
 20 82 20 82 20 246 c 1,18,19
 20 230 20 230 31 228 c 2,20,21
 31 228 31 228 41 225 c 2,22,23
 41 225 41 225 69 225 c 128,-1,24
 97 225 97 225 110 234.5 c 128,-1,25
 123 244 123 244 123 266 c 1,26,27
 123 266 123 266 164 266 c 1,28,29
 148 266 148 266 142.5 248 c 128,-1,30
 137 230 137 230 143 225 c 1,31,32
 143 210 143 210 162.5 187 c 128,-1,33
 182 164 182 164 204 164 c 2,34,35
 204 164 204 164 250.5 164 c 128,-1,36
 297 164 297 164 302 159 c 256,37,38
 307 154 307 154 307 123 c 0,39,40
 307 108 307 108 317.5 108 c 128,-1,41
 328 108 328 108 328 123 c 0,42,43
 328 169 328 169 312.5 176.5 c 128,-1,44
 297 184 297 184 292 184 c 2,45,46
 292 184 292 184 242.5 184 c 128,-1,47
 193 184 193 184 184 188 c 0,48,49
 159 198 159 198 159 223 c 0,50,51
 159 231 159 231 162 240 c 0,52,53
 170 266 170 266 205 266 c 2,54,55
 205 266 205 266 410 266 c 0,56,57
 425 266 425 266 427.5 253.5 c 128,-1,58
 430 241 430 241 430 196 c 2,59,60
 430 196 430 196 430 102 c 0,61,62
 430 75 430 75 366 24 c 0,63,64
 348 9 348 9 348 0 c 2,65,66
 348 0 348 0 348 -61 c 1,67,68
 348 -61 348 -61 61 -61 c 1,69,70
 61 -61 61 -61 61 0 c 0,12,13
61 635 m 1,71,72
 61 669 61 669 112 669 c 0,73,74
 143 669 143 669 143 655 c 2,75,76
 143 655 143 655 151 620.5 c 128,-1,77
 159 586 159 586 170.5 537 c 128,-1,78
 182 488 182 488 185 475.5 c 128,-1,79
 188 463 188 463 205 389 c 0,80,81
 205 374 205 374 215 374 c 256,82,83
 225 374 225 374 225 389 c 0,84,85
 225 522 225 522 225 655 c 0,86,87
 225 686 225 686 266 686 c 256,88,89
 307 686 307 686 307 655 c 0,90,91
 307 522 307 522 307 389 c 0,92,93
 307 374 307 374 317.5 374 c 128,-1,94
 328 374 328 374 328 389 c 2,95,96
 328 389 328 389 336 423.5 c 128,-1,97
 344 458 344 458 355 507.5 c 128,-1,98
 366 557 366 557 369 569.5 c 128,-1,99
 372 582 372 582 389 655 c 0,100,101
 389 669 389 669 420 669 c 0,102,103
 471 669 471 669 471 635 c 1,104,105
 471 635 471 635 463 590 c 256,106,107
 455 545 455 545 448 503.5 c 128,-1,108
 441 462 441 462 436.5 437 c 128,-1,109
 432 412 432 412 426 379 c 128,-1,110
 420 346 420 346 419 338.5 c 128,-1,111
 418 331 418 331 410 287 c 1,112,113
 410 287 410 287 123 287 c 1,114,115
 123 338 123 338 123 389 c 1,116,117
 123 389 123 389 115 420.5 c 128,-1,118
 107 452 107 452 85 543.5 c 128,-1,119
 63 635 63 635 61 635 c 1,71,72
EndSplineSet
EndChar

StartChar: x
Encoding: 120 120 67
Width: 451
GlyphClass: 1
Flags: W
LayerCount: 2
Fore
SplineSet
20 369 m 0,0,1
 20 402 20 402 72 402 c 0,2,3
 102 402 102 402 102 389 c 0,4,5
 102 374 102 374 112.5 374 c 128,-1,6
 123 374 123 374 123 389 c 0,7,8
 123 420 123 420 164 420 c 256,9,10
 205 420 205 420 205 389 c 0,11,12
 205 338 205 338 205 287 c 1,13,14
 189 287 189 287 166 271.5 c 128,-1,15
 143 256 143 256 143 225 c 1,16,17
 143 225 143 225 133 228.5 c 128,-1,18
 123 232 123 232 123 254 c 2,19,20
 123 254 123 254 123 300 c 0,21,22
 123 323 123 323 112.5 323 c 128,-1,23
 102 323 102 323 102 305 c 2,24,25
 102 305 102 305 102 266 c 0,26,27
 102 236 102 236 61 236 c 256,28,29
 20 236 20 236 20 266 c 2,30,31
 20 266 20 266 20 369 c 0,0,1
61 0 m 0,32,33
 61 15 61 15 41 41 c 0,34,35
 20 67 20 67 20 82 c 2,36,37
 20 82 20 82 20 246 c 1,38,39
 20 230 20 230 31 228 c 0,40,41
 31 225 31 225 102 225 c 0,42,43
 121 225 121 225 138 209.5 c 128,-1,44
 155 194 155 194 170 179 c 256,45,46
 185 164 185 164 205 164 c 2,47,48
 205 164 205 164 251 164 c 128,-1,49
 297 164 297 164 302 159 c 256,50,51
 307 154 307 154 307 123 c 0,52,53
 307 108 307 108 317.5 108 c 128,-1,54
 328 108 328 108 328 123 c 0,55,56
 328 169 328 169 312.5 176.5 c 128,-1,57
 297 184 297 184 292 184 c 2,58,59
 292 184 292 184 242.5 184 c 128,-1,60
 193 184 193 184 184 188 c 0,61,62
 159 198 159 198 159 223 c 0,63,64
 159 231 159 231 162 240 c 0,65,66
 170 266 170 266 205 266 c 2,67,68
 205 266 205 266 410 266 c 0,69,70
 425 266 425 266 427.5 253.5 c 128,-1,71
 430 241 430 241 430 196 c 2,72,73
 430 196 430 196 430 102 c 0,74,75
 430 75 430 75 366 24 c 0,76,77
 348 9 348 9 348 0 c 2,78,79
 348 0 348 0 348 -61 c 1,80,81
 348 -61 348 -61 61 -61 c 1,82,83
 61 -61 61 -61 61 0 c 0,32,33
205 635 m 1,84,85
 205 669 205 669 256 669 c 0,86,87
 287 669 287 669 287 655 c 1,88,89
 287 655 287 655 326 587 c 128,-1,90
 365 519 365 519 397 430 c 0,91,92
 410 394 410 394 410 361 c 2,93,94
 410 361 410 361 410 287 c 1,95,96
 410 287 410 287 225 287 c 1,97,98
 225 338 225 338 225 389 c 1,99,100
 225 389 225 389 228 405 c 256,101,102
 231 421 231 421 234.5 443.5 c 128,-1,103
 238 466 238 466 242 489 c 2,104,105
 242 489 242 489 246 512 c 1,106,107
 246 512 246 512 265 473.5 c 128,-1,108
 284 435 284 435 287 429.5 c 128,-1,109
 290 424 290 424 307 389 c 1,110,111
 307 374 307 374 317.5 374 c 128,-1,112
 328 374 328 374 328 389 c 1,113,114
 328 389 328 389 205 635 c 1,84,85
389 635 m 1,115,116
 389 635 389 635 386.5 622 c 128,-1,117
 384 609 384 609 380 590 c 0,118,119
 374 564 374 564 369 532 c 1,120,121
 369 532 369 532 344 582 c 128,-1,122
 319 632 319 632 307 655 c 1,123,124
 307 669 307 669 338 669 c 0,125,126
 389 669 389 669 389 635 c 1,115,116
EndSplineSet
EndChar

StartChar: y
Encoding: 121 121 68
Width: 717
GlyphClass: 1
Flags: W
LayerCount: 2
Fore
SplineSet
123 0 m 0,0,1
 123 13 123 13 102.5 50 c 128,-1,2
 82 87 82 87 82 89 c 2,3,4
 82 89 82 89 82 348 c 0,5,6
 82 398 82 398 34 553 c 1,7,8
 34 553 34 553 20 594 c 1,9,10
 21 624 21 624 62 627 c 2,11,12
 62 627 62 627 74 627 c 0,13,14
 102 627 102 627 102 614 c 2,15,16
 102 614 102 614 110 585 c 256,17,18
 118 556 118 556 129.5 514 c 128,-1,19
 141 472 141 472 144 461.5 c 128,-1,20
 147 451 147 451 164 389 c 1,21,22
 164 389 164 389 164 246 c 1,23,24
 164 246 164 246 169 225.5 c 128,-1,25
 174 205 174 205 205 205 c 2,26,27
 205 205 205 205 492 205 c 0,28,29
 518 205 518 205 587 245 c 1,30,31
 587 245 587 245 608 255.5 c 128,-1,32
 629 266 629 266 635 266 c 0,33,34
 681 266 681 266 688.5 243 c 128,-1,35
 696 220 696 220 696 205 c 1,36,37
 696 205 696 205 659 181 c 0,38,39
 563 119 563 119 486.5 63.5 c 128,-1,40
 410 8 410 8 410 0 c 2,41,42
 410 0 410 0 410 -61 c 1,43,44
 410 -61 410 -61 123 -61 c 1,45,46
 123 -61 123 -61 123 0 c 0,0,1
369 389 m 0,47,48
 369 374 369 374 379 374 c 256,49,50
 389 374 389 374 389 389 c 0,51,52
 389 420 389 420 430 420 c 256,53,54
 471 420 471 420 471 389 c 2,55,56
 471 389 471 389 471 246 c 0,57,58
 471 215 471 215 430 215 c 256,59,60
 389 215 389 215 389 246 c 2,61,62
 389 246 389 246 389 300 c 0,63,64
 389 323 389 323 379 323 c 256,65,66
 369 323 369 323 369 300 c 2,67,68
 369 300 369 300 369 246 c 0,69,70
 369 215 369 215 328 215 c 256,71,72
 287 215 287 215 287 246 c 2,73,74
 287 246 287 246 287 309 c 0,75,76
 286 324 286 324 276 323 c 128,-1,77
 266 322 266 322 266 299 c 2,78,79
 266 299 266 299 266 246 c 0,80,81
 266 215 266 215 225 215 c 256,82,83
 184 215 184 215 184 246 c 2,84,85
 184 246 184 246 184 389 c 0,86,87
 184 420 184 420 225 420 c 256,88,89
 266 420 266 420 266 389 c 0,90,91
 266 374 266 374 276.5 374 c 128,-1,92
 287 374 287 374 287 389 c 0,93,94
 287 420 287 420 328 420 c 256,95,96
 369 420 369 420 369 389 c 0,47,48
EndSplineSet
EndChar

StartChar: z
Encoding: 122 122 69
Width: 778
GlyphClass: 1
Flags: W
LayerCount: 2
Fore
SplineSet
20 328 m 1,0,1
 20 328 20 328 82 328 c 0,2,3
 91 328 91 328 105.5 345.5 c 128,-1,4
 120 363 120 363 136 381 c 0,5,6
 165 410 165 410 184 410 c 2,7,8
 184 410 184 410 253.5 410 c 128,-1,9
 323 410 323 410 335.5 407 c 128,-1,10
 348 404 348 404 348 389 c 1,11,12
 348 389 348 389 717 389 c 0,13,14
 748 389 748 389 748 348 c 256,15,16
 748 307 748 307 717 307 c 2,17,18
 717 307 717 307 471 307 c 0,19,20
 456 307 456 307 456 297 c 256,21,22
 456 287 456 287 471 287 c 0,23,24
 502 287 502 287 502 246 c 256,25,26
 502 205 502 205 471 205 c 0,27,28
 456 205 456 205 456 194.5 c 128,-1,29
 456 184 456 184 471 184 c 0,30,31
 502 184 502 184 502 143 c 256,32,33
 502 102 502 102 471 102 c 0,34,35
 456 102 456 102 456 92 c 256,36,37
 456 82 456 82 471 82 c 2,38,39
 471 82 471 82 717 82 c 0,40,41
 748 82 748 82 744 41 c 256,42,43
 740 0 740 0 717 0 c 2,44,45
 717 0 717 0 184 0 c 0,46,47
 169 0 169 0 133 20.5 c 128,-1,48
 97 41 97 41 82 41 c 2,49,50
 82 41 82 41 20 41 c 1,51,52
 20 41 20 41 20 328 c 1,0,1
EndSplineSet
EndChar

StartChar: trema
Encoding: 168 168 70
Width: 246
GlyphClass: 1
Flags: W
LayerCount: 2
Fore
SplineSet
26 655 m 0,0,1
 31 676 31 676 61.5 676 c 128,-1,2
 92 676 92 676 97 656 c 2,3,4
 97 656 97 656 102 635 c 1,5,6
 102 635 102 635 97 614.5 c 128,-1,7
 92 594 92 594 61.5 594 c 128,-1,8
 31 594 31 594 26 614 c 2,9,10
 26 614 26 614 20 635 c 1,11,12
 20 635 20 635 26 655 c 0,0,1
143 635 m 1,13,14
 143 635 143 635 148.5 655.5 c 128,-1,15
 154 676 154 676 184.5 676 c 128,-1,16
 215 676 215 676 220 656 c 2,17,18
 220 656 220 656 225 635 c 1,19,20
 225 635 225 635 220 614.5 c 128,-1,21
 215 594 215 594 184.5 594 c 128,-1,22
 154 594 154 594 148 614 c 2,23,24
 148 614 148 614 143 635 c 1,13,14
EndSplineSet
EndChar

StartChar: EA
Encoding: 202 202 71
Width: 451
GlyphClass: 1
Flags: W
LayerCount: 2
Fore
SplineSet
61 -61 m 1,0,1
 61 -61 61 -61 61 0 c 0,2,3
 61 17 61 17 40.5 52 c 128,-1,4
 20 87 20 87 20 90 c 2,5,6
 20 90 20 90 20 655 c 0,7,8
 20 686 20 686 61 686 c 256,9,10
 102 686 102 686 102 655 c 2,11,12
 102 655 102 655 102 389 c 0,13,14
 102 374 102 374 112.5 374 c 128,-1,15
 123 374 123 374 123 389 c 2,16,17
 123 389 123 389 123 655 c 0,18,19
 123 686 123 686 164 686 c 256,20,21
 205 686 205 686 205 655 c 2,22,23
 205 655 205 655 205 389 c 0,24,25
 205 374 205 374 215 374 c 256,26,27
 225 374 225 374 225 389 c 2,28,29
 225 389 225 389 225 655 c 0,30,31
 225 686 225 686 266 686 c 256,32,33
 307 686 307 686 307 655 c 2,34,35
 307 655 307 655 307 389 c 0,36,37
 307 374 307 374 317.5 374 c 128,-1,38
 328 374 328 374 328 389 c 0,39,40
 328 420 328 420 369 420 c 256,41,42
 410 420 410 420 410 389 c 2,43,44
 410 389 410 389 410 266 c 1,45,46
 425 266 425 266 427.5 253.5 c 128,-1,47
 430 241 430 241 430 196 c 2,48,49
 430 196 430 196 430 102 c 0,50,51
 430 75 430 75 366 24 c 0,52,53
 348 9 348 9 348 0 c 2,54,55
 348 0 348 0 348 -61 c 1,56,57
 348 -61 348 -61 61 -61 c 1,0,1
430 573 m 1,58,59
 430 573 430 573 328 471 c 1,60,61
 328 471 328 471 328 532 c 1,62,63
 328 532 328 532 343 547.5 c 128,-1,64
 358 563 358 563 369 573 c 1,65,66
 369 573 369 573 328 614 c 1,67,68
 328 614 328 614 328 676 c 1,69,70
 362 642 362 642 430 573 c 1,58,59
EndSplineSet
EndChar

StartChar: YU
Encoding: 220 220 72
Width: 656
GlyphClass: 1
Flags: W
LayerCount: 2
Fore
SplineSet
225 389 m 0,0,1
 228 394 228 394 228 426.5 c 128,-1,2
 228 459 228 459 225 655 c 0,3,4
 225 686 225 686 266 686 c 256,5,6
 307 686 307 686 307 655 c 2,7,8
 307 655 307 655 307 389 c 0,9,10
 307 374 307 374 317.5 374 c 128,-1,11
 328 374 328 374 328 385 c 0,12,13
 328 520 328 520 328 655 c 0,14,15
 328 686 328 686 369 686 c 256,16,17
 410 686 410 686 410 655 c 2,18,19
 410 655 410 655 410 287 c 1,20,21
 410 287 410 287 102 287 c 0,22,23
 87 287 87 287 87 276.5 c 128,-1,24
 87 266 87 266 102 266 c 2,25,26
 102 266 102 266 410 266 c 1,27,28
 410 266 410 266 410 225 c 1,29,30
 415 220 415 220 415 212.5 c 128,-1,31
 415 205 415 205 428 205 c 0,32,33
 456 205 456 205 541 253 c 0,34,35
 564 266 564 266 573 266 c 0,36,37
 620 266 620 266 627.5 244 c 128,-1,38
 635 222 635 222 635 205 c 1,39,40
 635 205 635 205 598 181 c 0,41,42
 492 112 492 112 420 60 c 128,-1,43
 348 8 348 8 348 0 c 2,44,45
 348 0 348 0 348 -61 c 1,46,47
 348 -61 348 -61 61 -61 c 1,48,49
 61 -61 61 -61 61 0 c 0,50,51
 61 17 61 17 40.5 52 c 128,-1,52
 20 87 20 87 20 90 c 2,53,54
 20 90 20 90 20 655 c 0,55,56
 20 686 20 686 61 686 c 256,57,58
 102 686 102 686 102 655 c 2,59,60
 102 655 102 655 102 389 c 0,61,62
 102 374 102 374 112.5 374 c 128,-1,63
 123 374 123 374 123 392 c 2,64,65
 123 392 123 392 123 655 c 0,66,67
 123 686 123 686 164 686 c 256,68,69
 205 686 205 686 205 655 c 0,70,71
 205 522 205 522 205 389 c 0,72,73
 205 374 205 374 215 374 c 256,74,75
 225 374 225 374 225 389 c 0,0,1
471 676 m 256,76,77
 502 676 502 676 507 656 c 2,78,79
 507 656 507 656 512 635 c 1,80,81
 512 635 512 635 507 614.5 c 128,-1,82
 502 594 502 594 471 594 c 256,83,84
 440 594 440 594 435 614 c 2,85,86
 435 614 435 614 430 635 c 1,87,88
 430 635 430 635 435 655.5 c 128,-1,89
 440 676 440 676 471 676 c 256,76,77
471 553 m 256,90,91
 502 553 502 553 507 532 c 2,92,93
 507 532 507 532 512 512 c 1,94,95
 512 512 512 512 507 491.5 c 128,-1,96
 502 471 502 471 471 471 c 256,97,98
 440 471 440 471 435 492 c 2,99,100
 435 492 435 492 430 512 c 1,101,102
 430 512 430 512 435 532.5 c 128,-1,103
 440 553 440 553 471 553 c 256,90,91
EndSplineSet
EndChar

StartChar: ea
Encoding: 234 234 73
Width: 799
GlyphClass: 1
Flags: W
LayerCount: 2
Fore
SplineSet
20 328 m 1,0,1
 20 328 20 328 82 328 c 0,2,3
 91 328 91 328 105.5 345.5 c 128,-1,4
 120 363 120 363 136 381 c 0,5,6
 165 410 165 410 184 410 c 2,7,8
 184 410 184 410 253.5 410 c 128,-1,9
 323 410 323 410 335.5 407 c 128,-1,10
 348 404 348 404 348 389 c 1,11,12
 348 389 348 389 471 389 c 0,13,14
 502 389 502 389 502 348 c 256,15,16
 502 307 502 307 471 307 c 0,17,18
 456 307 456 307 456 297 c 256,19,20
 456 287 456 287 468 287 c 2,21,22
 468 287 468 287 737 287 c 0,23,24
 768 287 768 287 768 246 c 256,25,26
 768 205 768 205 737 205 c 2,27,28
 737 205 737 205 471 205 c 0,29,30
 456 205 456 205 456 194.5 c 128,-1,31
 456 184 456 184 471 184 c 2,32,33
 471 184 471 184 737 184 c 0,34,35
 768 184 768 184 768 143 c 256,36,37
 768 102 768 102 737 102 c 2,38,39
 737 102 737 102 471 102 c 0,40,41
 456 102 456 102 456 92 c 256,42,43
 456 82 456 82 471 82 c 2,44,45
 471 82 471 82 717 82 c 0,46,47
 748 82 748 82 748 41 c 256,48,49
 748 0 748 0 717 0 c 2,50,51
 717 0 717 0 184 0 c 0,52,53
 169 0 169 0 133 20.5 c 128,-1,54
 97 41 97 41 82 41 c 2,55,56
 82 41 82 41 20 41 c 1,57,58
 20 41 20 41 20 328 c 1,0,1
184 430 m 1,59,60
 200 430 200 430 225.5 471 c 128,-1,61
 251 512 251 512 266 512 c 2,62,63
 266 512 266 512 307 512 c 0,64,65
 323 512 323 512 338 481.5 c 128,-1,66
 353 451 353 451 368.5 451 c 128,-1,67
 384 451 384 451 399.5 481.5 c 128,-1,68
 415 512 415 512 430 512 c 1,69,70
 430 512 430 512 389 512 c 1,71,72
 389 512 389 512 451 573 c 1,73,74
 451 573 451 573 512 512 c 1,75,76
 512 512 512 512 471 512 c 0,77,78
 456 512 456 512 430 471 c 256,79,80
 404 430 404 430 389 430 c 2,81,82
 389 430 389 430 348 430 c 0,83,84
 333 430 333 430 317 461 c 0,85,86
 302 492 302 492 286.5 492 c 128,-1,87
 271 492 271 492 256 461 c 256,88,89
 241 430 241 430 225 430 c 2,90,91
 225 430 225 430 184 430 c 1,59,60
EndSplineSet
EndChar

StartChar: yu
Encoding: 252 252 74
Width: 656
GlyphClass: 1
Flags: W
LayerCount: 2
Fore
SplineSet
410 655 m 2,0,1
 410 655 410 655 409.5 543 c 128,-1,2
 409 431 409 431 409 408.5 c 128,-1,3
 409 386 409 386 410 287 c 1,4,5
 410 287 410 287 102 287 c 0,6,7
 87 287 87 287 87 276.5 c 128,-1,8
 87 266 87 266 102 266 c 2,9,10
 102 266 102 266 410 266 c 1,11,12
 410 266 410 266 410 225 c 1,13,14
 415 220 415 220 415 212.5 c 128,-1,15
 415 205 415 205 428 205 c 0,16,17
 456 205 456 205 541 253 c 0,18,19
 564 266 564 266 573 266 c 0,20,21
 620 266 620 266 627.5 244 c 128,-1,22
 635 222 635 222 635 205 c 1,23,24
 635 205 635 205 598 181 c 0,25,26
 492 112 492 112 420 60 c 128,-1,27
 348 8 348 8 348 0 c 2,28,29
 348 0 348 0 348 -61 c 1,30,31
 348 -61 348 -61 61 -61 c 1,32,33
 61 -61 61 -61 61 0 c 0,34,35
 61 17 61 17 40.5 52 c 128,-1,36
 20 87 20 87 20 90 c 2,37,38
 20 90 20 90 20 655 c 0,39,40
 20 686 20 686 61 686 c 256,41,42
 102 686 102 686 102 655 c 2,43,44
 102 655 102 655 102 389 c 0,45,46
 102 374 102 374 112.5 374 c 128,-1,47
 123 374 123 374 123 392 c 2,48,49
 123 392 123 392 123 676 c 0,50,51
 123 707 123 707 164 707 c 256,52,53
 205 707 205 707 205 676 c 2,54,55
 205 676 205 676 205 389 c 0,56,57
 205 374 205 374 215 374 c 256,58,59
 225 374 225 374 225 389 c 0,60,61
 228 394 228 394 228 426 c 128,-1,62
 228 458 228 458 225 676 c 0,63,64
 225 707 225 707 266 707 c 256,65,66
 307 707 307 707 307 676 c 2,67,68
 307 676 307 676 307 389 c 0,69,70
 307 374 307 374 317.5 374 c 128,-1,71
 328 374 328 374 328 385 c 0,72,73
 328 520 328 520 328 655 c 0,74,75
 328 686 328 686 369 686 c 256,76,77
 410 686 410 686 410 655 c 2,0,1
430 676 m 1,78,79
 430 660 430 660 471 634.5 c 128,-1,80
 512 609 512 609 512 594 c 2,81,82
 512 594 512 594 512 553 c 0,83,84
 512 538 512 538 481.5 522.5 c 128,-1,85
 451 507 451 507 451 491.5 c 128,-1,86
 451 476 451 476 481.5 460.5 c 128,-1,87
 512 445 512 445 512 430 c 1,88,89
 512 430 512 430 512 471 c 1,90,91
 512 471 512 471 573 410 c 1,92,93
 573 410 573 410 550 387 c 256,94,95
 527 364 527 364 512 348 c 1,96,97
 512 348 512 348 512 389 c 0,98,99
 512 404 512 404 471 430 c 256,100,101
 430 456 430 456 430 471 c 2,102,103
 430 471 430 471 430 509 c 0,104,105
 430 527 430 527 461 542.5 c 128,-1,106
 492 558 492 558 492 573.5 c 128,-1,107
 492 589 492 589 461 604.5 c 128,-1,108
 430 620 430 620 430 634 c 2,109,110
 430 634 430 634 430 676 c 1,78,79
EndSplineSet
EndChar

StartChar: ch
Encoding: 265 265 75
Width: 594
GlyphClass: 1
Flags: W
LayerCount: 2
Fore
SplineSet
126 423 m 0,0,1
 211 471 211 471 243 471 c 2,2,3
 243 471 243 471 532 471 c 0,4,5
 563 471 563 471 563 430 c 256,6,7
 563 389 563 389 532 389 c 2,8,9
 532 389 532 389 512 389 c 1,10,11
 512 389 512 389 522 384 c 256,12,13
 532 379 532 379 532 348 c 0,14,15
 532 346 532 346 524 329 c 0,16,17
 492 259 492 259 492 232 c 128,-1,18
 492 205 492 205 459.5 137 c 128,-1,19
 427 69 427 69 408 35 c 2,20,21
 408 35 408 35 389 0 c 1,22,23
 389 0 389 0 389 -61 c 1,24,25
 389 -61 389 -61 102 -61 c 1,26,27
 102 -61 102 -61 102 0 c 0,28,29
 102 2 102 2 92 30 c 0,30,31
 20 230 20 230 20 262 c 0,32,33
 20 314 20 314 41 348 c 128,-1,34
 62 382 62 382 82 396 c 2,35,36
 82 396 82 396 102 410 c 2,37,38
 102 410 102 410 126 423 c 0,0,1
451 389 m 1,39,40
 451 389 451 389 284 389 c 0,41,42
 280 389 280 389 257 363.5 c 128,-1,43
 234 338 234 338 200 281 c 0,44,45
 184 254 184 254 184 246 c 0,46,47
 184 215 184 215 195 200 c 2,48,49
 195 200 195 200 205 184 c 2,50,51
 205 184 205 184 213 173.5 c 128,-1,52
 221 163 221 163 232 148 c 128,-1,53
 243 133 243 133 246 129 c 128,-1,54
 249 125 249 125 266 102 c 1,55,56
 282 102 282 102 284 113 c 2,57,58
 284 113 284 113 287 123 c 1,59,60
 287 123 287 123 279 133.5 c 128,-1,61
 271 144 271 144 259.5 159 c 128,-1,62
 248 174 248 174 242 182 c 128,-1,63
 236 190 236 190 220.5 210 c 128,-1,64
 205 230 205 230 205 246 c 1,65,66
 205 246 205 246 215 271.5 c 128,-1,67
 225 297 225 297 225 266 c 0,68,69
 225 255 225 255 240 240 c 128,-1,70
 255 225 255 225 292 215 c 2,71,72
 292 215 292 215 328 205 c 1,73,74
 328 205 328 205 348 239 c 0,75,76
 434 389 434 389 451 389 c 1,39,40
EndSplineSet
EndChar

StartChar: ng
Encoding: 331 331 76
Width: 779
GlyphClass: 1
Flags: W
LayerCount: 2
Fore
SplineSet
20 328 m 1,0,1
 20 328 20 328 82 328 c 0,2,3
 91 328 91 328 105.5 345.5 c 128,-1,4
 120 363 120 363 136 381 c 0,5,6
 165 410 165 410 184 410 c 2,7,8
 184 410 184 410 253.5 410 c 128,-1,9
 323 410 323 410 335.5 407 c 128,-1,10
 348 404 348 404 348 389 c 1,11,12
 348 389 348 389 471 389 c 0,13,14
 502 389 502 389 502 348 c 256,15,16
 502 307 502 307 471 307 c 0,17,18
 456 307 456 307 456 297 c 256,19,20
 456 287 456 287 471 287 c 0,21,22
 502 287 502 287 502 246 c 256,23,24
 502 205 502 205 471 205 c 0,25,26
 456 205 456 205 456 194.5 c 128,-1,27
 456 184 456 184 471 184 c 0,28,29
 502 184 502 184 502 143 c 256,30,31
 502 102 502 102 471 102 c 0,32,33
 456 102 456 102 456 92 c 256,34,35
 456 82 456 82 471 82 c 2,36,37
 471 82 471 82 717 82 c 0,38,39
 748 82 748 82 748 41 c 256,40,41
 748 0 748 0 717 0 c 2,42,43
 717 0 717 0 184 0 c 0,44,45
 169 0 169 0 133 20.5 c 128,-1,46
 97 41 97 41 82 41 c 2,47,48
 82 41 82 41 20 41 c 1,49,50
 20 41 20 41 20 328 c 1,0,1
EndSplineSet
EndChar

StartChar: sh
Encoding: 349 349 77
Width: 635
GlyphClass: 1
Flags: W
LayerCount: 2
Fore
SplineSet
307 410 m 1,0,1
 307 410 307 410 307 444 c 0,2,3
 307 483 307 483 353 485 c 0,4,5
 357 485 357 485 373 482 c 0,6,7
 410 475 410 475 410 451 c 2,8,9
 410 451 410 451 410 410 c 1,10,11
 410 410 410 410 307 410 c 1,0,1
369 328 m 1,12,13
 370 315 370 315 370 307.5 c 128,-1,14
 370 300 370 300 369 246 c 0,15,16
 369 230 369 230 358 228 c 2,17,18
 358 228 358 228 348 225 c 1,19,20
 348 266 348 266 348 307 c 0,21,22
 348 323 348 323 338 323 c 256,23,24
 328 323 328 323 328 300 c 2,25,26
 328 300 328 300 328 246 c 1,27,28
 328 246 328 246 325 236 c 0,29,30
 323 225 323 225 307 225 c 2,31,32
 307 225 307 225 246 225 c 0,33,34
 230 225 230 225 230 256 c 256,35,36
 230 287 230 287 246 287 c 2,37,38
 246 287 246 287 264 287 c 128,-1,39
 282 287 282 287 282 297 c 256,40,41
 282 307 282 307 266 307 c 2,42,43
 266 307 266 307 256 307 c 128,-1,44
 246 307 246 307 225.5 302 c 128,-1,45
 205 297 205 297 205 266 c 2,46,47
 205 266 205 266 205 240.5 c 128,-1,48
 205 215 205 215 215 200 c 2,49,50
 215 200 215 200 225 184 c 2,51,52
 225 184 225 184 252 150 c 256,53,54
 279 116 279 116 287 102 c 1,55,56
 302 102 302 102 305 113 c 2,57,58
 305 113 305 113 307 123 c 1,59,60
 307 123 307 123 284 153.5 c 128,-1,61
 261 184 261 184 246 205 c 1,62,63
 246 205 246 205 348 205 c 1,64,65
 348 205 348 205 369 210 c 0,66,67
 389 215 389 215 389 246 c 0,68,69
 389 256 389 256 389 266 c 1,70,71
 389 266 389 266 410 266 c 1,72,73
 410 185 410 185 394 44 c 2,74,75
 394 44 394 44 391.5 22 c 128,-1,76
 389 0 389 0 389 -61 c 1,77,78
 389 -61 389 -61 102 -61 c 1,79,80
 102 -61 102 -61 102 0 c 1,81,82
 102 0 102 0 92 30 c 0,83,84
 20 230 20 230 20 266 c 0,85,86
 20 343 20 343 56 366 c 256,87,88
 92 389 92 389 114 389 c 2,89,90
 114 389 114 389 573 389 c 0,91,92
 589 389 589 389 592 379 c 2,93,94
 592 379 592 379 594 369 c 1,95,96
 594 369 594 369 225 369 c 0,97,98
 210 369 210 369 210 358.5 c 128,-1,99
 210 348 210 348 227 348 c 2,100,101
 227 348 227 348 348 348 c 0,102,103
 356 348 356 348 357.5 345.5 c 128,-1,104
 359 343 359 343 369 328 c 1,12,13
594 348 m 0,105,106
 607 348 607 348 607 326 c 2,107,108
 607 326 607 326 607 317 c 0,109,110
 604 287 604 287 573 287 c 2,111,112
 573 287 573 287 389 287 c 1,113,114
 389 287 389 287 389 348 c 1,115,116
 389 348 389 348 594 348 c 0,105,106
EndSplineSet
EndChar

StartChar: circumflex
Encoding: 710 710 78
Width: 287
GlyphClass: 1
Flags: W
LayerCount: 2
Fore
SplineSet
143 676 m 1,0,1
 143 676 143 676 266 553 c 1,2,3
 266 553 266 553 205 553 c 1,4,5
 184 573 184 573 143 614 c 1,6,7
 143 614 143 614 82 553 c 1,8,9
 82 553 82 553 20 553 c 1,10,11
 20 553 20 553 143 676 c 1,0,1
EndSplineSet
EndChar

StartChar: combining_4_tone
Encoding: 768 768 79
Width: 123
GlyphClass: 1
Flags: W
LayerCount: 2
Fore
SplineSet
82 655 m 1,0,1
 82 655 82 655 82 451 c 1,2,3
 82 451 82 451 123 451 c 1,4,5
 123 451 123 451 61 389 c 1,6,7
 41 410 41 410 0 451 c 1,8,9
 0 451 0 451 41 451 c 1,10,11
 41 451 41 451 41 655 c 1,12,13
 41 655 41 655 82 655 c 1,0,1
EndSplineSet
EndChar

StartChar: combinine_2_tone
Encoding: 769 769 80
Width: 123
GlyphClass: 1
Flags: W
LayerCount: 2
Fore
SplineSet
41 389 m 1,0,1
 41 389 41 389 41 594 c 1,2,3
 41 594 41 594 0 594 c 1,4,5
 0 594 0 594 61 655 c 1,6,7
 82 635 82 635 123 594 c 1,8,9
 123 594 123 594 82 594 c 1,10,11
 82 594 82 594 82 389 c 1,12,13
 82 389 82 389 41 389 c 1,0,1
EndSplineSet
EndChar

StartChar: combining_1_tone
Encoding: 772 772 81
Width: 267
GlyphClass: 1
Flags: W
LayerCount: 2
Fore
SplineSet
0 430 m 1,0,1
 0 430 0 430 205 430 c 1,2,3
 205 430 205 430 205 471 c 1,4,5
 205 471 205 471 266 410 c 1,6,7
 246 389 246 389 205 348 c 1,8,9
 205 348 205 348 205 389 c 1,10,11
 205 389 205 389 0 389 c 1,12,13
 0 389 0 389 0 430 c 1,0,1
EndSplineSet
EndChar

StartChar: combining_3_tone
Encoding: 780 780 82
Width: 287
GlyphClass: 1
Flags: W
LayerCount: 2
Fore
SplineSet
0 512 m 1,0,1
 0 512 0 512 41 512 c 1,2,3
 41 481 41 481 59 455.5 c 128,-1,4
 77 430 77 430 123 430 c 256,5,6
 169 430 169 430 187 455.5 c 128,-1,7
 205 481 205 481 205 512 c 1,8,9
 205 512 205 512 164 512 c 1,10,11
 164 512 164 512 225 573 c 1,12,13
 246 553 246 553 287 512 c 1,14,15
 287 512 287 512 246 512 c 1,16,17
 246 466 246 466 215 427.5 c 128,-1,18
 184 389 184 389 122.5 389 c 128,-1,19
 61 389 61 389 30.5 427.5 c 128,-1,20
 0 466 0 466 0 512 c 1,0,1
EndSplineSet
EndChar

StartChar: zh
Encoding: 7825 7825 83
Width: 779
GlyphClass: 1
Flags: W
LayerCount: 2
Fore
SplineSet
0 328 m 1,0,1
 0 328 0 328 61 328 c 0,2,3
 71 328 71 328 94.5 357.5 c 128,-1,4
 118 387 118 387 135 398.5 c 128,-1,5
 152 410 152 410 174 410 c 2,6,7
 174 410 174 410 238 410 c 128,-1,8
 302 410 302 410 315 407 c 256,9,10
 328 404 328 404 328 389 c 1,11,12
 328 389 328 389 696 389 c 0,13,14
 727 389 727 389 727 348 c 256,15,16
 727 307 727 307 696 307 c 2,17,18
 696 307 696 307 451 307 c 0,19,20
 436 307 436 307 436 297 c 256,21,22
 436 287 436 287 451 287 c 2,23,24
 451 287 451 287 717 287 c 0,25,26
 748 287 748 287 748 246 c 256,27,28
 748 205 748 205 717 205 c 2,29,30
 717 205 717 205 451 205 c 0,31,32
 436 205 436 205 436 194.5 c 128,-1,33
 436 184 436 184 451 184 c 0,34,35
 481 184 481 184 481 143 c 256,36,37
 481 102 481 102 451 102 c 0,38,39
 435 102 435 102 435 92 c 256,40,41
 435 82 435 82 451 82 c 2,42,43
 451 82 451 82 696 82 c 0,44,45
 727 82 727 82 727 41 c 256,46,47
 727 0 727 0 696 0 c 2,48,49
 696 0 696 0 164 0 c 0,50,51
 148 0 148 0 112.5 20.5 c 128,-1,52
 77 41 77 41 62 41 c 2,53,54
 62 41 62 41 0 41 c 1,55,56
 0 41 0 41 0 328 c 1,0,1
EndSplineSet
EndChar

StartChar: liga_1_tone
Encoding: 65537 -1 84
Width: 164
GlyphClass: 1
Flags: W
LayerCount: 2
Fore
SplineSet
-410 -82 m 1,0,1
 -410 -82 -410 -82 102 -82 c 1,2,3
 102 -82 102 -82 89 -92.5 c 128,-1,4
 76 -103 76 -103 57 -118.5 c 128,-1,5
 38 -134 38 -134 19 -149 c 2,6,7
 19 -149 19 -149 0 -164 c 1,8,9
 0 -164 0 -164 0 -123 c 1,10,11
 0 -123 0 -123 -410 -123 c 1,12,13
 -410 -123 -410 -123 -410 -82 c 1,0,1
EndSplineSet
Ligature2: "'clig' Contextual Ligatures in Latin lookup 11 subtable" backslash one
EndChar

StartChar: liga_2_tone
Encoding: 65538 -1 85
Width: 144
GlyphClass: 1
Flags: W
LayerCount: 2
Fore
SplineSet
0 143 m 1,0,1
 0 143 0 143 0 676 c 1,2,3
 27 642 27 642 82 573 c 1,4,5
 82 573 82 573 41 573 c 1,6,7
 41 573 41 573 41 143 c 1,8,9
 41 143 41 143 0 143 c 1,0,1
EndSplineSet
Ligature2: "'clig' Contextual Ligatures in Latin lookup 11 subtable" backslash two
EndChar

StartChar: liga_3_tone
Encoding: 65539 -1 86
Width: 144
GlyphClass: 1
Flags: W
LayerCount: 2
Fore
SplineSet
-41 -123 m 256,0,1
 -10 -123 -10 -123 -5 -102 c 2,2,3
 -5 -102 -5 -102 0 -82 c 1,4,5
 0 -82 0 -82 0 451 c 1,6,7
 27 416 27 416 82 348 c 1,8,9
 82 348 82 348 41 348 c 1,10,11
 41 348 41 348 41 -82 c 0,12,13
 41 -128 41 -128 15.5 -146 c 128,-1,14
 -10 -164 -10 -164 -41 -164 c 256,15,16
 -72 -164 -72 -164 -97.5 -138.5 c 128,-1,17
 -123 -113 -123 -113 -123 -82 c 1,18,19
 -123 -82 -123 -82 -82 -82 c 1,20,21
 -82 -82 -82 -82 -77 -102.5 c 128,-1,22
 -72 -123 -72 -123 -41 -123 c 256,0,1
EndSplineSet
Ligature2: "'clig' Contextual Ligatures in Latin lookup 11 subtable" backslash three
EndChar

StartChar: three_old
Encoding: 65540 -1 87
Width: 471
GlyphClass: 1
Flags: W
LayerCount: 2
Fore
SplineSet
164 225 m 0,0,1
 164 164 164 164 225 164 c 2,2,3
 225 164 225 164 271 164 c 128,-1,4
 317 164 317 164 322.5 159 c 128,-1,5
 328 154 328 154 328 123 c 0,6,7
 328 108 328 108 338 108 c 256,8,9
 348 108 348 108 348 123 c 0,10,11
 348 170 348 170 333 177 c 0,12,13
 317 184 317 184 314 184 c 2,14,15
 314 184 314 184 264 184 c 128,-1,16
 214 184 214 184 205 188 c 0,17,18
 179 198 179 198 179 224 c 0,19,20
 179 231 179 231 182 240 c 0,21,22
 191 266 191 266 225 266 c 2,23,24
 225 266 225 266 430 266 c 0,25,26
 445 266 445 266 448 253.5 c 128,-1,27
 451 241 451 241 451 236 c 2,28,29
 451 236 451 236 451 102 c 0,30,31
 451 82 451 82 427.5 60 c 128,-1,32
 404 38 404 38 386.5 23.5 c 128,-1,33
 369 9 369 9 369 -3 c 2,34,35
 369 -3 369 -3 369 -61 c 1,36,37
 369 -61 369 -61 82 -61 c 1,38,39
 82 -61 82 -61 82 0 c 0,40,41
 82 15 82 15 61 51 c 0,42,43
 41 87 41 87 41 102 c 0,44,45
 41 348 41 348 30 492 c 2,46,47
 30 492 30 492 20 635 c 0,48,49
 20 666 20 666 61 666 c 256,50,51
 102 666 102 666 102 635 c 2,52,53
 102 635 102 635 105 601 c 256,54,55
 108 567 108 567 111.5 519 c 128,-1,56
 115 471 115 471 119 426 c 2,57,58
 119 426 119 426 123 389 c 0,59,60
 123 374 123 374 133 374 c 256,61,62
 143 374 143 374 143 392 c 2,63,64
 143 392 143 392 143 655 c 0,65,66
 143 686 143 686 184 686 c 256,67,68
 225 686 225 686 225 655 c 2,69,70
 225 655 225 655 225 389 c 0,71,72
 225 374 225 374 236 374 c 0,73,74
 240 374 240 374 244.5 385.5 c 128,-1,75
 249 397 249 397 257.5 507.5 c 128,-1,76
 266 618 266 618 266 655 c 0,77,78
 266 686 266 686 307 686 c 256,79,80
 348 686 348 686 348 655 c 2,81,82
 348 655 348 655 342.5 584 c 128,-1,83
 337 513 337 513 332.5 468 c 128,-1,84
 328 423 328 423 328 410 c 2,85,86
 328 410 328 410 328 287 c 1,87,88
 328 287 328 287 123 287 c 0,89,90
 108 287 108 287 108 276.5 c 128,-1,91
 108 266 108 266 123 266 c 2,92,93
 123 266 123 266 184 266 c 1,94,95
 169 266 169 266 166.5 253.5 c 128,-1,96
 164 241 164 241 164 225 c 0,0,1
383 423 m 0,97,98
 430 423 430 423 430 389 c 0,99,100
 430 338 430 338 430 287 c 1,101,102
 430 287 430 287 348 287 c 1,103,104
 348 338 348 338 348 389 c 0,105,106
 348 423 348 423 383 423 c 0,97,98
EndSplineSet
EndChar

StartChar: three_quad
Encoding: 65541 -1 88
Width: 471
GlyphClass: 1
Flags: W
LayerCount: 2
Fore
SplineSet
164 225 m 0,0,1
 164 164 164 164 225 164 c 2,2,3
 225 164 225 164 271 164 c 128,-1,4
 317 164 317 164 322.5 159 c 128,-1,5
 328 154 328 154 328 123 c 0,6,7
 328 108 328 108 338 108 c 256,8,9
 348 108 348 108 348 123 c 0,10,11
 348 170 348 170 333 177 c 0,12,13
 317 184 317 184 314 184 c 2,14,15
 314 184 314 184 264 184 c 128,-1,16
 214 184 214 184 205 188 c 0,17,18
 179 198 179 198 179 224 c 0,19,20
 179 231 179 231 182 240 c 0,21,22
 191 266 191 266 225 266 c 2,23,24
 225 266 225 266 430 266 c 0,25,26
 445 266 445 266 448 253.5 c 128,-1,27
 451 241 451 241 451 236 c 2,28,29
 451 236 451 236 451 102 c 0,30,31
 451 82 451 82 427.5 60 c 128,-1,32
 404 38 404 38 386.5 23.5 c 128,-1,33
 369 9 369 9 369 -3 c 2,34,35
 369 -3 369 -3 369 -61 c 1,36,37
 369 -61 369 -61 82 -61 c 1,38,39
 82 -61 82 -61 82 0 c 0,40,41
 82 15 82 15 61 51 c 0,42,43
 41 87 41 87 41 102 c 0,44,45
 41 348 41 348 30 492 c 2,46,47
 30 492 30 492 20 635 c 0,48,49
 20 666 20 666 61 666 c 256,50,51
 102 666 102 666 102 635 c 2,52,53
 102 635 102 635 105 601 c 256,54,55
 108 567 108 567 111.5 519 c 128,-1,56
 115 471 115 471 119 426 c 2,57,58
 119 426 119 426 123 389 c 0,59,60
 123 374 123 374 133 374 c 256,61,62
 143 374 143 374 143 392 c 2,63,64
 143 392 143 392 143 655 c 0,65,66
 143 686 143 686 184 686 c 256,67,68
 225 686 225 686 225 655 c 2,69,70
 225 655 225 655 225 389 c 0,71,72
 225 374 225 374 236 374 c 0,73,74
 240 374 240 374 244.5 385.5 c 128,-1,75
 249 397 249 397 257.5 507.5 c 128,-1,76
 266 618 266 618 266 655 c 0,77,78
 266 686 266 686 307 686 c 256,79,80
 348 686 348 686 348 655 c 2,81,82
 348 655 348 655 342.5 584 c 128,-1,83
 337 513 337 513 332.5 468 c 128,-1,84
 328 423 328 423 328 410 c 2,85,86
 328 410 328 410 328 287 c 1,87,88
 328 287 328 287 123 287 c 0,89,90
 108 287 108 287 108 276.5 c 128,-1,91
 108 266 108 266 123 266 c 2,92,93
 123 266 123 266 184 266 c 1,94,95
 169 266 169 266 166.5 253.5 c 128,-1,96
 164 241 164 241 164 225 c 0,0,1
383 423 m 0,97,98
 430 423 430 423 430 389 c 0,99,100
 430 338 430 338 430 287 c 1,101,102
 430 287 430 287 348 287 c 1,103,104
 348 338 348 338 348 389 c 0,105,106
 348 423 348 423 383 423 c 0,97,98
EndSplineSet
EndChar

StartChar: liga_4_tone
Encoding: 65542 -1 89
Width: 144
GlyphClass: 1
Flags: W
LayerCount: 2
Fore
SplineSet
41 389 m 1,0,1
 41 389 41 389 41 -41 c 1,2,3
 41 -41 41 -41 82 -41 c 1,4,5
 55 -75 55 -75 0 -143 c 1,6,7
 0 -143 0 -143 0 389 c 1,8,9
 0 389 0 389 41 389 c 1,0,1
EndSplineSet
Ligature2: "'clig' Contextual Ligatures in Latin lookup 11 subtable" backslash four
EndChar

StartChar: seven_bis
Encoding: 65543 -1 90
Width: 656
GlyphClass: 1
Flags: W
LayerCount: 2
Fore
SplineSet
410 225 m 0,0,1
 410 205 410 205 429 205 c 0,2,3
 460 205 460 205 554 260 c 0,4,5
 567 266 567 266 573 266 c 0,6,7
 620 266 620 266 627.5 243 c 128,-1,8
 635 220 635 220 635 205 c 1,9,10
 635 205 635 205 598 181 c 0,11,12
 492 112 492 112 420 60 c 128,-1,13
 348 8 348 8 348 0 c 2,14,15
 348 0 348 0 348 -61 c 1,16,17
 348 -61 348 -61 61 -61 c 1,18,19
 61 -61 61 -61 61 0 c 0,20,21
 61 15 61 15 41 51 c 0,22,23
 20 87 20 87 20 102 c 0,24,25
 20 174 20 174 20 246 c 1,26,27
 20 230 20 230 31 228 c 2,28,29
 31 228 31 228 41 225 c 2,30,31
 41 225 41 225 102 225 c 1,32,33
 102 225 102 225 107.5 215 c 128,-1,34
 113 205 113 205 143 205 c 2,35,36
 143 205 143 205 184 205 c 1,37,38
 184 205 184 205 205 210 c 0,39,40
 225 215 225 215 225 246 c 2,41,42
 225 246 225 246 225 655 c 0,43,44
 225 686 225 686 266 686 c 256,45,46
 307 686 307 686 307 655 c 2,47,48
 307 655 307 655 307 389 c 0,49,50
 307 374 307 374 317.5 374 c 128,-1,51
 328 374 328 374 328 394 c 2,52,53
 328 394 328 394 328 635 c 0,54,55
 328 666 328 666 369 666 c 256,56,57
 410 666 410 666 410 635 c 0,58,59
 410 430 410 430 410 225 c 0,0,1
20 369 m 0,60,61
 20 402 20 402 72 402 c 0,62,63
 102 402 102 402 102 389 c 0,64,65
 102 374 102 374 112.5 374 c 128,-1,66
 123 374 123 374 123 389 c 0,67,68
 123 420 123 420 164 420 c 256,69,70
 205 420 205 420 205 389 c 2,71,72
 205 389 205 389 205 246 c 0,73,74
 205 215 205 215 164 215 c 256,75,76
 123 215 123 215 123 246 c 2,77,78
 123 246 123 246 123 300 c 0,79,80
 123 323 123 323 112.5 323 c 128,-1,81
 102 323 102 323 102 305 c 2,82,83
 102 305 102 305 102 266 c 0,84,85
 102 236 102 236 61 236 c 256,86,87
 20 236 20 236 20 266 c 2,88,89
 20 266 20 266 20 369 c 0,60,61
EndSplineSet
EndChar

StartChar: seven_ter
Encoding: 65544 -1 91
Width: 656
GlyphClass: 1
Flags: W
LayerCount: 2
Fore
SplineSet
72 -13 m 0,0,1
 20 -13 20 -13 20 20 c 2,2,3
 20 20 20 20 20 287 c 0,4,5
 20 302 20 302 41 338 c 0,6,7
 61 374 61 374 61 389 c 2,8,9
 61 389 61 389 61 451 c 1,10,11
 61 451 61 451 348 451 c 1,12,13
 348 451 348 451 348 389 c 0,14,15
 348 377 348 377 438.5 315 c 128,-1,16
 529 253 529 253 555.5 236 c 128,-1,17
 582 219 582 219 635 184 c 1,18,19
 635 169 635 169 629 146 c 256,20,21
 623 123 623 123 573 123 c 0,22,23
 552 123 552 123 475 169 c 0,24,25
 450 184 450 184 432.5 184 c 128,-1,26
 415 184 415 184 412 174 c 2,27,28
 412 174 412 174 411 111 c 128,-1,29
 410 48 410 48 410 32 c 2,30,31
 410 32 410 32 410 -266 c 0,32,33
 410 -297 410 -297 369 -297 c 256,34,35
 328 -297 328 -297 328 -266 c 0,36,37
 328 -133 328 -133 328 0 c 0,38,39
 328 15 328 15 317.5 13 c 128,-1,40
 307 11 307 11 307 0 c 0,41,42
 307 -31 307 -31 266 -31 c 256,43,44
 225 -31 225 -31 225 0 c 0,45,46
 225 15 225 15 215 15 c 256,47,48
 205 15 205 15 205 0 c 0,49,50
 205 -31 205 -31 164 -31 c 256,51,52
 123 -31 123 -31 123 0 c 0,53,54
 123 15 123 15 112.5 15 c 128,-1,55
 102 15 102 15 102 0 c 0,56,57
 102 -13 102 -13 72 -13 c 0,0,1
EndSplineSet
EndChar

StartChar: eight_ter
Encoding: 65545 -1 92
Width: 655
GlyphClass: 1
Flags: W
LayerCount: 2
Fore
SplineSet
72 -13 m 0,0,1
 20 -13 20 -13 20 20 c 2,2,3
 20 20 20 20 20 287 c 0,4,5
 20 302 20 302 41 338 c 0,6,7
 61 374 61 374 61 389 c 2,8,9
 61 389 61 389 61 451 c 1,10,11
 61 451 61 451 348 451 c 1,12,13
 348 451 348 451 348 389 c 0,14,15
 348 377 348 377 438.5 315 c 128,-1,16
 529 253 529 253 555.5 236 c 128,-1,17
 582 219 582 219 635 184 c 1,18,19
 635 169 635 169 629 146 c 256,20,21
 623 123 623 123 573 123 c 0,22,23
 552 123 552 123 475 169 c 0,24,25
 450 184 450 184 432.5 184 c 128,-1,26
 415 184 415 184 412 174 c 2,27,28
 412 174 412 174 410 149 c 2,29,30
 410 149 410 149 410 -246 c 0,31,32
 410 -276 410 -276 369 -276 c 256,33,34
 328 -276 328 -276 328 -246 c 0,35,36
 328 -123 328 -123 328 0 c 0,37,38
 328 15 328 15 317.5 13 c 128,-1,39
 307 11 307 11 307 2 c 2,40,41
 307 2 307 2 307 -266 c 0,42,43
 307 -297 307 -297 266 -297 c 256,44,45
 225 -297 225 -297 225 -266 c 2,46,47
 225 -266 225 -266 225 0 c 0,48,49
 225 15 225 15 215 15 c 256,50,51
 205 15 205 15 205 0 c 0,52,53
 205 -31 205 -31 164 -31 c 256,54,55
 123 -31 123 -31 123 0 c 0,56,57
 123 15 123 15 112.5 15 c 128,-1,58
 102 15 102 15 102 0 c 0,59,60
 102 -13 102 -13 72 -13 c 0,0,1
EndSplineSet
EndChar

StartChar: liga_CH
Encoding: 65546 -1 93
Width: 577
GlyphClass: 1
Flags: W
LayerCount: 2
Fore
SplineSet
129 637 m 0,0,1
 211 685 211 685 246 685 c 2,2,3
 246 685 246 685 535 685 c 0,4,5
 566 685 566 685 566 644 c 256,6,7
 566 603 566 603 535 603 c 2,8,9
 535 603 535 603 515 603 c 1,10,11
 515 603 515 603 525 598 c 256,12,13
 535 593 535 593 535 562 c 0,14,15
 535 561 535 561 527 543 c 0,16,17
 495 472 495 472 495 438 c 128,-1,18
 495 404 495 404 411 249 c 2,19,20
 411 249 411 249 392 214 c 1,21,22
 392 214 392 214 392 -52 c 1,23,24
 392 -52 392 -52 105 -52 c 1,25,26
 105 -52 105 -52 105 214 c 1,27,28
 105 214 105 214 90 256 c 0,29,30
 23 445 23 445 23 484.5 c 128,-1,31
 23 524 23 524 44 560 c 128,-1,32
 65 596 65 596 85 610 c 2,33,34
 85 610 85 610 105 623 c 2,35,36
 105 623 105 623 129 637 c 0,0,1
290 337 m 1,37,38
 290 337 290 337 245 396 c 0,39,40
 245 400 245 400 218 432 c 0,41,42
 208 444 208 444 208 460 c 0,43,44
 208 461 208 461 218 486 c 128,-1,45
 228 511 228 511 228 480 c 0,46,47
 228 470 228 470 243 454 c 128,-1,48
 258 438 258 438 295 428 c 2,49,50
 295 428 295 428 331 419 c 1,51,52
 331 419 331 419 351 453 c 0,53,54
 437 603 437 603 454 603 c 1,55,56
 454 603 454 603 287 603 c 0,57,58
 284 603 284 603 260 577 c 128,-1,59
 236 551 236 551 203 495 c 0,60,61
 187 468 187 468 187 460 c 0,62,63
 187 429 187 429 198 414 c 2,64,65
 198 414 198 414 208 398 c 2,66,67
 208 398 208 398 216 387.5 c 128,-1,68
 224 377 224 377 235 362 c 128,-1,69
 246 347 246 347 249 343 c 128,-1,70
 252 339 252 339 269 316 c 1,71,72
 285 316 285 316 287 326 c 2,73,74
 287 326 287 326 290 337 c 1,37,38
EndSplineSet
Ligature2: "'clig' Contextual Ligatures in Latin lookup 11 subtable" C H
Ligature2: "'clig' Contextual Ligatures in Latin lookup 11 subtable" C h
EndChar

StartChar: liga_SH
Encoding: 65547 -1 94
Width: 635
GlyphClass: 1
Flags: W
LayerCount: 2
Fore
SplineSet
307 614 m 1,0,1
 307 614 307 614 307 649 c 0,2,3
 307 689 307 689 353 689 c 0,4,5
 362 689 362 689 373 687 c 0,6,7
 410 680 410 680 410 655 c 2,8,9
 410 655 410 655 410 614 c 1,10,11
 410 614 410 614 307 614 c 1,0,1
369 532 m 1,12,13
 370 520 370 520 370 512.5 c 128,-1,14
 370 505 370 505 369 450 c 0,15,16
 369 435 369 435 358 433 c 2,17,18
 358 433 358 433 348 430 c 1,19,20
 348 471 348 471 348 512 c 0,21,22
 348 527 348 527 338 527 c 256,23,24
 328 527 328 527 328 504 c 2,25,26
 328 504 328 504 328 451 c 1,27,28
 328 451 328 451 325 440 c 0,29,30
 323 430 323 430 307 430 c 2,31,32
 307 430 307 430 246 430 c 0,33,34
 230 430 230 430 230 461 c 256,35,36
 230 492 230 492 246 492 c 2,37,38
 246 492 246 492 266 492 c 0,39,40
 282 492 282 492 266 502 c 0,41,42
 251 512 251 512 266 512 c 1,43,44
 266 512 266 512 256 512 c 128,-1,45
 246 512 246 512 225.5 507 c 128,-1,46
 205 502 205 502 205 471 c 2,47,48
 205 471 205 471 205 445.5 c 128,-1,49
 205 420 205 420 215 404 c 2,50,51
 215 404 215 404 225 389 c 2,52,53
 225 389 225 389 252 355 c 256,54,55
 279 321 279 321 287 307 c 1,56,57
 302 307 302 307 305 317 c 2,58,59
 305 317 305 317 307 328 c 1,60,61
 307 328 307 328 284 358.5 c 128,-1,62
 261 389 261 389 246 410 c 1,63,64
 246 410 246 410 348 410 c 1,65,66
 348 410 348 410 369 415 c 0,67,68
 389 420 389 420 389 451 c 0,69,70
 389 461 389 461 389 471 c 1,71,72
 389 471 389 471 410 471 c 1,73,74
 410 390 410 390 394 249 c 2,75,76
 394 249 394 249 389 205 c 1,77,78
 389 205 389 205 389 -61 c 1,79,80
 389 -61 389 -61 102 -61 c 1,81,82
 102 -61 102 -61 102 205 c 1,83,84
 102 205 102 205 87 247 c 0,85,86
 20 439 20 439 20 471 c 0,87,88
 20 548 20 548 56 571 c 256,89,90
 92 594 92 594 114 594 c 2,91,92
 114 594 114 594 573 594 c 0,93,94
 589 594 589 594 591 584 c 2,95,96
 591 584 591 584 594 573 c 1,97,98
 594 573 594 573 225 573 c 0,99,100
 210 573 210 573 210 563 c 256,101,102
 210 553 210 553 227 553 c 2,103,104
 227 553 227 553 348 553 c 0,105,106
 356 553 356 553 362 542 c 2,107,108
 362 542 362 542 369 532 c 1,12,13
594 553 m 0,109,110
 607 553 607 553 607 531 c 2,111,112
 607 531 607 531 607 522 c 0,113,114
 604 492 604 492 573 492 c 2,115,116
 573 492 573 492 389 492 c 1,117,118
 389 492 389 492 389 553 c 1,119,120
 389 553 389 553 594 553 c 0,109,110
EndSplineSet
Ligature2: "'clig' Contextual Ligatures in Latin lookup 11 subtable" S H
Ligature2: "'clig' Contextual Ligatures in Latin lookup 11 subtable" S h
EndChar

StartChar: liga_ZH
Encoding: 65548 -1 95
Width: 451
GlyphClass: 1
Flags: W
LayerCount: 2
Fore
SplineSet
102 -61 m 1,0,1
 102 -61 102 -61 102 0 c 0,2,3
 102 9 102 9 72 34 c 128,-1,4
 42 59 42 59 31 74.5 c 128,-1,5
 20 90 20 90 20 112 c 2,6,7
 20 112 20 112 20 176.5 c 128,-1,8
 20 241 20 241 23 253.5 c 128,-1,9
 26 266 26 266 41 266 c 1,10,11
 41 266 41 266 41 655 c 0,12,13
 41 686 41 686 82 686 c 256,14,15
 123 686 123 686 123 655 c 0,16,17
 123 522 123 522 123 389 c 0,18,19
 123 374 123 374 133 374 c 256,20,21
 143 374 143 374 143 390 c 0,22,23
 143 523 143 523 143 656 c 0,24,25
 143 687 143 687 184 687 c 256,26,27
 225 687 225 687 225 656 c 0,28,29
 225 523 225 523 225 390 c 0,30,31
 225 374 225 374 235.5 374 c 128,-1,32
 246 374 246 374 246 389 c 0,33,34
 246 420 246 420 287 420 c 256,35,36
 328 420 328 420 328 389 c 0,37,38
 328 374 328 374 338 374 c 256,39,40
 348 374 348 374 348 389 c 0,41,42
 348 522 348 522 348 655 c 0,43,44
 348 686 348 686 389 686 c 256,45,46
 430 686 430 686 430 655 c 2,47,48
 430 655 430 655 430 102 c 0,49,50
 430 87 430 87 409.5 51 c 128,-1,51
 389 15 389 15 389 0 c 2,52,53
 389 0 389 0 389 -61 c 1,54,55
 389 -61 389 -61 102 -61 c 1,0,1
EndSplineSet
Ligature2: "'clig' Contextual Ligatures in Latin lookup 11 subtable" Z H
Ligature2: "'clig' Contextual Ligatures in Latin lookup 11 subtable" Z h
EndChar

StartChar: liga_ch
Encoding: 65549 -1 96
Width: 594
GlyphClass: 1
Flags: W
LayerCount: 2
Fore
SplineSet
126 423 m 0,0,1
 211 471 211 471 243 471 c 2,2,3
 243 471 243 471 532 471 c 0,4,5
 563 471 563 471 563 430 c 256,6,7
 563 389 563 389 532 389 c 2,8,9
 532 389 532 389 512 389 c 1,10,11
 512 389 512 389 522 384 c 256,12,13
 532 379 532 379 532 348 c 0,14,15
 532 346 532 346 524 329 c 0,16,17
 492 259 492 259 492 232 c 128,-1,18
 492 205 492 205 459.5 137 c 128,-1,19
 427 69 427 69 408 35 c 2,20,21
 408 35 408 35 389 0 c 1,22,23
 389 0 389 0 389 -61 c 1,24,25
 389 -61 389 -61 102 -61 c 1,26,27
 102 -61 102 -61 102 0 c 0,28,29
 102 2 102 2 92 30 c 0,30,31
 20 230 20 230 20 262 c 0,32,33
 20 314 20 314 41 348 c 128,-1,34
 62 382 62 382 82 396 c 2,35,36
 82 396 82 396 102 410 c 2,37,38
 102 410 102 410 126 423 c 0,0,1
451 389 m 1,39,40
 451 389 451 389 284 389 c 0,41,42
 280 389 280 389 257 363.5 c 128,-1,43
 234 338 234 338 200 281 c 0,44,45
 184 254 184 254 184 246 c 0,46,47
 184 215 184 215 195 200 c 2,48,49
 195 200 195 200 205 184 c 2,50,51
 205 184 205 184 213 173.5 c 128,-1,52
 221 163 221 163 232 148 c 128,-1,53
 243 133 243 133 246 129 c 128,-1,54
 249 125 249 125 266 102 c 1,55,56
 282 102 282 102 284 113 c 2,57,58
 284 113 284 113 287 123 c 1,59,60
 287 123 287 123 279 133.5 c 128,-1,61
 271 144 271 144 259.5 159 c 128,-1,62
 248 174 248 174 242 182 c 128,-1,63
 236 190 236 190 220.5 210 c 128,-1,64
 205 230 205 230 205 246 c 1,65,66
 205 246 205 246 215 271.5 c 128,-1,67
 225 297 225 297 225 266 c 0,68,69
 225 255 225 255 240 240 c 128,-1,70
 255 225 255 225 292 215 c 2,71,72
 292 215 292 215 328 205 c 1,73,74
 328 205 328 205 348 239 c 0,75,76
 434 389 434 389 451 389 c 1,39,40
EndSplineSet
Ligature2: "'clig' Contextual Ligatures in Latin lookup 11 subtable" c h
EndChar

StartChar: liga_ng
Encoding: 65551 -1 98
Width: 779
GlyphClass: 1
Flags: W
LayerCount: 2
Fore
SplineSet
20 328 m 1,0,1
 20 328 20 328 82 328 c 0,2,3
 91 328 91 328 105.5 345.5 c 128,-1,4
 120 363 120 363 136 381 c 0,5,6
 165 410 165 410 184 410 c 2,7,8
 184 410 184 410 253.5 410 c 128,-1,9
 323 410 323 410 335.5 407 c 128,-1,10
 348 404 348 404 348 389 c 1,11,12
 348 389 348 389 471 389 c 0,13,14
 502 389 502 389 502 348 c 256,15,16
 502 307 502 307 471 307 c 0,17,18
 456 307 456 307 456 297 c 256,19,20
 456 287 456 287 471 287 c 0,21,22
 502 287 502 287 502 246 c 256,23,24
 502 205 502 205 471 205 c 0,25,26
 456 205 456 205 456 194.5 c 128,-1,27
 456 184 456 184 471 184 c 0,28,29
 502 184 502 184 502 143 c 256,30,31
 502 102 502 102 471 102 c 0,32,33
 456 102 456 102 456 92 c 256,34,35
 456 82 456 82 471 82 c 2,36,37
 471 82 471 82 717 82 c 0,38,39
 748 82 748 82 748 41 c 256,40,41
 748 0 748 0 717 0 c 2,42,43
 717 0 717 0 184 0 c 0,44,45
 169 0 169 0 133 20.5 c 128,-1,46
 97 41 97 41 82 41 c 2,47,48
 82 41 82 41 20 41 c 1,49,50
 20 41 20 41 20 328 c 1,0,1
EndSplineSet
Ligature2: "'clig' Contextual Ligatures in Latin lookup 11 subtable" n g
EndChar

StartChar: liga_sh
Encoding: 65552 -1 99
Width: 635
GlyphClass: 1
Flags: W
LayerCount: 2
Fore
SplineSet
307 410 m 1,0,1
 307 410 307 410 307 444 c 0,2,3
 307 483 307 483 353 485 c 0,4,5
 357 485 357 485 373 482 c 0,6,7
 410 475 410 475 410 451 c 2,8,9
 410 451 410 451 410 410 c 1,10,11
 410 410 410 410 307 410 c 1,0,1
369 328 m 1,12,13
 370 315 370 315 370 307.5 c 128,-1,14
 370 300 370 300 369 246 c 0,15,16
 369 230 369 230 358 228 c 2,17,18
 358 228 358 228 348 225 c 1,19,20
 348 266 348 266 348 307 c 0,21,22
 348 323 348 323 338 323 c 256,23,24
 328 323 328 323 328 300 c 2,25,26
 328 300 328 300 328 246 c 1,27,28
 328 246 328 246 325 236 c 0,29,30
 323 225 323 225 307 225 c 2,31,32
 307 225 307 225 246 225 c 0,33,34
 230 225 230 225 230 256 c 256,35,36
 230 287 230 287 246 287 c 2,37,38
 246 287 246 287 264 287 c 128,-1,39
 282 287 282 287 282 297 c 256,40,41
 282 307 282 307 266 307 c 2,42,43
 266 307 266 307 256 307 c 128,-1,44
 246 307 246 307 225.5 302 c 128,-1,45
 205 297 205 297 205 266 c 2,46,47
 205 266 205 266 205 240.5 c 128,-1,48
 205 215 205 215 215 200 c 2,49,50
 215 200 215 200 225 184 c 2,51,52
 225 184 225 184 252 150 c 256,53,54
 279 116 279 116 287 102 c 1,55,56
 302 102 302 102 305 113 c 2,57,58
 305 113 305 113 307 123 c 1,59,60
 307 123 307 123 284 153.5 c 128,-1,61
 261 184 261 184 246 205 c 1,62,63
 246 205 246 205 348 205 c 1,64,65
 348 205 348 205 369 210 c 0,66,67
 389 215 389 215 389 246 c 0,68,69
 389 256 389 256 389 266 c 1,70,71
 389 266 389 266 410 266 c 1,72,73
 410 185 410 185 394 44 c 2,74,75
 394 44 394 44 391.5 22 c 128,-1,76
 389 0 389 0 389 -61 c 1,77,78
 389 -61 389 -61 102 -61 c 1,79,80
 102 -61 102 -61 102 0 c 1,81,82
 102 0 102 0 92 30 c 0,83,84
 20 230 20 230 20 266 c 0,85,86
 20 343 20 343 56 366 c 256,87,88
 92 389 92 389 114 389 c 2,89,90
 114 389 114 389 573 389 c 0,91,92
 589 389 589 389 592 379 c 2,93,94
 592 379 592 379 594 369 c 1,95,96
 594 369 594 369 225 369 c 0,97,98
 210 369 210 369 210 358.5 c 128,-1,99
 210 348 210 348 227 348 c 2,100,101
 227 348 227 348 348 348 c 0,102,103
 356 348 356 348 357.5 345.5 c 128,-1,104
 359 343 359 343 369 328 c 1,12,13
594 348 m 0,105,106
 607 348 607 348 607 326 c 2,107,108
 607 326 607 326 607 317 c 0,109,110
 604 287 604 287 573 287 c 2,111,112
 573 287 573 287 389 287 c 1,113,114
 389 287 389 287 389 348 c 1,115,116
 389 348 389 348 594 348 c 0,105,106
EndSplineSet
Ligature2: "'clig' Contextual Ligatures in Latin lookup 11 subtable" s h
EndChar

StartChar: v_bis
Encoding: 65553 -1 100
Width: 656
GlyphClass: 1
Flags: W
LayerCount: 2
Fore
SplineSet
410 635 m 2,0,1
 410 635 410 635 409.5 523 c 128,-1,2
 409 411 409 411 409 388.5 c 128,-1,3
 409 366 409 366 410 266 c 1,4,5
 410 266 410 266 102 266 c 0,6,7
 87 266 87 266 87 256 c 256,8,9
 87 246 87 246 102 246 c 2,10,11
 102 246 102 246 410 246 c 1,12,13
 410 246 410 246 410 205 c 1,14,15
 415 200 415 200 415 192 c 256,16,17
 415 184 415 184 428 184 c 0,18,19
 460 184 460 184 541 233 c 0,20,21
 562 246 562 246 573 246 c 0,22,23
 620 246 620 246 627.5 223.5 c 128,-1,24
 635 201 635 201 635 184 c 1,25,26
 635 184 635 184 598 163 c 0,27,28
 503 109 503 109 425.5 58.5 c 128,-1,29
 348 8 348 8 348 0 c 2,30,31
 348 0 348 0 348 -61 c 1,32,33
 348 -61 348 -61 61 -61 c 1,34,35
 61 -61 61 -61 61 0 c 0,36,37
 61 15 61 15 41 41 c 0,38,39
 20 67 20 67 20 82 c 2,40,41
 20 82 20 82 20 635 c 0,42,43
 20 666 20 666 61 666 c 256,44,45
 102 666 102 666 102 635 c 2,46,47
 102 635 102 635 102 369 c 0,48,49
 102 353 102 353 112.5 353 c 128,-1,50
 123 353 123 353 123 372 c 2,51,52
 123 372 123 372 123 655 c 0,53,54
 123 686 123 686 164 686 c 256,55,56
 205 686 205 686 205 655 c 0,57,58
 205 512 205 512 205 369 c 0,59,60
 205 353 205 353 215 353 c 256,61,62
 225 353 225 353 225 369 c 0,63,64
 228 374 228 374 228 406 c 128,-1,65
 228 438 228 438 225 655 c 0,66,67
 225 686 225 686 266 686 c 256,68,69
 307 686 307 686 307 655 c 2,70,71
 307 655 307 655 307 369 c 0,72,73
 307 353 307 353 317.5 353 c 128,-1,74
 328 353 328 353 328 364 c 2,75,76
 328 364 328 364 328 635 c 0,77,78
 328 666 328 666 369 666 c 256,79,80
 410 666 410 666 410 635 c 2,0,1
512 573 m 2,81,82
 512 573 512 573 512 532 c 0,83,84
 512 517 512 517 481 502 c 0,85,86
 451 486 451 486 451 471 c 256,87,88
 451 456 451 456 481 440 c 0,89,90
 512 425 512 425 512 410 c 1,91,92
 512 410 512 410 512 451 c 1,93,94
 512 451 512 451 573 389 c 1,95,96
 573 389 573 389 512 328 c 1,97,98
 512 328 512 328 512 369 c 0,99,100
 512 384 512 384 471 409.5 c 128,-1,101
 430 435 430 435 430 453 c 2,102,103
 430 453 430 453 430 489 c 0,104,105
 430 507 430 507 461 522.5 c 128,-1,106
 492 538 492 538 492 553 c 256,107,108
 492 568 492 568 461 583.5 c 128,-1,109
 430 599 430 599 430 614 c 2,110,111
 430 614 430 614 430 655 c 1,112,113
 430 640 430 640 471 614.5 c 128,-1,114
 512 589 512 589 512 573 c 2,81,82
EndSplineSet
Ligature2: "'clig' Contextual Ligatures in Latin lookup 11 subtable" v quotesingle
EndChar

StartChar: liga_zh
Encoding: 65554 -1 101
Width: 799
GlyphClass: 1
Flags: W
LayerCount: 2
Fore
SplineSet
20 328 m 1,0,1
 20 328 20 328 81 328 c 0,2,3
 90 328 90 328 105 346 c 0,4,5
 157 410 157 410 186 410 c 2,6,7
 186 410 186 410 254 410 c 128,-1,8
 322 410 322 410 335 407 c 256,9,10
 348 404 348 404 348 389 c 1,11,12
 348 389 348 389 716 389 c 0,13,14
 747 389 747 389 747 348 c 256,15,16
 747 307 747 307 716 307 c 2,17,18
 716 307 716 307 471 307 c 0,19,20
 456 307 456 307 456 297 c 256,21,22
 456 287 456 287 471 287 c 2,23,24
 471 287 471 287 737 287 c 0,25,26
 768 287 768 287 768 246 c 256,27,28
 768 205 768 205 737 205 c 2,29,30
 737 205 737 205 471 205 c 0,31,32
 456 205 456 205 456 194.5 c 128,-1,33
 456 184 456 184 471 184 c 0,34,35
 501 184 501 184 501 143 c 256,36,37
 501 102 501 102 471 102 c 0,38,39
 455 102 455 102 455 92 c 256,40,41
 455 82 455 82 471 82 c 2,42,43
 471 82 471 82 716 82 c 0,44,45
 747 82 747 82 747 41 c 256,46,47
 747 0 747 0 716 0 c 2,48,49
 716 0 716 0 184 0 c 0,50,51
 169 0 169 0 133 20.5 c 128,-1,52
 97 41 97 41 82 41 c 2,53,54
 82 41 82 41 20 41 c 1,55,56
 20 41 20 41 20 328 c 1,0,1
EndSplineSet
Ligature2: "'clig' Contextual Ligatures in Latin lookup 11 subtable" z h
EndChar

StartChar: liga_YU
Encoding: 65555 -1 102
Width: 656
GlyphClass: 1
Flags: W
LayerCount: 2
Fore
SplineSet
225 389 m 0,0,1
 228 394 228 394 228 426.5 c 128,-1,2
 228 459 228 459 225 655 c 0,3,4
 225 686 225 686 266 686 c 256,5,6
 307 686 307 686 307 655 c 2,7,8
 307 655 307 655 307 389 c 0,9,10
 307 374 307 374 317.5 374 c 128,-1,11
 328 374 328 374 328 385 c 0,12,13
 328 520 328 520 328 655 c 0,14,15
 328 686 328 686 369 686 c 256,16,17
 410 686 410 686 410 655 c 2,18,19
 410 655 410 655 410 287 c 1,20,21
 410 287 410 287 102 287 c 0,22,23
 87 287 87 287 87 276.5 c 128,-1,24
 87 266 87 266 102 266 c 2,25,26
 102 266 102 266 410 266 c 1,27,28
 410 266 410 266 410 225 c 1,29,30
 415 220 415 220 415 212.5 c 128,-1,31
 415 205 415 205 428 205 c 0,32,33
 456 205 456 205 541 253 c 0,34,35
 564 266 564 266 573 266 c 0,36,37
 620 266 620 266 627.5 244 c 128,-1,38
 635 222 635 222 635 205 c 1,39,40
 635 205 635 205 598 181 c 0,41,42
 492 112 492 112 420 60 c 128,-1,43
 348 8 348 8 348 0 c 2,44,45
 348 0 348 0 348 -61 c 1,46,47
 348 -61 348 -61 61 -61 c 1,48,49
 61 -61 61 -61 61 0 c 0,50,51
 61 17 61 17 40.5 52 c 128,-1,52
 20 87 20 87 20 90 c 2,53,54
 20 90 20 90 20 655 c 0,55,56
 20 686 20 686 61 686 c 256,57,58
 102 686 102 686 102 655 c 2,59,60
 102 655 102 655 102 389 c 0,61,62
 102 374 102 374 112.5 374 c 128,-1,63
 123 374 123 374 123 392 c 2,64,65
 123 392 123 392 123 655 c 0,66,67
 123 686 123 686 164 686 c 256,68,69
 205 686 205 686 205 655 c 0,70,71
 205 522 205 522 205 389 c 0,72,73
 205 374 205 374 215 374 c 256,74,75
 225 374 225 374 225 389 c 0,0,1
471 676 m 256,76,77
 502 676 502 676 507 656 c 2,78,79
 507 656 507 656 512 635 c 1,80,81
 512 635 512 635 507 614.5 c 128,-1,82
 502 594 502 594 471 594 c 256,83,84
 440 594 440 594 435 614 c 2,85,86
 435 614 435 614 430 635 c 1,87,88
 430 635 430 635 435 655.5 c 128,-1,89
 440 676 440 676 471 676 c 256,76,77
471 553 m 256,90,91
 502 553 502 553 507 532 c 2,92,93
 507 532 507 532 512 512 c 1,94,95
 512 512 512 512 507 491.5 c 128,-1,96
 502 471 502 471 471 471 c 256,97,98
 440 471 440 471 435 492 c 2,99,100
 435 492 435 492 430 512 c 1,101,102
 430 512 430 512 435 532.5 c 128,-1,103
 440 553 440 553 471 553 c 256,90,91
EndSplineSet
Ligature2: "'clig' Contextual Ligatures in Latin lookup 11 subtable" U quotesingle
Ligature2: "Ligature Substitution lookup 3 subtable" U
Ligature2: "Ligature Substitution lookup 2 subtable" U
Ligature2: "Ligature Substitution lookup 1 subtable" U
EndChar

StartChar: liga_ea
Encoding: 65556 -1 103
Width: 656
GlyphClass: 1
Flags: W
LayerCount: 2
Fore
SplineSet
410 635 m 2,0,1
 410 635 410 635 409.5 523 c 128,-1,2
 409 411 409 411 409 388.5 c 128,-1,3
 409 366 409 366 410 266 c 1,4,5
 410 266 410 266 102 266 c 0,6,7
 87 266 87 266 87 256 c 256,8,9
 87 246 87 246 102 246 c 2,10,11
 102 246 102 246 410 246 c 1,12,13
 410 246 410 246 410 205 c 1,14,15
 415 200 415 200 415 192 c 256,16,17
 415 184 415 184 428 184 c 0,18,19
 460 184 460 184 541 233 c 0,20,21
 562 246 562 246 573 246 c 0,22,23
 620 246 620 246 627.5 223.5 c 128,-1,24
 635 201 635 201 635 184 c 1,25,26
 635 184 635 184 598 163 c 0,27,28
 503 109 503 109 425.5 58.5 c 128,-1,29
 348 8 348 8 348 0 c 2,30,31
 348 0 348 0 348 -61 c 1,32,33
 348 -61 348 -61 61 -61 c 1,34,35
 61 -61 61 -61 61 0 c 0,36,37
 61 15 61 15 41 41 c 0,38,39
 20 67 20 67 20 82 c 2,40,41
 20 82 20 82 20 635 c 0,42,43
 20 666 20 666 61 666 c 256,44,45
 102 666 102 666 102 635 c 2,46,47
 102 635 102 635 102 369 c 0,48,49
 102 353 102 353 112.5 353 c 128,-1,50
 123 353 123 353 123 372 c 2,51,52
 123 372 123 372 123 655 c 0,53,54
 123 686 123 686 164 686 c 256,55,56
 205 686 205 686 205 655 c 0,57,58
 205 512 205 512 205 369 c 0,59,60
 205 353 205 353 215 353 c 256,61,62
 225 353 225 353 225 369 c 0,63,64
 228 374 228 374 228 406 c 128,-1,65
 228 438 228 438 225 655 c 0,66,67
 225 686 225 686 266 686 c 256,68,69
 307 686 307 686 307 655 c 2,70,71
 307 655 307 655 307 369 c 0,72,73
 307 353 307 353 317.5 353 c 128,-1,74
 328 353 328 353 328 364 c 2,75,76
 328 364 328 364 328 635 c 0,77,78
 328 666 328 666 369 666 c 256,79,80
 410 666 410 666 410 635 c 2,0,1
512 573 m 2,81,82
 512 573 512 573 512 532 c 0,83,84
 512 517 512 517 481 502 c 0,85,86
 451 486 451 486 451 471 c 256,87,88
 451 456 451 456 481 440 c 0,89,90
 512 425 512 425 512 410 c 1,91,92
 512 410 512 410 512 451 c 1,93,94
 512 451 512 451 573 389 c 1,95,96
 573 389 573 389 512 328 c 1,97,98
 512 328 512 328 512 369 c 0,99,100
 512 384 512 384 471 409.5 c 128,-1,101
 430 435 430 435 430 453 c 2,102,103
 430 453 430 453 430 489 c 0,104,105
 430 507 430 507 461 522.5 c 128,-1,106
 492 538 492 538 492 553 c 256,107,108
 492 568 492 568 461 583.5 c 128,-1,109
 430 599 430 599 430 614 c 2,110,111
 430 614 430 614 430 655 c 1,112,113
 430 640 430 640 471 614.5 c 128,-1,114
 512 589 512 589 512 573 c 2,81,82
EndSplineSet
Ligature2: "'clig' Contextual Ligatures in Latin lookup 11 subtable" u quotesingle
Ligature2: "Ligature Substitution lookup 9 subtable" u
Ligature2: "Ligature Substitution lookup 8 subtable" u
Ligature2: "Ligature Substitution lookup 7 subtable" u
Ligature2: "Ligature Substitution lookup 6 subtable" u
Ligature2: "Ligature Substitution lookup 5 subtable" u
Ligature2: "Ligature Substitution lookup 4 subtable" u
EndChar
